<?xml version="1.0" standalone="no"?>
<!DOCTYPE svg PUBLIC "-//W3C//DTD SVG 1.1//EN" "http://www.w3.org/Graphics/SVG/1.1/DTD/svg11.dtd" >
<svg xmlns="http://www.w3.org/2000/svg" xmlns:xlink="http://www.w3.org/1999/xlink" version="1.1">
<metadata>
Created by FontForge 20160405 at Tue Jun 14 08:50:24 2016
 By www-data
Copyright (c) 2008 - 2009 Linotype GmbH, www.linotype.com. All rights reserved. This font software may not be reproduced, modified, disclosed or transferred without the express written approval of Linotype GmbH.
</metadata>
<defs>
<font id="DINNextRoundedLTPro-Regular" horiz-adv-x="542" >
  <font-face 
    font-family="DIN Next Rounded LT Pro"
    font-weight="400"
    font-stretch="normal"
    units-per-em="1000"
    panose-1="2 15 5 3 2 2 3 5 2 3"
    ascent="750"
    descent="-250"
    x-height="479"
    cap-height="685"
    bbox="-140 -220 1007 918"
    underline-thickness="50"
    underline-position="-100"
    stemh="61"
    stemv="64"
    unicode-range="U+0020-FB04"
  />
<missing-glyph horiz-adv-x="477" 
d="M0 25v630c0 16 9 25 25 25h427c16 0 25 -9 25 -25v-630c0 -16 -9 -25 -25 -25h-427c-16 0 -25 9 -25 25zM49 53c0 -4 2 -6 6 -6h367c4 0 6 2 6 6v574c0 4 -2 6 -6 6h-367c-4 0 -6 -2 -6 -6v-574zM227 226c-17 0 -29 12 -29 30v12c0 28 6 44 22 64l39 48
c24 31 32 46 32 70c0 35 -25 60 -61 60c-34 0 -52 -16 -65 -51c-6 -12 -14 -20 -26 -20c-16 0 -27 11 -27 28c0 4 1 10 2 14c13 45 53 81 118 81c71 0 118 -49 118 -111c0 -36 -11 -59 -36 -89l-41 -50c-14 -17 -17 -26 -17 -47v-9c0 -18 -12 -30 -29 -30zM189 147
c0 21 17 37 38 37c20 0 37 -16 37 -37s-17 -38 -37 -38c-21 0 -38 17 -38 38z" />
    <glyph glyph-name="napostrophe" unicode="&#x22;n" horiz-adv-x="544" 
d="M82 40v399c0 28 18 45 42 45s42 -17 42 -45v-14h1c23 37 69 65 134 65c104 0 166 -71 166 -180v-270c0 -28 -18 -45 -42 -45s-42 17 -42 45v250c0 77 -35 122 -107 122c-65 0 -110 -46 -110 -117v-255c0 -28 -18 -45 -42 -45s-42 17 -42 45zM77 547
c-7 -19 -20 -30 -36 -30c-22 0 -38 14 -38 36c0 5 1 12 3 17l26 83c7 20 19 30 36 30c22 0 39 -14 39 -36c0 -5 -1 -12 -3 -17z" />
    <glyph glyph-name="IJ" unicode="IJ" horiz-adv-x="746" 
d="M84 43v594c0 30 18 48 45 48c26 0 44 -18 44 -48v-594c0 -30 -18 -48 -44 -48c-27 0 -45 18 -45 48zM309 39c-10 9 -15 21 -15 33c0 22 17 40 40 40c10 0 20 -4 32 -12c25 -16 57 -28 89 -28c75 0 123 42 123 146v419c0 30 18 48 45 48c26 0 44 -18 44 -48v-419
c0 -152 -82 -229 -214 -229c-58 0 -113 23 -144 50z" />
    <glyph glyph-name="ij" unicode="ij" horiz-adv-x="496" 
d="M124 575c-30 0 -55 25 -55 55c0 31 25 55 55 55s55 -24 55 -55c0 -30 -25 -55 -55 -55zM82 40v399c0 28 18 45 42 45s42 -17 42 -45v-399c0 -28 -18 -45 -42 -45s-42 17 -42 45zM372 575c-30 0 -55 25 -55 55c0 31 25 55 55 55s55 -24 55 -55c0 -30 -25 -55 -55 -55z
M330 -37v476c0 28 18 45 42 45s42 -17 42 -45v-475c0 -102 -46 -144 -138 -144c-26 0 -40 17 -40 39s13 37 37 39c44 4 57 16 57 65z" />
    <glyph glyph-name="fi" unicode="fi" horiz-adv-x="567" 
d="M188 479h71c23 0 36 -14 36 -34s-13 -34 -36 -34h-71c-4 0 -6 -2 -6 -6v-365c0 -28 -18 -45 -42 -45s-42 17 -42 45v365c0 4 -2 6 -6 6h-27c-23 0 -36 14 -36 34s13 34 36 34h27c4 0 6 2 6 6v42c0 115 48 153 148 153h7c29 0 44 -16 44 -39s-15 -39 -41 -39
c-62 0 -74 -12 -74 -70v-47c0 -4 2 -6 6 -6zM443 575c-30 0 -55 25 -55 55c0 31 25 55 55 55s55 -24 55 -55c0 -30 -25 -55 -55 -55zM401 40v399c0 28 18 45 42 45s42 -17 42 -45v-399c0 -28 -18 -45 -42 -45s-42 17 -42 45z" />
    <glyph glyph-name="fl" unicode="fl" horiz-adv-x="598" 
d="M188 479h71c23 0 36 -14 36 -34s-13 -34 -36 -34h-71c-4 0 -6 -2 -6 -6v-365c0 -28 -18 -45 -42 -45s-42 17 -42 45v365c0 4 -2 6 -6 6h-27c-23 0 -36 14 -36 34s13 34 36 34h27c4 0 6 2 6 6v42c0 115 48 153 148 153h7c29 0 44 -16 44 -39s-15 -39 -41 -39
c-62 0 -74 -12 -74 -70v-47c0 -4 2 -6 6 -6zM525 -5h-9c-86 0 -117 42 -117 128v517c0 28 18 45 42 45s42 -17 42 -45v-512c0 -40 13 -55 46 -55c24 0 39 -16 39 -39s-15 -39 -43 -39z" />
    <glyph glyph-name="f_f" unicode="ff" horiz-adv-x="638" 
d="M188 479h71c23 0 36 -14 36 -34s-13 -34 -36 -34h-71c-4 0 -6 -2 -6 -6v-365c0 -28 -18 -45 -42 -45s-42 17 -42 45v365c0 4 -2 6 -6 6h-27c-23 0 -36 14 -36 34s13 34 36 34h27c4 0 6 2 6 6v42c0 115 48 153 148 153h7c29 0 44 -16 44 -39s-15 -39 -41 -39
c-62 0 -74 -12 -74 -70v-47c0 -4 2 -6 6 -6zM507 479h71c23 0 36 -14 36 -34s-13 -34 -36 -34h-71c-4 0 -6 -2 -6 -6v-365c0 -28 -18 -45 -42 -45s-42 17 -42 45v365c0 4 -2 6 -6 6h-27c-23 0 -36 14 -36 34s13 34 36 34h27c4 0 6 2 6 6v42c0 115 48 153 148 153h7
c29 0 44 -16 44 -39s-15 -39 -41 -39c-62 0 -74 -12 -74 -70v-47c0 -4 2 -6 6 -6z" />
    <glyph glyph-name="f_f_i" unicode="ffi" horiz-adv-x="886" 
d="M188 479h71c23 0 36 -14 36 -34s-13 -34 -36 -34h-71c-4 0 -6 -2 -6 -6v-365c0 -28 -18 -45 -42 -45s-42 17 -42 45v365c0 4 -2 6 -6 6h-27c-23 0 -36 14 -36 34s13 34 36 34h27c4 0 6 2 6 6v42c0 115 48 153 148 153h7c29 0 44 -16 44 -39s-15 -39 -41 -39
c-62 0 -74 -12 -74 -70v-47c0 -4 2 -6 6 -6zM507 479h71c23 0 36 -14 36 -34s-13 -34 -36 -34h-71c-4 0 -6 -2 -6 -6v-365c0 -28 -18 -45 -42 -45s-42 17 -42 45v365c0 4 -2 6 -6 6h-27c-23 0 -36 14 -36 34s13 34 36 34h27c4 0 6 2 6 6v42c0 115 48 153 148 153h7
c29 0 44 -16 44 -39s-15 -39 -41 -39c-62 0 -74 -12 -74 -70v-47c0 -4 2 -6 6 -6zM762 575c-30 0 -55 25 -55 55c0 31 25 55 55 55s55 -24 55 -55c0 -30 -25 -55 -55 -55zM720 40v399c0 28 18 45 42 45s42 -17 42 -45v-399c0 -28 -18 -45 -42 -45s-42 17 -42 45z" />
    <glyph glyph-name="f_f_l" unicode="ffl" horiz-adv-x="917" 
d="M188 479h71c23 0 36 -14 36 -34s-13 -34 -36 -34h-71c-4 0 -6 -2 -6 -6v-365c0 -28 -18 -45 -42 -45s-42 17 -42 45v365c0 4 -2 6 -6 6h-27c-23 0 -36 14 -36 34s13 34 36 34h27c4 0 6 2 6 6v42c0 115 48 153 148 153h7c29 0 44 -16 44 -39s-15 -39 -41 -39
c-62 0 -74 -12 -74 -70v-47c0 -4 2 -6 6 -6zM507 479h71c23 0 36 -14 36 -34s-13 -34 -36 -34h-71c-4 0 -6 -2 -6 -6v-365c0 -28 -18 -45 -42 -45s-42 17 -42 45v365c0 4 -2 6 -6 6h-27c-23 0 -36 14 -36 34s13 34 36 34h27c4 0 6 2 6 6v42c0 115 48 153 148 153h7
c29 0 44 -16 44 -39s-15 -39 -41 -39c-62 0 -74 -12 -74 -70v-47c0 -4 2 -6 6 -6zM844 -5h-9c-86 0 -117 42 -117 128v517c0 28 18 45 42 45s42 -17 42 -45v-512c0 -40 13 -55 46 -55c24 0 39 -16 39 -39s-15 -39 -43 -39z" />
    <glyph glyph-name=".notdef" horiz-adv-x="477" 
d="M0 25v630c0 16 9 25 25 25h427c16 0 25 -9 25 -25v-630c0 -16 -9 -25 -25 -25h-427c-16 0 -25 9 -25 25zM49 53c0 -4 2 -6 6 -6h367c4 0 6 2 6 6v574c0 4 -2 6 -6 6h-367c-4 0 -6 -2 -6 -6v-574zM227 226c-17 0 -29 12 -29 30v12c0 28 6 44 22 64l39 48
c24 31 32 46 32 70c0 35 -25 60 -61 60c-34 0 -52 -16 -65 -51c-6 -12 -14 -20 -26 -20c-16 0 -27 11 -27 28c0 4 1 10 2 14c13 45 53 81 118 81c71 0 118 -49 118 -111c0 -36 -11 -59 -36 -89l-41 -50c-14 -17 -17 -26 -17 -47v-9c0 -18 -12 -30 -29 -30zM189 147
c0 21 17 37 38 37c20 0 37 -16 37 -37s-17 -38 -37 -38c-21 0 -38 17 -38 38z" />
    <glyph glyph-name=".null" horiz-adv-x="500" 
 />
    <glyph glyph-name="CR" horiz-adv-x="0" 
 />
    <glyph glyph-name="space" unicode=" " horiz-adv-x="242" 
 />
    <glyph glyph-name="exclam" unicode="!" horiz-adv-x="282" 
d="M141 182c-25 0 -42 16 -42 44v414c0 28 17 45 42 45s42 -17 42 -45v-414c0 -28 -17 -44 -42 -44zM84 52c0 31 26 57 57 57s57 -26 57 -57s-26 -57 -57 -57s-57 26 -57 57z" />
    <glyph glyph-name="quotedbl" unicode="&#x22;" horiz-adv-x="329" 
d="M230 498c-19 0 -32 13 -32 35v117c0 22 13 35 32 35c20 0 32 -13 32 -35v-117c0 -22 -12 -35 -32 -35zM99 498c-19 0 -32 13 -32 35v117c0 22 13 35 32 35c20 0 32 -13 32 -35v-117c0 -22 -12 -35 -32 -35z" />
    <glyph glyph-name="numbersign" unicode="#" horiz-adv-x="526" 
d="M82 35l24 180h-58c-22 0 -35 12 -35 31s13 31 35 31h67l19 140h-61c-22 0 -35 12 -35 31s13 31 35 31h69l24 175c2 19 14 31 33 31c22 0 35 -15 32 -40l-23 -166h132l24 175c3 19 15 31 33 31c22 0 35 -15 32 -40l-23 -166h63c22 0 35 -12 35 -31s-13 -31 -35 -31h-71
l-19 -140h65c22 0 35 -12 35 -31s-13 -31 -35 -31h-74l-25 -189c-2 -19 -14 -31 -33 -31c-22 0 -35 15 -32 40l24 180h-132l-25 -189c-3 -19 -14 -31 -33 -31c-22 0 -35 15 -32 40zM181 277h132l19 140h-132z" />
    <glyph glyph-name="dollar" unicode="$" 
d="M80 39c-14 8 -21 21 -21 35c0 23 15 41 39 41c7 0 16 -2 23 -6c34 -21 81 -39 129 -42v240c-120 22 -180 88 -180 186c0 111 73 187 180 197v39c0 17 10 27 25 27c14 0 24 -10 24 -27v-39c50 -4 92 -19 125 -37c14 -8 22 -20 22 -34c0 -21 -16 -40 -38 -40
c-7 0 -16 2 -23 6c-28 13 -54 23 -86 26v-230c122 -21 182 -86 182 -186c0 -111 -68 -189 -182 -203v-41c0 -17 -10 -27 -24 -27c-15 0 -25 10 -25 27v38c-71 2 -129 25 -170 50zM250 390v221c-60 -8 -98 -50 -98 -111c0 -55 24 -92 98 -110zM299 70c62 11 100 53 100 120
c0 54 -27 91 -100 108v-228z" />
    <glyph glyph-name="percent" unicode="%" horiz-adv-x="778" 
d="M172 14c0 6 1 12 4 18l374 645c6 11 15 18 28 18c16 0 28 -12 28 -29c0 -6 -1 -12 -4 -18l-374 -645c-6 -12 -15 -18 -28 -18c-16 0 -28 12 -28 29zM198 330c-57 0 -99 30 -115 77c-6 19 -8 30 -8 102s2 83 8 102c16 47 58 77 115 77s99 -30 115 -77c6 -19 8 -30 8 -102
s-2 -83 -8 -102c-16 -47 -58 -77 -115 -77zM198 388c26 0 46 12 54 35c3 10 5 24 5 86s-2 76 -5 86c-8 23 -28 35 -54 35s-46 -12 -54 -35c-3 -10 -5 -24 -5 -86s2 -76 5 -86c8 -23 28 -35 54 -35zM465 68c-6 19 -8 30 -8 102s2 83 8 102c16 47 58 77 115 77s99 -30 115 -77
c6 -19 8 -30 8 -102s-2 -83 -8 -102c-16 -47 -58 -77 -115 -77s-99 30 -115 77zM526 84c8 -23 28 -35 54 -35s46 12 54 35c3 10 5 24 5 86s-2 76 -5 86c-8 23 -28 35 -54 35s-46 -12 -54 -35c-3 -10 -5 -24 -5 -86s2 -76 5 -86z" />
    <glyph glyph-name="ampersand" unicode="&#x26;" horiz-adv-x="633" 
d="M70 165c0 77 42 140 135 215c-65 85 -85 118 -85 165c0 85 66 146 156 146c92 0 156 -64 156 -145c0 -59 -29 -104 -121 -177l129 -167l53 65c8 9 18 15 30 15c18 0 34 -14 34 -35c0 -9 -3 -18 -10 -26l-61 -78l35 -45c11 -14 21 -19 37 -20c24 -1 39 -17 39 -38
c0 -23 -15 -40 -41 -40h-6c-41 0 -63 11 -90 47l-27 34c-58 -62 -113 -92 -183 -92c-114 0 -180 73 -180 176zM266 428c75 60 88 84 88 119c0 43 -33 73 -78 73c-46 0 -75 -31 -75 -74c0 -28 11 -47 65 -118zM149 171c0 -63 36 -108 106 -108c40 0 73 12 133 78l-138 180
c-69 -55 -101 -98 -101 -150z" />
    <glyph glyph-name="quotesingle" unicode="'" horiz-adv-x="198" 
d="M99 498c-19 0 -32 13 -32 35v117c0 22 13 35 32 35c20 0 32 -13 32 -35v-117c0 -22 -12 -35 -32 -35z" />
    <glyph glyph-name="parenleft" unicode="(" horiz-adv-x="285" 
d="M168 -66c-66 124 -105 254 -105 394s39 270 105 394c9 15 20 22 34 22c18 0 32 -14 32 -31c0 -7 -1 -13 -5 -21c-56 -120 -85 -238 -85 -364s29 -244 85 -364c4 -8 5 -14 5 -21c0 -17 -14 -31 -32 -31c-14 0 -25 7 -34 22z" />
    <glyph glyph-name="parenright" unicode=")" horiz-adv-x="285" 
d="M56 -36c56 120 85 238 85 364s-29 244 -85 364c-4 8 -5 14 -5 21c0 17 14 31 32 31c14 0 25 -7 34 -22c66 -124 105 -254 105 -394s-39 -270 -105 -394c-9 -15 -20 -22 -34 -22c-18 0 -32 14 -32 31c0 7 1 13 5 21z" />
    <glyph glyph-name="asterisk" unicode="*" horiz-adv-x="342" 
d="M171 389c-14 0 -25 10 -25 27v79l-67 -40c-6 -3 -11 -4 -16 -4c-14 0 -24 10 -24 24c0 10 5 18 15 23l69 39l-69 39c-10 5 -15 13 -15 23c0 14 10 24 24 24c5 0 10 -1 16 -4l67 -41v80c0 17 11 27 25 27s25 -10 25 -27l-2 -81l69 42c6 3 11 4 16 4c14 0 24 -10 24 -24
c0 -10 -5 -18 -15 -23l-70 -39l70 -39c10 -5 15 -13 15 -23c0 -14 -10 -24 -24 -24c-5 0 -10 1 -16 4l-69 41l2 -80c0 -17 -11 -27 -25 -27z" />
    <glyph glyph-name="plus" unicode="+" 
d="M233 103v130c0 4 -2 6 -6 6h-129c-26 0 -41 15 -41 37s15 37 41 37h129c4 0 6 2 6 6v130c0 27 16 42 38 42s38 -15 38 -42v-130c0 -4 2 -6 6 -6h129c26 0 41 -15 41 -37s-15 -37 -41 -37h-129c-4 0 -6 -2 -6 -6v-130c0 -27 -16 -42 -38 -42s-38 15 -38 42z" />
    <glyph glyph-name="comma" unicode="," horiz-adv-x="230" 
d="M47 -81l47 144c7 20 20 31 38 31c22 0 40 -14 40 -38c0 -6 -1 -14 -3 -20l-49 -144c-7 -20 -20 -31 -38 -31c-22 0 -38 14 -38 38c0 6 1 14 3 20z" />
    <glyph glyph-name="hyphen" unicode="-" horiz-adv-x="380" 
d="M82 227c-25 0 -41 17 -41 39s16 39 41 39h216c25 0 41 -17 41 -39s-16 -39 -41 -39h-216z" />
    <glyph glyph-name="period" unicode="." horiz-adv-x="236" 
d="M61 52c0 31 26 57 57 57s57 -26 57 -57s-26 -57 -57 -57s-57 26 -57 57z" />
    <glyph glyph-name="slash" unicode="/" horiz-adv-x="417" 
d="M69 21c0 4 1 10 3 16l203 628c6 20 19 30 35 30c21 0 38 -14 38 -36c0 -4 -1 -10 -3 -16l-203 -628c-6 -20 -19 -30 -35 -30c-21 0 -38 14 -38 36z" />
    <glyph glyph-name="zero" unicode="0" 
d="M85 118c-8 26 -15 62 -15 222s7 196 15 222c27 83 92 129 186 129s159 -46 186 -129c8 -26 15 -62 15 -222s-7 -196 -15 -222c-27 -83 -92 -129 -186 -129s-159 46 -186 129zM168 135c16 -45 53 -68 103 -68s87 23 103 68c7 21 11 50 11 205s-4 184 -11 205
c-16 45 -53 68 -103 68s-87 -23 -103 -68c-7 -21 -11 -50 -11 -205s4 -184 11 -205z" />
    <glyph glyph-name="one" unicode="1" 
d="M249 40v534h-2l-86 -60c-7 -5 -15 -8 -24 -8c-23 0 -39 16 -39 39c0 13 6 26 22 37l110 80c23 17 40 23 58 23c26 0 45 -18 45 -48v-597c0 -28 -18 -45 -42 -45s-42 17 -42 45z" />
    <glyph glyph-name="two" unicode="2" 
d="M71 37c0 18 7 32 25 56l232 296c31 40 47 75 47 117c0 62 -41 107 -107 107c-60 0 -93 -32 -108 -82c-7 -22 -22 -33 -39 -33c-25 0 -42 15 -42 39c0 4 1 11 2 15c16 70 77 139 190 139c117 0 190 -79 190 -185c0 -61 -24 -112 -67 -165l-208 -261v-2h241
c26 0 41 -16 41 -39s-15 -39 -41 -39h-315c-26 0 -41 16 -41 37z" />
    <glyph glyph-name="three" unicode="3" 
d="M77 107c-2 6 -3 13 -3 19c0 22 17 38 40 38c17 0 30 -10 40 -29c21 -41 56 -68 115 -68c74 0 117 50 117 121c0 75 -49 125 -125 125h-7c-26 0 -41 16 -41 39s15 39 41 39h6c66 0 113 43 113 114c0 65 -41 108 -109 108c-56 0 -87 -28 -104 -65c-9 -19 -22 -29 -39 -29
c-23 0 -39 15 -39 37c0 6 2 15 4 21c21 61 82 114 181 114c119 0 192 -76 192 -182c0 -72 -40 -121 -84 -148v-2c44 -18 97 -78 97 -170c0 -118 -84 -200 -203 -200c-104 0 -166 52 -192 118z" />
    <glyph glyph-name="four" unicode="4" 
d="M91 123c-28 0 -44 17 -44 41c0 15 3 24 15 50l205 442c9 19 22 29 39 29c22 0 40 -16 40 -40c0 -6 -2 -14 -5 -20l-196 -423v-2h180c4 0 6 2 6 6v142c0 28 18 44 42 44s42 -16 42 -44v-142c0 -4 2 -6 6 -6h40c25 0 41 -16 41 -39c0 -22 -16 -38 -41 -38h-40
c-4 0 -6 -2 -6 -6v-78c0 -27 -18 -44 -42 -44s-42 17 -42 44v78c0 4 -2 6 -6 6h-234z" />
    <glyph glyph-name="five" unicode="5" 
d="M92 107c-2 5 -3 13 -3 18c0 22 16 38 41 38c18 0 30 -10 39 -29c20 -42 55 -67 108 -67c47 0 87 24 101 67c6 19 9 46 9 86c0 42 -3 66 -10 85c-15 46 -50 66 -97 66c-44 0 -72 -17 -96 -51c-16 -22 -28 -30 -47 -30c-25 0 -40 16 -40 43v310c0 23 14 37 37 37h288
c26 0 41 -16 41 -39s-15 -39 -41 -39h-241c-4 0 -6 -2 -6 -6v-192h2c18 24 58 45 114 45c83 0 143 -39 167 -112c9 -29 15 -62 15 -117c0 -48 -5 -84 -14 -111c-25 -77 -95 -120 -182 -120c-96 0 -164 50 -185 118z" />
    <glyph glyph-name="six" unicode="6" 
d="M63 197c0 54 19 107 45 155l166 309c8 15 22 24 38 24c22 0 39 -15 39 -38c0 -8 -2 -17 -7 -25l-128 -234l2 -2c13 9 39 16 69 16c107 0 193 -78 193 -202c0 -133 -91 -211 -209 -211c-119 0 -208 78 -208 208zM149 196c0 -76 48 -129 122 -129s123 53 123 129
s-49 128 -123 128s-122 -52 -122 -128z" />
    <glyph glyph-name="seven" unicode="7" 
d="M159 35c0 6 2 12 4 18l216 546v3h-207c-4 0 -6 -3 -6 -7v-54c0 -27 -16 -44 -40 -44s-40 17 -40 44v100c0 24 15 39 40 39h304c29 0 45 -17 45 -43c0 -13 -3 -25 -14 -52l-222 -562c-8 -18 -23 -28 -40 -28c-23 0 -40 17 -40 40z" />
    <glyph glyph-name="eight" unicode="8" 
d="M61 189c0 80 42 139 96 168v2c-43 24 -80 76 -80 144c0 102 73 188 194 188c122 0 194 -86 194 -188c0 -68 -37 -120 -80 -144v-2c54 -29 96 -88 96 -168c0 -118 -87 -200 -210 -200s-210 82 -210 200zM271 396c66 0 108 49 108 109s-43 108 -108 108s-108 -48 -108 -108
s42 -109 108 -109zM147 193c0 -73 50 -126 124 -126c75 0 124 53 124 126c0 72 -49 125 -124 125s-124 -53 -124 -125z" />
    <glyph glyph-name="nine" unicode="9" 
d="M191 33c0 8 2 17 7 25l128 234l-2 2c-13 -9 -39 -16 -69 -16c-107 0 -193 78 -193 202c0 133 91 211 209 211c119 0 208 -78 208 -208c0 -54 -19 -107 -45 -155l-166 -309c-8 -15 -22 -24 -38 -24c-22 0 -39 15 -39 38zM271 356c74 0 122 52 122 128s-48 129 -122 129
s-123 -53 -123 -129s49 -128 123 -128z" />
    <glyph glyph-name="colon" unicode=":" horiz-adv-x="243" 
d="M122 370c-31 0 -57 26 -57 57s26 57 57 57s57 -26 57 -57s-26 -57 -57 -57zM64 52c0 31 26 57 57 57s57 -26 57 -57s-26 -57 -57 -57s-57 26 -57 57z" />
    <glyph glyph-name="semicolon" unicode=";" horiz-adv-x="243" 
d="M122 370c-31 0 -57 26 -57 57s26 57 57 57s57 -26 57 -57s-26 -57 -57 -57zM40 -81l47 144c7 20 20 31 38 31c22 0 40 -14 40 -38c0 -6 -1 -14 -3 -20l-49 -144c-7 -20 -20 -31 -38 -31c-22 0 -38 14 -38 38c0 6 1 14 3 20z" />
    <glyph glyph-name="less" unicode="&#x3c;" 
d="M98 229c-28 11 -41 27 -41 47s12 36 41 47l332 137c5 2 12 3 18 3c21 0 37 -14 37 -36c0 -17 -9 -30 -27 -37l-285 -113v-2l285 -113c18 -7 27 -20 27 -37c0 -22 -16 -36 -37 -36c-6 0 -13 1 -18 3z" />
    <glyph glyph-name="equal" unicode="=" 
d="M98 339c-26 0 -41 15 -41 37s15 37 41 37h346c26 0 41 -15 41 -37s-15 -37 -41 -37h-346zM98 139c-26 0 -41 15 -41 37s15 37 41 37h346c26 0 41 -15 41 -37s-15 -37 -41 -37h-346z" />
    <glyph glyph-name="greater" unicode="&#x3e;" 
d="M94 89c-21 0 -37 14 -37 36c0 17 9 30 27 37l285 113v2l-285 113c-18 7 -27 20 -27 37c0 22 16 36 37 36c6 0 13 -1 18 -3l332 -137c29 -11 41 -27 41 -47s-13 -36 -41 -47l-332 -137c-5 -2 -12 -3 -18 -3z" />
    <glyph glyph-name="question" unicode="?" horiz-adv-x="456" 
d="M223 178c-24 0 -42 16 -42 43v15c0 38 9 66 37 100l55 72c40 52 51 75 51 111c0 59 -40 94 -97 94c-53 0 -87 -27 -101 -75c-8 -24 -23 -34 -41 -34c-23 0 -40 15 -40 38c0 4 1 11 3 20c20 73 84 129 181 129c108 0 181 -72 181 -170c0 -53 -18 -89 -57 -140l-55 -72
c-26 -34 -33 -50 -33 -78v-10c0 -27 -18 -43 -42 -43zM166 52c0 31 26 57 57 57s57 -26 57 -57s-26 -57 -57 -57s-57 26 -57 57z" />
    <glyph glyph-name="at" unicode="@" horiz-adv-x="893" 
d="M47 267c0 231 161 393 395 393c232 0 394 -162 394 -393c0 -148 -71 -212 -159 -212c-59 0 -100 29 -120 73h-1c-22 -46 -66 -73 -135 -73c-70 0 -120 33 -141 99c-9 27 -14 57 -14 109c0 53 5 81 14 108c21 66 70 99 137 99c60 0 99 -25 117 -55h2v17c1 19 14 33 35 33
s35 -14 35 -37v-222c0 -60 33 -86 72 -86c49 0 87 41 87 147c0 194 -126 328 -323 328c-198 0 -324 -134 -324 -328c0 -198 129 -327 327 -327c88 0 145 15 199 39c6 3 11 4 16 4c17 0 30 -11 30 -29c0 -12 -6 -23 -19 -30c-64 -33 -133 -49 -226 -49
c-234 0 -398 158 -398 392zM347 185c15 -43 43 -63 90 -63s75 20 90 63c6 19 9 39 9 78s-3 59 -9 78c-15 43 -43 63 -90 63s-75 -20 -90 -63c-6 -19 -9 -39 -9 -78s3 -59 9 -78z" />
    <glyph glyph-name="A" unicode="A" horiz-adv-x="607" 
d="M33 36c0 7 2 14 4 20l209 579c11 32 28 50 58 50s49 -18 60 -50l206 -579c2 -6 4 -13 4 -20c0 -25 -19 -41 -42 -41c-20 0 -36 11 -43 32l-46 131h-279l-46 -131c-7 -21 -23 -32 -43 -32c-23 0 -42 16 -42 41zM193 240h221l-108 309h-3z" />
    <glyph glyph-name="B" unicode="B" horiz-adv-x="604" 
d="M84 40v600c0 24 15 40 40 40h211c136 0 205 -70 205 -178c0 -79 -36 -128 -92 -149v-2c49 -13 104 -68 104 -157c0 -128 -82 -194 -220 -194h-208c-25 0 -40 15 -40 40zM179 386h154c75 0 119 43 119 106c0 65 -44 107 -119 107h-154c-4 0 -6 -2 -6 -6v-201
c0 -4 2 -6 6 -6zM173 87c0 -4 2 -6 6 -6h159c81 0 125 44 125 112c0 67 -44 112 -125 112h-159c-4 0 -6 -2 -6 -6v-212z" />
    <glyph glyph-name="C" unicode="C" horiz-adv-x="563" 
d="M79 150c-16 49 -19 93 -19 190s3 141 19 190c34 104 112 161 227 161c87 0 161 -42 199 -111c5 -8 8 -19 8 -28c0 -25 -18 -41 -41 -41c-17 0 -29 8 -40 25c-32 48 -70 72 -126 72c-75 0 -120 -42 -140 -105c-11 -33 -16 -73 -16 -163s5 -130 16 -163
c20 -63 65 -105 140 -105c56 0 94 24 126 72c11 17 23 25 40 25c23 0 41 -16 41 -41c0 -9 -3 -20 -8 -28c-38 -69 -112 -111 -199 -111c-115 0 -193 57 -227 161z" />
    <glyph glyph-name="D" unicode="D" horiz-adv-x="623" 
d="M84 40v600c0 24 15 40 40 40h173c132 0 213 -52 246 -155c15 -44 20 -87 20 -185s-5 -141 -20 -185c-33 -103 -114 -155 -246 -155h-173c-25 0 -40 16 -40 40zM173 89c0 -4 2 -6 6 -6h112c90 0 142 28 166 102c11 35 16 74 16 155s-5 120 -16 155
c-24 74 -76 102 -166 102h-112c-4 0 -6 -2 -6 -6v-502z" />
    <glyph glyph-name="E" unicode="E" horiz-adv-x="563" 
d="M84 40v600c0 24 15 40 40 40h350c27 0 44 -18 44 -41c0 -24 -17 -42 -44 -42h-295c-4 0 -6 -2 -6 -6v-200c0 -4 2 -6 6 -6h246c27 0 44 -18 44 -41c0 -24 -17 -42 -44 -42h-246c-4 0 -6 -2 -6 -6v-207c0 -4 2 -6 6 -6h295c27 0 44 -18 44 -41c0 -24 -17 -42 -44 -42h-350
c-25 0 -40 16 -40 40z" />
    <glyph glyph-name="F" unicode="F" horiz-adv-x="556" 
d="M84 43v597c0 24 15 40 40 40h349c27 0 44 -18 44 -41c0 -24 -17 -42 -44 -42h-294c-4 0 -6 -2 -6 -6v-207c0 -4 2 -6 6 -6h245c27 0 44 -18 44 -41c0 -24 -17 -42 -44 -42h-245c-4 0 -6 -2 -6 -5v-247c0 -30 -18 -48 -44 -48c-27 0 -45 18 -45 48z" />
    <glyph glyph-name="G" unicode="G" horiz-adv-x="619" 
d="M79 150c-16 49 -19 93 -19 190s3 141 19 190c34 104 113 161 230 161c102 0 178 -44 212 -110c4 -8 7 -18 7 -27c0 -25 -18 -41 -41 -41c-16 0 -29 7 -40 25c-30 47 -75 70 -138 70c-78 0 -123 -42 -143 -105c-11 -33 -16 -73 -16 -163s5 -130 16 -163
c20 -63 65 -105 143 -105c74 0 127 35 148 101c10 31 13 68 13 101c0 4 -2 6 -6 6h-104c-27 0 -44 18 -44 42c0 23 17 41 44 41h158c25 0 41 -16 41 -41v-19c0 -49 -6 -109 -19 -150c-34 -106 -116 -164 -231 -164c-117 0 -196 57 -230 161z" />
    <glyph glyph-name="H" unicode="H" horiz-adv-x="653" 
d="M84 43v594c0 30 18 48 45 48c26 0 44 -18 44 -48v-246c0 -4 2 -6 6 -6h295c4 0 6 2 6 6v246c0 30 18 48 45 48c26 0 44 -18 44 -48v-594c0 -30 -18 -48 -44 -48c-27 0 -45 18 -45 48v253c0 4 -2 6 -6 6h-295c-4 0 -6 -2 -6 -6v-253c0 -30 -18 -48 -44 -48
c-27 0 -45 18 -45 48z" />
    <glyph glyph-name="I" unicode="I" horiz-adv-x="257" 
d="M84 43v594c0 30 18 48 45 48c26 0 44 -18 44 -48v-594c0 -30 -18 -48 -44 -48c-27 0 -45 18 -45 48z" />
    <glyph glyph-name="J" unicode="J" horiz-adv-x="489" 
d="M52 39c-10 9 -15 21 -15 33c0 22 17 40 40 40c10 0 20 -4 32 -12c25 -16 57 -28 89 -28c75 0 123 42 123 146v419c0 30 18 48 45 48c26 0 44 -18 44 -48v-419c0 -152 -82 -229 -214 -229c-58 0 -113 23 -144 50z" />
    <glyph glyph-name="K" unicode="K" horiz-adv-x="597" 
d="M84 43v594c0 30 18 48 45 48c26 0 44 -18 44 -48v-324l290 353c9 11 22 19 37 19c21 0 40 -16 40 -39c0 -11 -5 -21 -12 -29l-174 -206l199 -346c6 -10 9 -19 9 -28c0 -23 -17 -42 -42 -42c-18 0 -32 9 -42 26l-183 321l-122 -148v-151c0 -30 -18 -48 -44 -48
c-27 0 -45 18 -45 48z" />
    <glyph glyph-name="L" unicode="L" horiz-adv-x="538" 
d="M84 44v593c0 30 18 48 44 48s45 -18 45 -48v-548c0 -4 2 -6 6 -6h295c27 0 44 -18 44 -41c0 -24 -17 -42 -44 -42h-347c-27 0 -43 17 -43 44z" />
    <glyph glyph-name="M" unicode="M" horiz-adv-x="755" 
d="M84 40v590c0 34 19 55 50 55c27 0 42 -16 56 -48l188 -425h3l185 425c14 32 28 48 55 48c31 0 50 -21 50 -55v-590c0 -28 -17 -45 -42 -45s-41 17 -41 45v443h-3l-156 -345c-16 -35 -29 -44 -52 -44s-35 9 -51 44l-156 345h-3v-443c0 -28 -16 -45 -41 -45s-42 17 -42 45z
" />
    <glyph glyph-name="N" unicode="N" horiz-adv-x="654" 
d="M84 40v591c0 33 18 54 49 54c26 0 43 -17 60 -46l290 -479h4v480c0 28 17 45 41 45c25 0 42 -17 42 -45v-591c0 -33 -18 -54 -49 -54c-26 0 -44 17 -61 46l-290 477h-3v-478c0 -28 -17 -45 -41 -45c-25 0 -42 17 -42 45z" />
    <glyph glyph-name="O" unicode="O" horiz-adv-x="619" 
d="M309 -11c-117 0 -196 57 -230 161c-16 49 -19 93 -19 190s3 141 19 190c34 104 113 161 230 161c118 0 197 -57 231 -161c16 -49 19 -93 19 -190s-3 -141 -19 -190c-34 -104 -113 -161 -231 -161zM309 72c79 0 124 42 144 105c11 33 16 73 16 163s-5 130 -16 163
c-20 63 -65 105 -144 105c-78 0 -123 -42 -143 -105c-11 -33 -16 -73 -16 -163s5 -130 16 -163c20 -63 65 -105 143 -105z" />
    <glyph glyph-name="P" unicode="P" horiz-adv-x="592" 
d="M84 43v597c0 24 15 40 40 40h210c136 0 218 -82 218 -203s-82 -203 -218 -203h-155c-4 0 -6 -2 -6 -6v-225c0 -30 -18 -48 -44 -48c-27 0 -45 18 -45 48zM331 357c84 0 133 46 133 120s-49 120 -133 120h-152c-4 0 -6 -2 -6 -6v-228c0 -4 2 -6 6 -6h152z" />
    <glyph glyph-name="Q" unicode="Q" horiz-adv-x="619" 
d="M309 -11c-117 0 -196 57 -230 161c-16 49 -19 93 -19 190s3 141 19 190c34 104 113 161 230 161c118 0 197 -57 231 -161c16 -49 19 -93 19 -190s-3 -141 -19 -190c-7 -21 -16 -39 -26 -56l53 -53c10 -10 14 -21 14 -33c0 -22 -18 -41 -41 -41c-14 0 -25 6 -34 15l-49 49
c-39 -28 -89 -42 -148 -42zM309 72c35 0 63 8 85 22l-56 57c-10 10 -14 21 -14 33c0 22 18 41 41 41c14 0 25 -6 34 -15l48 -49l6 16c11 33 16 73 16 163s-5 130 -16 163c-20 63 -65 105 -144 105c-78 0 -123 -42 -143 -105c-11 -33 -16 -73 -16 -163s5 -130 16 -163
c20 -63 65 -105 143 -105z" />
    <glyph glyph-name="R" unicode="R" horiz-adv-x="617" 
d="M129 -5c-27 0 -45 18 -45 48v597c0 24 15 40 40 40h213c132 0 215 -77 215 -196c0 -91 -48 -157 -129 -183l122 -240c4 -8 6 -15 6 -24c0 -22 -16 -42 -43 -42c-18 0 -32 9 -43 28l-134 265h-152c-4 0 -6 -2 -6 -6v-239c0 -30 -18 -48 -44 -48zM338 371
c79 0 126 42 126 113s-47 113 -126 113h-159c-4 0 -6 -2 -6 -6v-214c0 -4 2 -6 6 -6h159z" />
    <glyph glyph-name="S" unicode="S" horiz-adv-x="591" 
d="M289 -11c-88 0 -163 31 -211 64c-14 10 -22 23 -22 39c0 22 17 42 43 42c10 0 20 -4 28 -9c49 -31 104 -53 169 -53c96 0 152 46 152 116c0 58 -32 94 -142 111l-33 5c-137 21 -201 82 -201 189c0 121 86 198 222 198c73 0 139 -21 180 -46c17 -11 24 -24 24 -39
c0 -22 -17 -40 -40 -40c-9 0 -20 4 -29 8c-43 19 -88 34 -138 34c-86 0 -129 -47 -129 -110c0 -57 35 -93 141 -109l33 -5c137 -21 202 -82 202 -191c0 -118 -84 -204 -249 -204z" />
    <glyph glyph-name="T" unicode="T" horiz-adv-x="537" 
d="M61 680h415c27 0 44 -18 44 -42c0 -23 -17 -41 -44 -41h-157c-4 0 -6 -2 -6 -6v-548c0 -30 -18 -48 -44 -48c-27 0 -45 18 -45 48v548c0 4 -2 6 -6 6h-157c-27 0 -44 18 -44 41c0 24 17 42 44 42z" />
    <glyph glyph-name="U" unicode="U" horiz-adv-x="639" 
d="M471 238v399c0 30 18 48 45 48c26 0 44 -18 44 -48v-399c0 -166 -95 -249 -241 -249c-144 0 -240 83 -240 249v399c0 30 18 48 45 48c26 0 44 -18 44 -48v-399c0 -110 61 -166 152 -166c90 0 151 56 151 166z" />
    <glyph glyph-name="V" unicode="V" horiz-adv-x="563" 
d="M112 650l170 -506h3l167 506c7 23 22 35 42 35c25 0 43 -18 43 -42c0 -6 -1 -13 -4 -22l-197 -575c-13 -36 -27 -51 -55 -51c-27 0 -42 15 -54 51l-197 575c-3 9 -4 16 -4 22c0 24 18 42 43 42c21 0 35 -12 43 -35z" />
    <glyph glyph-name="W" unicode="W" horiz-adv-x="822" 
d="M595 -5c-24 0 -38 14 -48 48l-134 474h-2l-136 -474c-10 -34 -24 -48 -48 -48s-39 14 -48 48l-148 579c-2 8 -3 16 -3 21c0 23 16 42 43 42c21 0 37 -12 43 -38l117 -482h2l133 477c8 29 23 43 46 43s37 -14 45 -43l136 -478h2l113 483c6 26 22 38 43 38
c27 0 43 -19 43 -42c0 -5 -1 -13 -3 -21l-148 -579c-9 -34 -24 -48 -48 -48z" />
    <glyph glyph-name="X" unicode="X" horiz-adv-x="556" 
d="M437 19l-158 255h-1l-159 -255c-10 -16 -22 -24 -38 -24c-25 0 -43 18 -43 41c0 9 2 18 8 28l182 290l-164 262c-6 10 -8 19 -8 28c0 23 18 41 43 41c16 0 28 -8 38 -24l141 -227h1l142 227c10 16 22 24 38 24c25 0 43 -18 43 -41c0 -9 -2 -18 -8 -28l-166 -262l182 -290
c6 -10 8 -19 8 -28c0 -23 -18 -41 -43 -41c-16 0 -28 8 -38 24z" />
    <glyph glyph-name="Y" unicode="Y" horiz-adv-x="526" 
d="M493 619l-186 -343v-233c0 -30 -18 -48 -44 -48c-25 0 -44 18 -44 48v233l-186 343c-4 8 -7 18 -7 26c0 22 18 40 42 40c18 0 30 -9 39 -26l156 -290h3l154 290c9 17 21 26 39 26c24 0 41 -18 41 -40c0 -8 -3 -18 -7 -26z" />
    <glyph glyph-name="Z" unicode="Z" horiz-adv-x="536" 
d="M451 0h-363c-29 0 -47 17 -47 42c0 19 7 34 26 63l318 491v1h-287c-27 0 -44 18 -44 41c0 24 17 42 44 42h350c29 0 47 -18 47 -43c0 -17 -5 -30 -24 -60l-320 -493v-1h300c27 0 44 -18 44 -41c0 -24 -17 -42 -44 -42z" />
    <glyph glyph-name="bracketleft" unicode="[" horiz-adv-x="281" 
d="M212 -84h-98c-22 0 -34 12 -34 34v756c0 22 12 34 34 34h98c24 0 37 -13 37 -34s-13 -34 -37 -34h-47c-4 0 -6 -2 -6 -6v-676c0 -4 2 -6 6 -6h47c24 0 37 -13 37 -34s-13 -34 -37 -34z" />
    <glyph glyph-name="backslash" unicode="\" horiz-adv-x="417" 
d="M310 -15c-16 0 -29 10 -35 30l-203 628c-2 6 -3 12 -3 16c0 22 17 36 38 36c16 0 29 -10 35 -30l203 -628c2 -6 3 -12 3 -16c0 -22 -17 -36 -38 -36z" />
    <glyph glyph-name="bracketright" unicode="]" horiz-adv-x="281" 
d="M167 -84h-98c-24 0 -37 13 -37 34s13 34 37 34h47c4 0 6 2 6 6v676c0 4 -2 6 -6 6h-47c-24 0 -37 13 -37 34s13 34 37 34h98c22 0 34 -12 34 -34v-756c0 -22 -12 -34 -34 -34z" />
    <glyph glyph-name="asciicircum" unicode="^" 
d="M432 268c-16 0 -29 9 -36 27l-124 280h-2l-124 -280c-7 -18 -20 -27 -36 -27c-22 0 -37 14 -37 35c0 6 1 13 5 21l147 325c11 24 25 36 46 36s35 -12 46 -36l147 -325c4 -8 5 -15 5 -21c0 -21 -15 -35 -37 -35z" />
    <glyph glyph-name="underscore" unicode="_" horiz-adv-x="480" 
d="M480 -132h-480v56h480v-56z" />
    <glyph glyph-name="grave" unicode="`" horiz-adv-x="433" 
d="M246 549c-10 0 -20 5 -28 16l-58 86c-5 8 -8 16 -8 25c0 18 15 32 34 32c13 0 23 -6 30 -17l56 -86c5 -9 7 -16 7 -24c0 -19 -13 -32 -33 -32z" />
    <glyph glyph-name="a" unicode="a" horiz-adv-x="520" 
d="M467 59c4 -7 7 -16 7 -24c0 -23 -18 -40 -43 -40c-15 0 -27 7 -37 21l-19 30h-1c-32 -36 -77 -57 -147 -57c-107 0 -169 53 -169 144c0 99 68 148 187 148h109c4 0 6 2 6 6v23c0 67 -31 105 -115 105c-37 0 -75 -12 -98 -24c-8 -4 -17 -7 -24 -7c-22 0 -36 14 -36 36
c0 13 6 26 20 34c30 20 80 36 146 36c128 0 188 -61 188 -179v-172c0 -25 2 -35 9 -49zM239 61c74 0 121 35 121 94v53c0 4 -2 6 -6 6h-96c-82 0 -119 -24 -119 -78c0 -50 36 -75 100 -75z" />
    <glyph glyph-name="b" unicode="b" horiz-adv-x="538" 
d="M124 -5c-24 0 -42 17 -42 45v600c0 28 18 45 42 45s42 -17 42 -45v-214h1c22 37 64 64 136 64c81 0 140 -45 165 -120c12 -38 17 -76 17 -130c0 -55 -5 -93 -17 -131c-25 -75 -84 -120 -165 -120c-71 0 -113 26 -136 64h-1v-13c0 -28 -18 -45 -42 -45zM283 67
c53 0 89 27 105 75c9 26 11 56 11 98c0 41 -2 71 -11 97c-16 48 -52 75 -105 75c-54 0 -90 -27 -106 -75c-9 -26 -11 -56 -11 -97c0 -42 2 -72 11 -98c16 -48 52 -75 106 -75z" />
    <glyph glyph-name="c" unicode="c" horiz-adv-x="472" 
d="M257 -11c-92 0 -162 46 -189 129c-9 29 -15 68 -15 122c0 53 6 92 15 121c27 83 97 129 189 129c72 0 123 -31 153 -70c8 -11 12 -20 12 -31c0 -21 -16 -37 -37 -37c-15 0 -26 8 -37 20c-22 24 -48 40 -91 40c-52 0 -91 -25 -107 -75c-8 -25 -11 -55 -11 -97
c0 -43 3 -73 11 -98c16 -50 55 -75 107 -75c43 0 69 16 91 40c11 12 22 20 37 20c21 0 37 -16 37 -37c0 -11 -4 -20 -12 -31c-30 -39 -81 -70 -153 -70z" />
    <glyph glyph-name="d" unicode="d" horiz-adv-x="538" 
d="M414 -5c-24 0 -42 17 -42 45v13h-1c-23 -38 -65 -64 -136 -64c-81 0 -140 45 -165 120c-12 38 -17 76 -17 131c0 54 5 92 17 130c25 75 84 120 165 120c72 0 114 -27 136 -64h1v214c0 28 18 45 42 45s42 -17 42 -45v-600c0 -28 -18 -45 -42 -45zM255 67
c54 0 90 27 106 75c9 26 11 56 11 98c0 41 -2 71 -11 97c-16 48 -52 75 -106 75c-53 0 -89 -27 -105 -75c-9 -26 -11 -56 -11 -97c0 -42 2 -72 11 -98c16 -48 52 -75 105 -75z" />
    <glyph glyph-name="e" unicode="e" horiz-adv-x="512" 
d="M262 -11c-99 0 -166 46 -193 130c-10 30 -16 64 -16 121s5 91 15 121c27 83 96 129 187 129c94 0 162 -46 188 -128c11 -32 16 -69 16 -116c0 -19 -13 -32 -33 -32h-281c-4 0 -6 -2 -6 -6c0 -23 2 -39 8 -58c18 -55 62 -83 121 -83c47 0 79 14 115 41c10 8 19 12 29 12
c20 0 35 -15 35 -35c0 -12 -5 -22 -13 -30c-41 -38 -98 -66 -172 -66zM145 281h222c4 0 6 2 6 6c0 22 -2 39 -7 54c-16 48 -56 75 -110 75s-94 -27 -110 -75c-5 -15 -7 -32 -7 -54c0 -4 2 -6 6 -6z" />
    <glyph glyph-name="f" unicode="f" horiz-adv-x="319" 
d="M188 479h71c23 0 36 -14 36 -34s-13 -34 -36 -34h-71c-4 0 -6 -2 -6 -6v-365c0 -28 -18 -45 -42 -45s-42 17 -42 45v365c0 4 -2 6 -6 6h-27c-23 0 -36 14 -36 34s13 34 36 34h27c4 0 6 2 6 6v42c0 115 48 153 148 153h7c29 0 44 -16 44 -39s-15 -39 -41 -39
c-62 0 -74 -12 -74 -70v-47c0 -4 2 -6 6 -6z" />
    <glyph glyph-name="g" unicode="g" horiz-adv-x="530" 
d="M363 427h1v12c0 28 18 45 42 45s42 -17 42 -45v-415c0 -143 -76 -215 -209 -215c-63 0 -123 26 -152 57c-8 8 -12 18 -12 27c0 22 16 39 38 39c12 0 23 -5 34 -13c27 -20 60 -32 95 -32c77 0 122 38 122 130v52h-1c-24 -40 -64 -63 -134 -63c-80 0 -137 44 -161 119
c-11 34 -16 70 -16 123s5 89 16 123c24 75 81 119 161 119c71 0 111 -27 134 -63zM251 83c52 0 85 25 102 75c8 23 11 50 11 90c0 39 -3 66 -11 89c-17 50 -50 75 -102 75s-85 -25 -102 -75c-8 -23 -11 -50 -11 -89c0 -40 3 -67 11 -90c17 -50 50 -75 102 -75z" />
    <glyph glyph-name="h" unicode="h" horiz-adv-x="545" 
d="M82 40v600c0 28 18 45 42 45s42 -17 42 -45v-215h1c23 37 69 65 134 65c104 0 166 -71 166 -180v-270c0 -28 -18 -45 -42 -45s-42 17 -42 45v250c0 77 -35 122 -107 122c-65 0 -110 -46 -110 -117v-255c0 -28 -18 -45 -42 -45s-42 17 -42 45z" />
    <glyph glyph-name="i" unicode="i" horiz-adv-x="248" 
d="M124 575c-30 0 -55 25 -55 55c0 31 25 55 55 55s55 -24 55 -55c0 -30 -25 -55 -55 -55zM82 40v399c0 28 18 45 42 45s42 -17 42 -45v-399c0 -28 -18 -45 -42 -45s-42 17 -42 45z" />
    <glyph glyph-name="j" unicode="j" horiz-adv-x="248" 
d="M124 575c-30 0 -55 25 -55 55c0 31 25 55 55 55s55 -24 55 -55c0 -30 -25 -55 -55 -55zM82 -37v476c0 28 18 45 42 45s42 -17 42 -45v-475c0 -102 -46 -144 -138 -144c-26 0 -40 17 -40 39s13 37 37 39c44 4 57 16 57 65z" />
    <glyph glyph-name="k" unicode="k" horiz-adv-x="511" 
d="M82 40v600c0 28 18 45 42 45s42 -17 42 -45v-392l196 221c9 10 19 15 32 15c19 0 35 -14 35 -35c0 -11 -4 -19 -12 -28l-111 -121l151 -242c5 -8 7 -16 7 -25c0 -21 -17 -38 -40 -38c-16 0 -29 8 -39 24l-135 221l-84 -94v-106c0 -28 -18 -45 -42 -45s-42 17 -42 45z" />
    <glyph glyph-name="l" unicode="l" horiz-adv-x="279" 
d="M206 -5h-9c-86 0 -117 42 -117 128v517c0 28 18 45 42 45s42 -17 42 -45v-512c0 -40 13 -55 46 -55c24 0 39 -16 39 -39s-15 -39 -43 -39z" />
    <glyph glyph-name="m" unicode="m" horiz-adv-x="845" 
d="M82 40v399c0 28 18 45 42 45s42 -17 42 -45v-14h1c26 39 69 65 134 65c66 0 114 -28 140 -75h1c32 45 80 75 155 75c108 0 171 -68 171 -180v-270c0 -28 -18 -45 -42 -45s-42 17 -42 45v250c0 77 -35 122 -107 122c-65 0 -110 -46 -110 -117v-255c0 -28 -18 -45 -42 -45
s-42 17 -42 45v250c0 77 -35 122 -107 122c-65 0 -110 -46 -110 -117v-255c0 -28 -18 -45 -42 -45s-42 17 -42 45z" />
    <glyph glyph-name="n" unicode="n" horiz-adv-x="544" 
d="M82 40v399c0 28 18 45 42 45s42 -17 42 -45v-14h1c23 37 69 65 134 65c104 0 166 -71 166 -180v-270c0 -28 -18 -45 -42 -45s-42 17 -42 45v250c0 77 -35 122 -107 122c-65 0 -110 -46 -110 -117v-255c0 -28 -18 -45 -42 -45s-42 17 -42 45z" />
    <glyph glyph-name="o" unicode="o" horiz-adv-x="516" 
d="M258 -11c-93 0 -163 48 -189 129c-11 33 -16 66 -16 122c0 55 5 88 16 121c26 82 96 129 189 129s163 -47 189 -129c11 -33 16 -66 16 -121c0 -56 -5 -89 -16 -122c-26 -81 -96 -129 -189 -129zM258 67c53 0 92 27 108 75c8 26 11 52 11 98s-3 71 -11 97
c-16 48 -55 75 -108 75s-92 -27 -108 -75c-8 -26 -11 -51 -11 -97s3 -72 11 -98c16 -48 55 -75 108 -75z" />
    <glyph glyph-name="p" unicode="p" horiz-adv-x="538" 
d="M124 -185c-24 0 -42 17 -42 45v579c0 28 18 45 42 45s42 -17 42 -45v-13h1c23 38 65 64 136 64c81 0 140 -45 165 -120c12 -38 17 -76 17 -131c0 -54 -5 -92 -17 -130c-25 -75 -84 -120 -165 -120c-72 0 -114 27 -136 64h-1v-193c0 -28 -18 -45 -42 -45zM283 67
c53 0 89 27 105 75c9 26 11 56 11 97c0 42 -2 72 -11 98c-16 48 -52 75 -105 75c-54 0 -90 -27 -106 -75c-9 -26 -11 -56 -11 -98c0 -41 2 -71 11 -97c16 -48 52 -75 106 -75z" />
    <glyph glyph-name="q" unicode="q" horiz-adv-x="538" 
d="M414 -185c-24 0 -42 17 -42 45v193h-1c-22 -37 -64 -64 -136 -64c-81 0 -140 45 -165 120c-12 38 -17 76 -17 130c0 55 5 93 17 131c25 75 84 120 165 120c71 0 113 -26 136 -64h1v13c0 28 18 45 42 45s42 -17 42 -45v-579c0 -28 -18 -45 -42 -45zM255 67
c54 0 90 27 106 75c9 26 11 56 11 97c0 42 -2 72 -11 98c-16 48 -52 75 -106 75c-53 0 -89 -27 -105 -75c-9 -26 -11 -56 -11 -98c0 -41 2 -71 11 -97c16 -48 52 -75 105 -75z" />
    <glyph glyph-name="r" unicode="r" horiz-adv-x="407" 
d="M124 -5c-24 0 -42 17 -42 45v399c0 28 18 45 42 45s42 -17 42 -45v-22h1c20 43 64 73 123 73c33 0 55 -8 71 -17c17 -9 24 -22 24 -36c0 -24 -17 -42 -42 -42c-6 0 -14 2 -21 5c-18 7 -35 12 -55 12c-72 0 -101 -60 -101 -140v-232c0 -28 -18 -45 -42 -45z" />
    <glyph glyph-name="s" unicode="s" horiz-adv-x="490" 
d="M244 -11c-73 0 -134 25 -174 53c-13 9 -20 21 -20 35c0 20 16 38 39 38c8 0 16 -2 28 -9c39 -23 80 -42 134 -42c69 0 105 30 105 72c0 40 -18 60 -94 68l-50 5c-94 10 -143 58 -143 135c0 91 65 146 177 146c56 0 106 -14 143 -35c17 -9 25 -20 25 -35
c0 -20 -16 -36 -36 -36c-8 0 -17 2 -30 8c-32 15 -68 25 -106 25c-60 0 -91 -27 -91 -66c0 -38 22 -58 94 -65l50 -5c100 -11 144 -58 144 -136c0 -94 -68 -156 -195 -156z" />
    <glyph glyph-name="t" unicode="t" horiz-adv-x="318" 
d="M236 -5h-10c-98 0 -134 41 -134 141v269c0 4 -2 6 -6 6h-27c-23 0 -36 14 -36 34s13 34 36 34h27c4 0 6 2 6 6v105c0 28 18 45 42 45s42 -17 42 -45v-105c0 -4 2 -6 6 -6h63c23 0 36 -14 36 -34s-13 -34 -36 -34h-63c-4 0 -6 -2 -6 -6v-266c0 -51 13 -66 64 -66
c26 0 41 -16 41 -39s-15 -39 -45 -39z" />
    <glyph glyph-name="u" unicode="u" horiz-adv-x="539" 
d="M457 439v-399c0 -28 -18 -45 -42 -45s-42 17 -42 45v14h-1c-23 -37 -67 -65 -132 -65c-104 0 -165 71 -165 180v270c0 28 18 45 42 45s42 -17 42 -45v-250c0 -77 34 -122 106 -122c65 0 108 46 108 117v255c0 28 18 45 42 45s42 -17 42 -45z" />
    <glyph glyph-name="v" unicode="v" horiz-adv-x="479" 
d="M239 -5c-27 0 -40 13 -55 52l-145 376c-3 8 -4 14 -4 21c0 22 16 40 41 40c20 0 33 -12 40 -30l124 -333h2l121 333c7 18 20 30 40 30c25 0 41 -18 41 -40c0 -7 -1 -13 -4 -21l-146 -376c-15 -39 -28 -52 -55 -52z" />
    <glyph glyph-name="w" unicode="w" horiz-adv-x="745" 
d="M524 -5c-25 0 -42 13 -51 43l-99 315h-2l-100 -315c-10 -30 -26 -43 -50 -43s-40 13 -50 43l-127 388c-2 6 -3 13 -3 18c0 23 16 40 41 40c21 0 34 -12 41 -36l101 -325h2l100 320c9 29 23 41 46 41s37 -12 46 -41l102 -320h2l99 325c7 24 20 36 41 36
c24 0 40 -17 40 -40c0 -5 -1 -12 -3 -18l-127 -388c-10 -30 -26 -43 -49 -43z" />
    <glyph glyph-name="x" unicode="x" horiz-adv-x="479" 
d="M394 -5c-14 0 -27 6 -37 21l-117 166h-1l-117 -166c-11 -15 -23 -21 -37 -21c-22 0 -37 18 -37 37c0 10 3 19 10 29l134 189l-119 169c-6 9 -10 18 -10 28c0 20 15 37 37 37c14 0 27 -6 37 -20l102 -147h1l103 147c10 14 23 20 37 20c21 0 36 -17 36 -37
c0 -10 -4 -19 -10 -28l-119 -169l134 -189c7 -10 10 -19 10 -29c0 -19 -16 -37 -37 -37z" />
    <glyph glyph-name="y" unicode="y" horiz-adv-x="477" 
d="M110 -180h-8c-26 0 -41 17 -41 39s15 39 41 39c39 0 62 15 83 72l16 44l-163 411c-2 6 -4 13 -4 20c0 22 18 39 42 39c20 0 33 -10 40 -30l125 -331h2l120 331c7 20 20 30 39 30c25 0 41 -17 41 -39c0 -7 -2 -14 -4 -20l-180 -472c-42 -108 -80 -133 -149 -133z" />
    <glyph glyph-name="z" unicode="z" horiz-adv-x="453" 
d="M377 0h-301c-25 0 -40 15 -40 38c0 17 7 31 24 53l249 310v2h-220c-26 0 -40 16 -40 38s14 38 40 38h288c25 0 40 -15 40 -38c0 -16 -5 -30 -23 -53l-249 -310v-2h232c26 0 40 -16 40 -38s-14 -38 -40 -38z" />
    <glyph glyph-name="braceleft" unicode="{" horiz-adv-x="333" 
d="M264 -84h-21c-75 0 -110 36 -110 112v182c0 55 -14 72 -46 80c-23 6 -33 20 -33 40s10 34 33 40c32 8 46 25 46 80v178c0 76 35 112 110 112h21c24 0 36 -14 36 -34s-12 -34 -36 -34h-7c-31 0 -45 -14 -45 -51v-172c0 -75 -20 -103 -62 -118v-2c42 -15 62 -43 62 -118
v-176c0 -37 14 -51 45 -51h7c24 0 36 -14 36 -34s-12 -34 -36 -34z" />
    <glyph glyph-name="bar" unicode="|" horiz-adv-x="290" 
d="M145 -89c-21 0 -36 15 -36 40v754c0 25 15 40 36 40s36 -15 36 -40v-754c0 -25 -15 -40 -36 -40z" />
    <glyph glyph-name="braceright" unicode="}" horiz-adv-x="333" 
d="M90 -84h-21c-24 0 -36 14 -36 34s12 34 36 34h7c31 0 45 14 45 51v176c0 75 20 103 62 118v2c-42 15 -62 43 -62 118v172c0 37 -14 51 -45 51h-7c-24 0 -36 14 -36 34s12 34 36 34h21c75 0 110 -36 110 -112v-178c0 -55 14 -72 46 -80c23 -6 33 -20 33 -40
s-10 -34 -33 -40c-32 -8 -46 -25 -46 -80v-182c0 -76 -35 -112 -110 -112z" />
    <glyph glyph-name="asciitilde" unicode="~" 
d="M476 279c-28 -45 -72 -71 -120 -71c-41 0 -74 19 -101 37c-23 15 -45 28 -71 28s-44 -10 -63 -37c-9 -12 -19 -18 -30 -18c-18 0 -32 13 -32 31c0 7 2 16 7 24c28 45 72 71 120 71c41 0 74 -19 101 -37c23 -15 45 -28 71 -28s44 10 63 37c9 12 19 17 30 17
c18 0 32 -12 32 -30c0 -7 -2 -16 -7 -24z" />
    <glyph glyph-name="uni00A0" unicode="&#xa0;" horiz-adv-x="242" 
 />
    <glyph glyph-name="Agrave" unicode="&#xc0;" horiz-adv-x="607" 
d="M33 36c0 7 2 14 4 20l209 579c11 32 28 50 58 50s49 -18 60 -50l206 -579c2 -6 4 -13 4 -20c0 -25 -19 -41 -42 -41c-20 0 -36 11 -43 32l-46 131h-279l-46 -131c-7 -21 -23 -32 -43 -32c-23 0 -42 16 -42 41zM193 240h221l-108 309h-3zM262 890l69 -78
c7 -8 11 -17 11 -27c0 -18 -15 -32 -32 -32c-12 0 -21 5 -30 15l-69 76c-6 7 -10 16 -10 26c0 19 15 33 34 33c12 0 20 -5 27 -13z" />
    <glyph glyph-name="Aacute" unicode="&#xc1;" horiz-adv-x="607" 
d="M33 36c0 7 2 14 4 20l209 579c11 32 28 50 58 50s49 -18 60 -50l206 -579c2 -6 4 -13 4 -20c0 -25 -19 -41 -42 -41c-20 0 -36 11 -43 32l-46 131h-279l-46 -131c-7 -21 -23 -32 -43 -32c-23 0 -42 16 -42 41zM193 240h221l-108 309h-3zM278 812l69 78c7 8 15 13 27 13
c19 0 34 -14 34 -33c0 -10 -4 -19 -10 -26l-69 -76c-9 -10 -18 -15 -30 -15c-17 0 -32 14 -32 32c0 10 4 19 11 27z" />
    <glyph glyph-name="Acircumflex" unicode="&#xc2;" horiz-adv-x="607" 
d="M33 36c0 7 2 14 4 20l209 579c11 32 28 50 58 50s49 -18 60 -50l206 -579c2 -6 4 -13 4 -20c0 -25 -19 -41 -42 -41c-20 0 -36 11 -43 32l-46 131h-279l-46 -131c-7 -21 -23 -32 -43 -32c-23 0 -42 16 -42 41zM193 240h221l-108 309h-3zM377 758l-69 78h-2l-69 -78
c-8 -9 -16 -13 -25 -13c-15 0 -27 11 -27 26c0 7 3 14 8 20l69 87c14 18 26 27 45 27s30 -9 45 -27l69 -87c5 -6 8 -13 8 -20c0 -15 -12 -26 -27 -26c-9 0 -17 4 -25 13z" />
    <glyph glyph-name="Atilde" unicode="&#xc3;" horiz-adv-x="607" 
d="M33 36c0 7 2 14 4 20l209 579c11 32 28 50 58 50s49 -18 60 -50l206 -579c2 -6 4 -13 4 -20c0 -25 -19 -41 -42 -41c-20 0 -36 11 -43 32l-46 131h-279l-46 -131c-7 -21 -23 -32 -43 -32c-23 0 -42 16 -42 41zM193 240h221l-108 309h-3zM254 809c-15 0 -24 -6 -37 -23
c-7 -8 -15 -13 -25 -13c-17 0 -29 11 -29 27c0 7 3 16 8 23c24 35 51 50 80 50c25 0 42 -8 64 -22c23 -15 34 -19 45 -19c15 0 24 6 37 23c7 8 15 13 25 13c17 0 29 -11 29 -27c0 -7 -3 -16 -8 -23c-24 -35 -51 -50 -80 -50c-25 0 -42 8 -64 22c-23 15 -34 19 -45 19z" />
    <glyph glyph-name="Adieresis" unicode="&#xc4;" horiz-adv-x="607" 
d="M33 36c0 7 2 14 4 20l209 579c11 32 28 50 58 50s49 -18 60 -50l206 -579c2 -6 4 -13 4 -20c0 -25 -19 -41 -42 -41c-20 0 -36 11 -43 32l-46 131h-279l-46 -131c-7 -21 -23 -32 -43 -32c-23 0 -42 16 -42 41zM193 240h221l-108 309h-3zM406 773c-27 0 -50 22 -50 49
c0 28 23 51 50 51c28 0 50 -23 50 -51c0 -27 -22 -49 -50 -49zM207 773c-28 0 -50 22 -50 49c0 28 22 51 50 51c27 0 50 -23 50 -51c0 -27 -23 -49 -50 -49z" />
    <glyph glyph-name="Amacron" unicode="&#x100;" horiz-adv-x="607" 
d="M33 36c0 7 2 14 4 20l209 579c11 32 28 50 58 50s49 -18 60 -50l206 -579c2 -6 4 -13 4 -20c0 -25 -19 -41 -42 -41c-20 0 -36 11 -43 32l-46 131h-279l-46 -131c-7 -21 -23 -32 -43 -32c-23 0 -42 16 -42 41zM193 240h221l-108 309h-3zM416 790h-218
c-22 0 -35 14 -35 32c0 19 13 33 35 33h218c22 0 35 -14 35 -33c0 -18 -13 -32 -35 -32z" />
    <glyph glyph-name="Abreve" unicode="&#x102;" horiz-adv-x="607" 
d="M33 36c0 7 2 14 4 20l209 579c11 32 28 50 58 50s49 -18 60 -50l206 -579c2 -6 4 -13 4 -20c0 -25 -19 -41 -42 -41c-20 0 -36 11 -43 32l-46 131h-279l-46 -131c-7 -21 -23 -32 -43 -32c-23 0 -42 16 -42 41zM193 240h221l-108 309h-3zM307 761c-79 0 -131 53 -131 104
c0 15 9 26 25 26c15 0 22 -9 29 -24c14 -30 41 -46 77 -46s63 16 77 46c7 15 14 24 29 24c16 0 25 -11 25 -26c0 -51 -52 -104 -131 -104z" />
    <glyph glyph-name="Aring" unicode="&#xc5;" horiz-adv-x="607" 
d="M33 36c0 7 2 14 4 20l209 579c11 32 28 50 58 50s49 -18 60 -50l206 -579c2 -6 4 -13 4 -20c0 -25 -19 -41 -42 -41c-20 0 -36 11 -43 32l-46 131h-279l-46 -131c-7 -21 -23 -32 -43 -32c-23 0 -42 16 -42 41zM193 240h221l-108 309h-3zM301 728c-53 0 -95 41 -95 95
s42 95 95 95s95 -41 95 -95s-42 -95 -95 -95zM301 770c29 0 51 23 51 53s-22 53 -51 53s-51 -23 -51 -53s22 -53 51 -53z" />
    <glyph glyph-name="Aringacute" unicode="&#x1fa;" horiz-adv-x="607" 
d="M339 785c-8 -6 -16 -9 -25 -9c-16 0 -32 13 -32 31c0 10 5 20 15 29l70 58c8 6 16 9 24 9c17 0 33 -13 33 -32c0 -11 -5 -21 -16 -30zM489 27l-46 131h-279l-46 -131c-7 -21 -23 -32 -43 -32c-23 0 -42 16 -42 41c0 7 2 14 4 20l191 529l4 8c-16 17 -25 40 -25 66
c0 54 42 95 95 95s95 -41 95 -95c0 -24 -8 -45 -22 -62c3 -3 5 -7 7 -12l188 -529c2 -6 4 -13 4 -20c0 -25 -19 -41 -42 -41c-20 0 -36 11 -43 32zM302 606c29 0 51 23 51 53s-22 53 -51 53s-51 -23 -51 -53s22 -53 51 -53zM302 554l-110 -314h222l-109 314h-3z" />
    <glyph glyph-name="Aogonek" unicode="&#x104;" horiz-adv-x="607" 
d="M497 -179c-50 0 -83 30 -83 78c0 37 22 78 79 118l-50 141h-279l-46 -131c-7 -21 -23 -32 -43 -32c-23 0 -42 16 -42 41c0 7 2 14 4 20l209 579c11 32 28 50 58 50s49 -18 60 -50l206 -579c2 -5 4 -14 4 -20c0 -14 -4 -25 -23 -42c-50 -42 -66 -65 -66 -84
c0 -16 9 -24 24 -24c6 0 12 1 19 4c5 2 11 3 15 3c17 0 28 -13 28 -29c0 -11 -5 -21 -17 -28c-14 -9 -36 -15 -57 -15zM303 549l-110 -309h221l-108 309h-3z" />
    <glyph glyph-name="AE" unicode="&#xc6;" horiz-adv-x="932" 
d="M440 680h403c27 0 44 -18 44 -41c0 -24 -17 -42 -44 -42h-295c-4 0 -6 -2 -6 -6v-200c0 -4 2 -6 6 -6h246c27 0 44 -18 44 -41c0 -24 -17 -42 -44 -42h-246c-4 0 -6 -2 -6 -6v-207c0 -4 2 -6 6 -6h295c27 0 44 -18 44 -41c0 -24 -17 -42 -44 -42h-350
c-24 0 -40 15 -40 40v112c0 4 -2 6 -6 6h-250l-78 -136c-10 -18 -24 -26 -42 -26c-23 0 -42 16 -42 41c0 8 1 17 6 26l336 577c16 28 32 40 63 40zM450 597l-206 -357h203c4 0 6 2 6 6v351h-3z" />
    <glyph glyph-name="AEacute" unicode="&#x1fc;" horiz-adv-x="932" 
d="M440 680h403c27 0 44 -18 44 -41c0 -24 -17 -42 -44 -42h-295c-4 0 -6 -2 -6 -6v-200c0 -4 2 -6 6 -6h246c27 0 44 -18 44 -41c0 -24 -17 -42 -44 -42h-246c-4 0 -6 -2 -6 -6v-207c0 -4 2 -6 6 -6h295c27 0 44 -18 44 -41c0 -24 -17 -42 -44 -42h-350
c-24 0 -40 15 -40 40v112c0 4 -2 6 -6 6h-250l-78 -136c-10 -18 -24 -26 -42 -26c-23 0 -42 16 -42 41c0 8 1 17 6 26l336 577c16 28 32 40 63 40zM450 597l-206 -357h203c4 0 6 2 6 6v351h-3zM491 812l69 78c7 8 15 13 27 13c19 0 34 -14 34 -33c0 -10 -4 -19 -10 -26
l-69 -76c-9 -10 -18 -15 -30 -15c-17 0 -32 14 -32 32c0 10 4 19 11 27z" />
    <glyph glyph-name="Cacute" unicode="&#x106;" horiz-adv-x="563" 
d="M79 150c-16 49 -19 93 -19 190s3 141 19 190c34 104 112 161 227 161c87 0 161 -42 199 -111c5 -8 8 -19 8 -28c0 -25 -18 -41 -41 -41c-17 0 -29 8 -40 25c-32 48 -70 72 -126 72c-75 0 -120 -42 -140 -105c-11 -33 -16 -73 -16 -163s5 -130 16 -163
c20 -63 65 -105 140 -105c56 0 94 24 126 72c11 17 23 25 40 25c23 0 41 -16 41 -41c0 -9 -3 -20 -8 -28c-38 -69 -112 -111 -199 -111c-115 0 -193 57 -227 161zM276 812l69 78c7 8 15 13 27 13c19 0 34 -14 34 -33c0 -10 -4 -19 -10 -26l-69 -76c-9 -10 -18 -15 -30 -15
c-17 0 -32 14 -32 32c0 10 4 19 11 27z" />
    <glyph glyph-name="Ccircumflex" unicode="&#x108;" horiz-adv-x="563" 
d="M79 150c-16 49 -19 93 -19 190s3 141 19 190c34 104 112 161 227 161c87 0 161 -42 199 -111c5 -8 8 -19 8 -28c0 -25 -18 -41 -41 -41c-17 0 -29 8 -40 25c-32 48 -70 72 -126 72c-75 0 -120 -42 -140 -105c-11 -33 -16 -73 -16 -163s5 -130 16 -163
c20 -63 65 -105 140 -105c56 0 94 24 126 72c11 17 23 25 40 25c23 0 41 -16 41 -41c0 -9 -3 -20 -8 -28c-38 -69 -112 -111 -199 -111c-115 0 -193 57 -227 161zM372 758l-69 78h-2l-69 -78c-8 -9 -16 -13 -25 -13c-15 0 -27 11 -27 26c0 7 3 14 8 20l69 87
c14 18 26 27 45 27s30 -9 45 -27l69 -87c5 -6 8 -13 8 -20c0 -15 -12 -26 -27 -26c-9 0 -17 4 -25 13z" />
    <glyph glyph-name="Ccaron" unicode="&#x10c;" horiz-adv-x="563" 
d="M79 150c-16 49 -19 93 -19 190s3 141 19 190c34 104 112 161 227 161c87 0 161 -42 199 -111c5 -8 8 -19 8 -28c0 -25 -18 -41 -41 -41c-17 0 -29 8 -40 25c-32 48 -70 72 -126 72c-75 0 -120 -42 -140 -105c-11 -33 -16 -73 -16 -163s5 -130 16 -163
c20 -63 65 -105 140 -105c56 0 94 24 126 72c11 17 23 25 40 25c23 0 41 -16 41 -41c0 -9 -3 -20 -8 -28c-38 -69 -112 -111 -199 -111c-115 0 -193 57 -227 161zM303 814l69 78c8 9 16 13 25 13c15 0 27 -11 27 -26c0 -7 -3 -14 -8 -20l-69 -87c-15 -18 -26 -27 -45 -27
s-31 9 -45 27l-69 87c-5 6 -8 13 -8 20c0 15 12 26 27 26c9 0 17 -4 25 -13l69 -78h2z" />
    <glyph glyph-name="Cdotaccent" unicode="&#x10a;" horiz-adv-x="563" 
d="M79 150c-16 49 -19 93 -19 190s3 141 19 190c34 104 112 161 227 161c87 0 161 -42 199 -111c5 -8 8 -19 8 -28c0 -25 -18 -41 -41 -41c-17 0 -29 8 -40 25c-32 48 -70 72 -126 72c-75 0 -120 -42 -140 -105c-11 -33 -16 -73 -16 -163s5 -130 16 -163
c20 -63 65 -105 140 -105c56 0 94 24 126 72c11 17 23 25 40 25c23 0 41 -16 41 -41c0 -9 -3 -20 -8 -28c-38 -69 -112 -111 -199 -111c-115 0 -193 57 -227 161zM301 766c-31 0 -55 24 -55 55c0 30 24 55 55 55c30 0 55 -25 55 -55c0 -31 -25 -55 -55 -55z" />
    <glyph glyph-name="Ccedilla" unicode="&#xc7;" horiz-adv-x="563" 
d="M291 -136c-6 -18 -18 -26 -34 -26c-20 0 -35 12 -35 33c0 5 2 13 4 19l37 102c-89 12 -154 66 -184 158c-16 49 -19 93 -19 190s3 141 19 190c34 104 112 161 227 161c87 0 161 -42 199 -111c5 -8 8 -19 8 -28c0 -25 -18 -41 -41 -41c-17 0 -29 8 -40 25
c-32 48 -70 72 -126 72c-75 0 -120 -42 -140 -105c-11 -33 -16 -73 -16 -163s5 -130 16 -163c20 -63 65 -105 140 -105c56 0 94 24 126 72c11 17 23 25 40 25c23 0 41 -16 41 -41c0 -9 -3 -20 -8 -28c-34 -61 -94 -101 -170 -110z" />
    <glyph glyph-name="Dcaron" unicode="&#x10e;" horiz-adv-x="623" 
d="M84 40v600c0 24 15 40 40 40h173c132 0 213 -52 246 -155c15 -44 20 -87 20 -185s-5 -141 -20 -185c-33 -103 -114 -155 -246 -155h-173c-25 0 -40 16 -40 40zM173 89c0 -4 2 -6 6 -6h112c90 0 142 28 166 102c11 35 16 74 16 155s-5 120 -16 155
c-24 74 -76 102 -166 102h-112c-4 0 -6 -2 -6 -6v-502zM298 814l69 78c8 9 16 13 25 13c15 0 27 -11 27 -26c0 -7 -3 -14 -8 -20l-69 -87c-15 -18 -26 -27 -45 -27s-31 9 -45 27l-69 87c-5 6 -8 13 -8 20c0 15 12 26 27 26c9 0 17 -4 25 -13l69 -78h2z" />
    <glyph glyph-name="Dcroat" unicode="&#x110;" horiz-adv-x="623" 
d="M297 0h-173c-25 0 -40 16 -40 40v261c0 4 -2 7 -6 7h-19c-22 0 -36 15 -36 36s14 36 36 36h19c4 0 6 2 6 6v254c0 24 15 40 40 40h173c132 0 213 -52 246 -155c15 -44 20 -87 20 -185s-5 -141 -20 -185c-33 -103 -114 -155 -246 -155zM291 83c90 0 142 28 166 102
c11 35 16 74 16 155s-5 120 -16 155c-24 74 -76 102 -166 102h-112c-4 0 -6 -2 -6 -6v-205c0 -4 2 -6 6 -6h93c23 0 37 -15 37 -36s-14 -36 -37 -36h-93c-4 0 -6 -3 -6 -7v-212c0 -4 2 -6 6 -6h112z" />
    <glyph glyph-name="Eth" unicode="&#xd0;" horiz-adv-x="623" 
d="M297 0h-173c-25 0 -40 16 -40 40v261c0 4 -2 7 -6 7h-19c-22 0 -36 15 -36 36s14 36 36 36h19c4 0 6 2 6 6v254c0 24 15 40 40 40h173c132 0 213 -52 246 -155c15 -44 20 -87 20 -185s-5 -141 -20 -185c-33 -103 -114 -155 -246 -155zM291 83c90 0 142 28 166 102
c11 35 16 74 16 155s-5 120 -16 155c-24 74 -76 102 -166 102h-112c-4 0 -6 -2 -6 -6v-205c0 -4 2 -6 6 -6h93c23 0 37 -15 37 -36s-14 -36 -37 -36h-93c-4 0 -6 -3 -6 -7v-212c0 -4 2 -6 6 -6h112z" />
    <glyph glyph-name="Egrave" unicode="&#xc8;" horiz-adv-x="563" 
d="M84 40v600c0 24 15 40 40 40h350c27 0 44 -18 44 -41c0 -24 -17 -42 -44 -42h-295c-4 0 -6 -2 -6 -6v-200c0 -4 2 -6 6 -6h246c27 0 44 -18 44 -41c0 -24 -17 -42 -44 -42h-246c-4 0 -6 -2 -6 -6v-207c0 -4 2 -6 6 -6h295c27 0 44 -18 44 -41c0 -24 -17 -42 -44 -42h-350
c-25 0 -40 16 -40 40zM248 890l69 -78c7 -8 11 -17 11 -27c0 -18 -15 -32 -32 -32c-12 0 -21 5 -30 15l-69 76c-6 7 -10 16 -10 26c0 19 15 33 34 33c12 0 20 -5 27 -13z" />
    <glyph glyph-name="Eacute" unicode="&#xc9;" horiz-adv-x="563" 
d="M84 40v600c0 24 15 40 40 40h350c27 0 44 -18 44 -41c0 -24 -17 -42 -44 -42h-295c-4 0 -6 -2 -6 -6v-200c0 -4 2 -6 6 -6h246c27 0 44 -18 44 -41c0 -24 -17 -42 -44 -42h-246c-4 0 -6 -2 -6 -6v-207c0 -4 2 -6 6 -6h295c27 0 44 -18 44 -41c0 -24 -17 -42 -44 -42h-350
c-25 0 -40 16 -40 40zM267 812l69 78c7 8 15 13 27 13c19 0 34 -14 34 -33c0 -10 -4 -19 -10 -26l-69 -76c-9 -10 -18 -15 -30 -15c-17 0 -32 14 -32 32c0 10 4 19 11 27z" />
    <glyph glyph-name="Ecircumflex" unicode="&#xca;" horiz-adv-x="563" 
d="M84 40v600c0 24 15 40 40 40h350c27 0 44 -18 44 -41c0 -24 -17 -42 -44 -42h-295c-4 0 -6 -2 -6 -6v-200c0 -4 2 -6 6 -6h246c27 0 44 -18 44 -41c0 -24 -17 -42 -44 -42h-246c-4 0 -6 -2 -6 -6v-207c0 -4 2 -6 6 -6h295c27 0 44 -18 44 -41c0 -24 -17 -42 -44 -42h-350
c-25 0 -40 16 -40 40zM369 758l-69 78h-2l-69 -78c-8 -9 -16 -13 -25 -13c-15 0 -27 11 -27 26c0 7 3 14 8 20l69 87c14 18 26 27 45 27s30 -9 45 -27l69 -87c5 -6 8 -13 8 -20c0 -15 -12 -26 -27 -26c-9 0 -17 4 -25 13z" />
    <glyph glyph-name="Ecaron" unicode="&#x11a;" horiz-adv-x="563" 
d="M84 40v600c0 24 15 40 40 40h350c27 0 44 -18 44 -41c0 -24 -17 -42 -44 -42h-295c-4 0 -6 -2 -6 -6v-200c0 -4 2 -6 6 -6h246c27 0 44 -18 44 -41c0 -24 -17 -42 -44 -42h-246c-4 0 -6 -2 -6 -6v-207c0 -4 2 -6 6 -6h295c27 0 44 -18 44 -41c0 -24 -17 -42 -44 -42h-350
c-25 0 -40 16 -40 40zM299 814l69 78c8 9 16 13 25 13c15 0 27 -11 27 -26c0 -7 -3 -14 -8 -20l-69 -87c-15 -18 -26 -27 -45 -27s-31 9 -45 27l-69 87c-5 6 -8 13 -8 20c0 15 12 26 27 26c9 0 17 -4 25 -13l69 -78h2z" />
    <glyph glyph-name="Edieresis" unicode="&#xcb;" horiz-adv-x="563" 
d="M84 40v600c0 24 15 40 40 40h350c27 0 44 -18 44 -41c0 -24 -17 -42 -44 -42h-295c-4 0 -6 -2 -6 -6v-200c0 -4 2 -6 6 -6h246c27 0 44 -18 44 -41c0 -24 -17 -42 -44 -42h-246c-4 0 -6 -2 -6 -6v-207c0 -4 2 -6 6 -6h295c27 0 44 -18 44 -41c0 -24 -17 -42 -44 -42h-350
c-25 0 -40 16 -40 40zM394 773c-27 0 -50 22 -50 49c0 28 23 51 50 51c28 0 50 -23 50 -51c0 -27 -22 -49 -50 -49zM195 773c-28 0 -50 22 -50 49c0 28 22 51 50 51c27 0 50 -23 50 -51c0 -27 -23 -49 -50 -49z" />
    <glyph glyph-name="Emacron" unicode="&#x112;" horiz-adv-x="563" 
d="M84 40v600c0 24 15 40 40 40h350c27 0 44 -18 44 -41c0 -24 -17 -42 -44 -42h-295c-4 0 -6 -2 -6 -6v-200c0 -4 2 -6 6 -6h246c27 0 44 -18 44 -41c0 -24 -17 -42 -44 -42h-246c-4 0 -6 -2 -6 -6v-207c0 -4 2 -6 6 -6h295c27 0 44 -18 44 -41c0 -24 -17 -42 -44 -42h-350
c-25 0 -40 16 -40 40zM404 790h-218c-22 0 -35 14 -35 32c0 19 13 33 35 33h218c22 0 35 -14 35 -33c0 -18 -13 -32 -35 -32z" />
    <glyph glyph-name="Ebreve" unicode="&#x114;" horiz-adv-x="563" 
d="M84 40v600c0 24 15 40 40 40h350c27 0 44 -18 44 -41c0 -24 -17 -42 -44 -42h-295c-4 0 -6 -2 -6 -6v-200c0 -4 2 -6 6 -6h246c27 0 44 -18 44 -41c0 -24 -17 -42 -44 -42h-246c-4 0 -6 -2 -6 -6v-207c0 -4 2 -6 6 -6h295c27 0 44 -18 44 -41c0 -24 -17 -42 -44 -42h-350
c-25 0 -40 16 -40 40zM295 761c-79 0 -131 53 -131 104c0 15 9 26 25 26c15 0 22 -9 29 -24c14 -30 41 -46 77 -46s63 16 77 46c7 15 14 24 29 24c16 0 25 -11 25 -26c0 -51 -52 -104 -131 -104z" />
    <glyph glyph-name="Edotaccent" unicode="&#x116;" horiz-adv-x="563" 
d="M84 40v600c0 24 15 40 40 40h350c27 0 44 -18 44 -41c0 -24 -17 -42 -44 -42h-295c-4 0 -6 -2 -6 -6v-200c0 -4 2 -6 6 -6h246c27 0 44 -18 44 -41c0 -24 -17 -42 -44 -42h-246c-4 0 -6 -2 -6 -6v-207c0 -4 2 -6 6 -6h295c27 0 44 -18 44 -41c0 -24 -17 -42 -44 -42h-350
c-25 0 -40 16 -40 40zM298 766c-31 0 -55 24 -55 55c0 30 24 55 55 55c30 0 55 -25 55 -55c0 -31 -25 -55 -55 -55z" />
    <glyph glyph-name="Eogonek" unicode="&#x118;" horiz-adv-x="563" 
d="M474 0h-7c-57 -43 -71 -71 -71 -90c0 -16 9 -24 23 -24c7 0 12 1 19 4c5 2 11 3 16 3c16 0 27 -13 27 -29c0 -11 -5 -21 -16 -28c-15 -9 -37 -15 -58 -15c-50 0 -82 29 -82 77c0 33 15 66 59 102h-260c-25 0 -40 16 -40 40v600c0 24 15 40 40 40h350c27 0 44 -18 44 -41
c0 -24 -17 -42 -44 -42h-295c-4 0 -6 -2 -6 -6v-200c0 -4 2 -6 6 -6h246c27 0 44 -18 44 -41c0 -24 -17 -42 -44 -42h-246c-4 0 -6 -2 -6 -6v-207c0 -4 2 -6 6 -6h295c27 0 44 -18 44 -41c0 -24 -17 -42 -44 -42z" />
    <glyph glyph-name="Gcircumflex" unicode="&#x11c;" horiz-adv-x="619" 
d="M79 150c-16 49 -19 93 -19 190s3 141 19 190c34 104 113 161 230 161c102 0 178 -44 212 -110c4 -8 7 -18 7 -27c0 -25 -18 -41 -41 -41c-16 0 -29 7 -40 25c-30 47 -75 70 -138 70c-78 0 -123 -42 -143 -105c-11 -33 -16 -73 -16 -163s5 -130 16 -163
c20 -63 65 -105 143 -105c74 0 127 35 148 101c10 31 13 68 13 101c0 4 -2 6 -6 6h-104c-27 0 -44 18 -44 42c0 23 17 41 44 41h158c25 0 41 -16 41 -41v-19c0 -49 -6 -109 -19 -150c-34 -106 -116 -164 -231 -164c-117 0 -196 57 -230 161zM379 758l-69 78h-2l-69 -78
c-8 -9 -16 -13 -25 -13c-15 0 -27 11 -27 26c0 7 3 14 8 20l69 87c14 18 26 27 45 27s30 -9 45 -27l69 -87c5 -6 8 -13 8 -20c0 -15 -12 -26 -27 -26c-9 0 -17 4 -25 13z" />
    <glyph glyph-name="Gbreve" unicode="&#x11e;" horiz-adv-x="619" 
d="M79 150c-16 49 -19 93 -19 190s3 141 19 190c34 104 113 161 230 161c102 0 178 -44 212 -110c4 -8 7 -18 7 -27c0 -25 -18 -41 -41 -41c-16 0 -29 7 -40 25c-30 47 -75 70 -138 70c-78 0 -123 -42 -143 -105c-11 -33 -16 -73 -16 -163s5 -130 16 -163
c20 -63 65 -105 143 -105c74 0 127 35 148 101c10 31 13 68 13 101c0 4 -2 6 -6 6h-104c-27 0 -44 18 -44 42c0 23 17 41 44 41h158c25 0 41 -16 41 -41v-19c0 -49 -6 -109 -19 -150c-34 -106 -116 -164 -231 -164c-117 0 -196 57 -230 161zM308 761c-79 0 -131 53 -131 104
c0 15 9 26 25 26c15 0 22 -9 29 -24c14 -30 41 -46 77 -46s63 16 77 46c7 15 14 24 29 24c16 0 25 -11 25 -26c0 -51 -52 -104 -131 -104z" />
    <glyph glyph-name="Gdotaccent" unicode="&#x120;" horiz-adv-x="619" 
d="M79 150c-16 49 -19 93 -19 190s3 141 19 190c34 104 113 161 230 161c102 0 178 -44 212 -110c4 -8 7 -18 7 -27c0 -25 -18 -41 -41 -41c-16 0 -29 7 -40 25c-30 47 -75 70 -138 70c-78 0 -123 -42 -143 -105c-11 -33 -16 -73 -16 -163s5 -130 16 -163
c20 -63 65 -105 143 -105c74 0 127 35 148 101c10 31 13 68 13 101c0 4 -2 6 -6 6h-104c-27 0 -44 18 -44 42c0 23 17 41 44 41h158c25 0 41 -16 41 -41v-19c0 -49 -6 -109 -19 -150c-34 -106 -116 -164 -231 -164c-117 0 -196 57 -230 161zM309 766c-31 0 -55 24 -55 55
c0 30 24 55 55 55c30 0 55 -25 55 -55c0 -31 -25 -55 -55 -55z" />
    <glyph glyph-name="Gcommaaccent" unicode="&#x122;" horiz-adv-x="619" 
d="M79 150c-16 49 -19 93 -19 190s3 141 19 190c34 104 113 161 230 161c102 0 178 -44 212 -110c4 -8 7 -18 7 -27c0 -25 -18 -41 -41 -41c-16 0 -29 7 -40 25c-30 47 -75 70 -138 70c-78 0 -123 -42 -143 -105c-11 -33 -16 -73 -16 -163s5 -130 16 -163
c20 -63 65 -105 143 -105c74 0 127 35 148 101c10 31 13 68 13 101c0 4 -2 6 -6 6h-104c-27 0 -44 18 -44 42c0 23 17 41 44 41h158c25 0 41 -16 41 -41v-19c0 -49 -6 -109 -19 -150c-34 -106 -116 -164 -231 -164c-117 0 -196 57 -230 161zM317 -189
c-6 -20 -19 -31 -36 -31c-22 0 -39 15 -39 37c0 5 1 11 3 17l28 87c6 20 19 30 36 30c22 0 40 -13 40 -35c0 -6 -1 -13 -3 -19z" />
    <glyph glyph-name="Hcircumflex" unicode="&#x124;" horiz-adv-x="653" 
d="M84 43v594c0 30 18 48 45 48c26 0 44 -18 44 -48v-246c0 -4 2 -6 6 -6h295c4 0 6 2 6 6v246c0 30 18 48 45 48c26 0 44 -18 44 -48v-594c0 -30 -18 -48 -44 -48c-27 0 -45 18 -45 48v253c0 4 -2 6 -6 6h-295c-4 0 -6 -2 -6 -6v-253c0 -30 -18 -48 -44 -48
c-27 0 -45 18 -45 48zM396 758l-69 78h-2l-69 -78c-8 -9 -16 -13 -25 -13c-15 0 -27 11 -27 26c0 7 3 14 8 20l69 87c14 18 26 27 45 27s30 -9 45 -27l69 -87c5 -6 8 -13 8 -20c0 -15 -12 -26 -27 -26c-9 0 -17 4 -25 13z" />
    <glyph glyph-name="Hbar" unicode="&#x126;" horiz-adv-x="653" 
d="M480 570v67c0 30 18 48 45 48c26 0 44 -18 44 -48v-67c0 -4 2 -6 6 -6h19c22 0 34 -15 34 -34s-12 -34 -34 -34h-19c-4 0 -6 -2 -6 -6v-447c0 -30 -18 -48 -44 -48c-27 0 -45 18 -45 48v253c0 4 -2 6 -6 6h-295c-4 0 -6 -2 -6 -6v-253c0 -30 -18 -48 -44 -48
c-27 0 -45 18 -45 48v447c0 4 -2 6 -6 6h-19c-22 0 -34 15 -34 34s12 34 34 34h19c4 0 6 2 6 6v67c0 30 18 48 45 48c26 0 44 -18 44 -48v-67c0 -4 2 -6 6 -6h295c4 0 6 2 6 6zM474 385c4 0 6 2 6 6v99c0 4 -2 6 -6 6h-295c-4 0 -6 -2 -6 -6v-99c0 -4 2 -6 6 -6h295z" />
    <glyph glyph-name="Igrave" unicode="&#xcc;" horiz-adv-x="257" 
d="M84 43v594c0 30 18 48 45 48c26 0 44 -18 44 -48v-594c0 -30 -18 -48 -44 -48c-27 0 -45 18 -45 48zM84 890l69 -78c7 -8 11 -17 11 -27c0 -18 -15 -32 -32 -32c-12 0 -21 5 -30 15l-69 76c-6 7 -10 16 -10 26c0 19 15 33 34 33c12 0 20 -5 27 -13z" />
    <glyph glyph-name="Iacute" unicode="&#xcd;" horiz-adv-x="257" 
d="M84 43v594c0 30 18 48 45 48c26 0 44 -18 44 -48v-594c0 -30 -18 -48 -44 -48c-27 0 -45 18 -45 48zM107 812l69 78c7 8 15 13 27 13c19 0 34 -14 34 -33c0 -10 -4 -19 -10 -26l-69 -76c-9 -10 -18 -15 -30 -15c-17 0 -32 14 -32 32c0 10 4 19 11 27z" />
    <glyph glyph-name="Ibreve" unicode="&#x12c;" horiz-adv-x="257" 
d="M84 43v594c0 30 18 48 45 48c26 0 44 -18 44 -48v-594c0 -30 -18 -48 -44 -48c-27 0 -45 18 -45 48zM129 761c-79 0 -131 53 -131 104c0 15 9 26 25 26c15 0 22 -9 29 -24c14 -30 41 -46 77 -46s63 16 77 46c7 15 14 24 29 24c16 0 25 -11 25 -26
c0 -51 -52 -104 -131 -104z" />
    <glyph glyph-name="Icircumflex" unicode="&#xce;" horiz-adv-x="257" 
d="M84 43v594c0 30 18 48 45 48c26 0 44 -18 44 -48v-594c0 -30 -18 -48 -44 -48c-27 0 -45 18 -45 48zM198 758l-69 78h-2l-69 -78c-8 -9 -16 -13 -25 -13c-15 0 -27 11 -27 26c0 7 3 14 8 20l69 87c14 18 26 27 45 27s30 -9 45 -27l69 -87c5 -6 8 -13 8 -20
c0 -15 -12 -26 -27 -26c-9 0 -17 4 -25 13z" />
    <glyph glyph-name="Itilde" unicode="&#x128;" horiz-adv-x="257" 
d="M84 43v594c0 30 18 48 45 48c26 0 44 -18 44 -48v-594c0 -30 -18 -48 -44 -48c-27 0 -45 18 -45 48zM75 809c-15 0 -24 -6 -37 -23c-7 -8 -15 -13 -25 -13c-17 0 -29 11 -29 27c0 7 3 16 8 23c24 35 51 50 80 50c25 0 42 -8 64 -22c23 -15 34 -19 45 -19c15 0 24 6 37 23
c7 8 15 13 25 13c17 0 29 -11 29 -27c0 -7 -3 -16 -8 -23c-24 -35 -51 -50 -80 -50c-25 0 -42 8 -64 22c-23 15 -34 19 -45 19z" />
    <glyph glyph-name="Idieresis" unicode="&#xcf;" horiz-adv-x="257" 
d="M84 43v594c0 30 18 48 45 48c26 0 44 -18 44 -48v-594c0 -30 -18 -48 -44 -48c-27 0 -45 18 -45 48zM228 773c-27 0 -50 22 -50 49c0 28 23 51 50 51c28 0 50 -23 50 -51c0 -27 -22 -49 -50 -49zM29 773c-28 0 -50 22 -50 49c0 28 22 51 50 51c27 0 50 -23 50 -51
c0 -27 -23 -49 -50 -49z" />
    <glyph glyph-name="Imacron" unicode="&#x12a;" horiz-adv-x="257" 
d="M84 43v594c0 30 18 48 45 48c26 0 44 -18 44 -48v-594c0 -30 -18 -48 -44 -48c-27 0 -45 18 -45 48zM238 790h-218c-22 0 -35 14 -35 32c0 19 13 33 35 33h218c22 0 35 -14 35 -33c0 -18 -13 -32 -35 -32z" />
    <glyph glyph-name="Idotaccent" unicode="&#x130;" horiz-adv-x="257" 
d="M84 43v594c0 30 18 48 45 48c26 0 44 -18 44 -48v-594c0 -30 -18 -48 -44 -48c-27 0 -45 18 -45 48zM128 766c-31 0 -55 24 -55 55c0 30 24 55 55 55c30 0 55 -25 55 -55c0 -31 -25 -55 -55 -55z" />
    <glyph glyph-name="Iogonek" unicode="&#x12e;" horiz-adv-x="257" 
d="M84 34v603c0 30 18 48 45 48c26 0 44 -18 44 -48v-594c0 -24 -6 -36 -21 -51c-41 -42 -52 -61 -52 -82c0 -16 9 -24 24 -24c6 0 11 1 18 4c6 2 11 3 16 3c16 0 27 -13 27 -29c0 -11 -4 -21 -16 -28c-14 -9 -36 -15 -57 -15c-50 0 -83 29 -83 77c0 33 16 67 61 111
c-3 5 -6 13 -6 25z" />
    <glyph glyph-name="Jcircumflex" unicode="&#x134;" horiz-adv-x="489" 
d="M52 39c-10 9 -15 21 -15 33c0 22 17 40 40 40c10 0 20 -4 32 -12c25 -16 57 -28 89 -28c75 0 123 42 123 146v419c0 30 18 48 45 48c26 0 44 -18 44 -48v-419c0 -152 -82 -229 -214 -229c-58 0 -113 23 -144 50zM436 758l-69 78h-2l-69 -78c-8 -9 -16 -13 -25 -13
c-15 0 -27 11 -27 26c0 7 3 14 8 20l69 87c14 18 26 27 45 27s30 -9 45 -27l69 -87c5 -6 8 -13 8 -20c0 -15 -12 -26 -27 -26c-9 0 -17 4 -25 13z" />
    <glyph glyph-name="Kcommaaccent" unicode="&#x136;" horiz-adv-x="597" 
d="M84 43v594c0 30 18 48 45 48c26 0 44 -18 44 -48v-324l290 353c9 11 22 19 37 19c21 0 40 -16 40 -39c0 -11 -5 -21 -12 -29l-174 -206l199 -346c6 -10 9 -19 9 -28c0 -23 -17 -42 -42 -42c-18 0 -32 9 -42 26l-183 321l-122 -148v-151c0 -30 -18 -48 -44 -48
c-27 0 -45 18 -45 48zM316 -189c-6 -20 -19 -31 -36 -31c-22 0 -39 15 -39 37c0 5 1 11 3 17l28 87c6 20 19 30 36 30c22 0 40 -13 40 -35c0 -6 -1 -13 -3 -19z" />
    <glyph glyph-name="Lacute" unicode="&#x139;" horiz-adv-x="538" 
d="M84 44v593c0 30 18 48 44 48s45 -18 45 -48v-548c0 -4 2 -6 6 -6h295c27 0 44 -18 44 -41c0 -24 -17 -42 -44 -42h-347c-27 0 -43 17 -43 44zM115 812l69 78c7 8 15 13 27 13c19 0 34 -14 34 -33c0 -10 -4 -19 -10 -26l-69 -76c-9 -10 -18 -15 -30 -15
c-17 0 -32 14 -32 32c0 10 4 19 11 27z" />
    <glyph glyph-name="Lcaron" unicode="&#x13d;" horiz-adv-x="538" 
d="M84 44v593c0 30 18 48 44 48s45 -18 45 -48v-548c0 -4 2 -6 6 -6h295c27 0 44 -18 44 -41c0 -24 -17 -42 -44 -42h-347c-27 0 -43 17 -43 44zM313 547c-7 -19 -20 -30 -36 -30c-22 0 -38 14 -38 36c0 5 1 12 3 17l26 83c7 20 19 30 36 30c22 0 39 -14 39 -36
c0 -5 -1 -12 -3 -17z" />
    <glyph glyph-name="Lcommaaccent" unicode="&#x13b;" horiz-adv-x="538" 
d="M84 44v593c0 30 18 48 44 48s45 -18 45 -48v-548c0 -4 2 -6 6 -6h295c27 0 44 -18 44 -41c0 -24 -17 -42 -44 -42h-347c-27 0 -43 17 -43 44zM306 -189c-6 -20 -19 -31 -36 -31c-22 0 -39 15 -39 37c0 5 1 11 3 17l28 87c6 20 19 30 36 30c22 0 40 -13 40 -35
c0 -6 -1 -13 -3 -19z" />
    <glyph glyph-name="Lslash" unicode="&#x141;" horiz-adv-x="538" 
d="M67 266c-8 -4 -17 -6 -23 -6c-19 0 -34 14 -34 36c0 14 7 25 24 34l50 25v282c0 30 18 48 44 48s45 -18 45 -48v-240l107 55c8 4 17 6 23 6c19 0 34 -14 34 -36c0 -14 -7 -25 -24 -34l-140 -72v-227c0 -4 2 -6 6 -6h295c27 0 44 -18 44 -41c0 -24 -17 -42 -44 -42h-347
c-27 0 -43 17 -43 44v230z" />
    <glyph glyph-name="Ldot" unicode="&#x13f;" horiz-adv-x="538" 
d="M84 44v593c0 30 18 48 44 48s45 -18 45 -48v-548c0 -4 2 -6 6 -6h295c27 0 44 -18 44 -41c0 -24 -17 -42 -44 -42h-347c-27 0 -43 17 -43 44zM398 269c-31 0 -57 26 -57 57s26 57 57 57s57 -26 57 -57s-26 -57 -57 -57z" />
    <glyph glyph-name="Nacute" unicode="&#x143;" horiz-adv-x="654" 
d="M84 40v591c0 33 18 54 49 54c26 0 43 -17 60 -46l290 -479h4v480c0 28 17 45 41 45c25 0 42 -17 42 -45v-591c0 -33 -18 -54 -49 -54c-26 0 -44 17 -61 46l-290 477h-3v-478c0 -28 -17 -45 -41 -45c-25 0 -42 17 -42 45zM298 812l69 78c7 8 15 13 27 13
c19 0 34 -14 34 -33c0 -10 -4 -19 -10 -26l-69 -76c-9 -10 -18 -15 -30 -15c-17 0 -32 14 -32 32c0 10 4 19 11 27z" />
    <glyph glyph-name="Ncaron" unicode="&#x147;" horiz-adv-x="654" 
d="M84 40v591c0 33 18 54 49 54c26 0 43 -17 60 -46l290 -479h4v480c0 28 17 45 41 45c25 0 42 -17 42 -45v-591c0 -33 -18 -54 -49 -54c-26 0 -44 17 -61 46l-290 477h-3v-478c0 -28 -17 -45 -41 -45c-25 0 -42 17 -42 45zM328 814l69 78c8 9 16 13 25 13
c15 0 27 -11 27 -26c0 -7 -3 -14 -8 -20l-69 -87c-15 -18 -26 -27 -45 -27s-31 9 -45 27l-69 87c-5 6 -8 13 -8 20c0 15 12 26 27 26c9 0 17 -4 25 -13l69 -78h2z" />
    <glyph glyph-name="Ntilde" unicode="&#xd1;" horiz-adv-x="654" 
d="M84 40v591c0 33 18 54 49 54c26 0 43 -17 60 -46l290 -479h4v480c0 28 17 45 41 45c25 0 42 -17 42 -45v-591c0 -33 -18 -54 -49 -54c-26 0 -44 17 -61 46l-290 477h-3v-478c0 -28 -17 -45 -41 -45c-25 0 -42 17 -42 45zM276 809c-15 0 -24 -6 -37 -23
c-7 -8 -15 -13 -25 -13c-17 0 -29 11 -29 27c0 7 3 16 8 23c24 35 51 50 80 50c25 0 42 -8 64 -22c23 -15 34 -19 45 -19c15 0 24 6 37 23c7 8 15 13 25 13c17 0 29 -11 29 -27c0 -7 -3 -16 -8 -23c-24 -35 -51 -50 -80 -50c-25 0 -42 8 -64 22c-23 15 -34 19 -45 19z" />
    <glyph glyph-name="Ncommaaccent" unicode="&#x145;" horiz-adv-x="654" 
d="M84 40v591c0 33 18 54 49 54c26 0 43 -17 60 -46l290 -479h4v480c0 28 17 45 41 45c25 0 42 -17 42 -45v-591c0 -33 -18 -54 -49 -54c-26 0 -44 17 -61 46l-290 477h-3v-478c0 -28 -17 -45 -41 -45c-25 0 -42 17 -42 45zM348 -189c-6 -20 -19 -31 -36 -31
c-22 0 -39 15 -39 37c0 5 1 11 3 17l28 87c6 20 19 30 36 30c22 0 40 -13 40 -35c0 -6 -1 -13 -3 -19z" />
    <glyph glyph-name="Ograve" unicode="&#xd2;" horiz-adv-x="619" 
d="M309 -11c-117 0 -196 57 -230 161c-16 49 -19 93 -19 190s3 141 19 190c34 104 113 161 230 161c118 0 197 -57 231 -161c16 -49 19 -93 19 -190s-3 -141 -19 -190c-34 -104 -113 -161 -231 -161zM309 72c79 0 124 42 144 105c11 33 16 73 16 163s-5 130 -16 163
c-20 63 -65 105 -144 105c-78 0 -123 -42 -143 -105c-11 -33 -16 -73 -16 -163s5 -130 16 -163c20 -63 65 -105 143 -105zM264 890l69 -78c7 -8 11 -17 11 -27c0 -18 -15 -32 -32 -32c-12 0 -21 5 -30 15l-69 76c-6 7 -10 16 -10 26c0 19 15 33 34 33c12 0 20 -5 27 -13z
" />
    <glyph glyph-name="Oacute" unicode="&#xd3;" horiz-adv-x="619" 
d="M309 -11c-117 0 -196 57 -230 161c-16 49 -19 93 -19 190s3 141 19 190c34 104 113 161 230 161c118 0 197 -57 231 -161c16 -49 19 -93 19 -190s-3 -141 -19 -190c-34 -104 -113 -161 -231 -161zM309 72c79 0 124 42 144 105c11 33 16 73 16 163s-5 130 -16 163
c-20 63 -65 105 -144 105c-78 0 -123 -42 -143 -105c-11 -33 -16 -73 -16 -163s5 -130 16 -163c20 -63 65 -105 143 -105zM286 812l69 78c7 8 15 13 27 13c19 0 34 -14 34 -33c0 -10 -4 -19 -10 -26l-69 -76c-9 -10 -18 -15 -30 -15c-17 0 -32 14 -32 32c0 10 4 19 11 27z
" />
    <glyph glyph-name="Ocircumflex" unicode="&#xd4;" horiz-adv-x="619" 
d="M309 -11c-117 0 -196 57 -230 161c-16 49 -19 93 -19 190s3 141 19 190c34 104 113 161 230 161c118 0 197 -57 231 -161c16 -49 19 -93 19 -190s-3 -141 -19 -190c-34 -104 -113 -161 -231 -161zM309 72c79 0 124 42 144 105c11 33 16 73 16 163s-5 130 -16 163
c-20 63 -65 105 -144 105c-78 0 -123 -42 -143 -105c-11 -33 -16 -73 -16 -163s5 -130 16 -163c20 -63 65 -105 143 -105zM379 758l-69 78h-2l-69 -78c-8 -9 -16 -13 -25 -13c-15 0 -27 11 -27 26c0 7 3 14 8 20l69 87c14 18 26 27 45 27s30 -9 45 -27l69 -87
c5 -6 8 -13 8 -20c0 -15 -12 -26 -27 -26c-9 0 -17 4 -25 13z" />
    <glyph glyph-name="Otilde" unicode="&#xd5;" horiz-adv-x="619" 
d="M309 -11c-117 0 -196 57 -230 161c-16 49 -19 93 -19 190s3 141 19 190c34 104 113 161 230 161c118 0 197 -57 231 -161c16 -49 19 -93 19 -190s-3 -141 -19 -190c-34 -104 -113 -161 -231 -161zM309 72c79 0 124 42 144 105c11 33 16 73 16 163s-5 130 -16 163
c-20 63 -65 105 -144 105c-78 0 -123 -42 -143 -105c-11 -33 -16 -73 -16 -163s5 -130 16 -163c20 -63 65 -105 143 -105zM255 809c-15 0 -24 -6 -37 -23c-7 -8 -15 -13 -25 -13c-17 0 -29 11 -29 27c0 7 3 16 8 23c24 35 51 50 80 50c25 0 42 -8 64 -22
c23 -15 34 -19 45 -19c15 0 24 6 37 23c7 8 15 13 25 13c17 0 29 -11 29 -27c0 -7 -3 -16 -8 -23c-24 -35 -51 -50 -80 -50c-25 0 -42 8 -64 22c-23 15 -34 19 -45 19z" />
    <glyph glyph-name="Odieresis" unicode="&#xd6;" horiz-adv-x="619" 
d="M309 -11c-117 0 -196 57 -230 161c-16 49 -19 93 -19 190s3 141 19 190c34 104 113 161 230 161c118 0 197 -57 231 -161c16 -49 19 -93 19 -190s-3 -141 -19 -190c-34 -104 -113 -161 -231 -161zM309 72c79 0 124 42 144 105c11 33 16 73 16 163s-5 130 -16 163
c-20 63 -65 105 -144 105c-78 0 -123 -42 -143 -105c-11 -33 -16 -73 -16 -163s5 -130 16 -163c20 -63 65 -105 143 -105zM408 773c-27 0 -50 22 -50 49c0 28 23 51 50 51c28 0 50 -23 50 -51c0 -27 -22 -49 -50 -49zM209 773c-28 0 -50 22 -50 49c0 28 22 51 50 51
c27 0 50 -23 50 -51c0 -27 -23 -49 -50 -49z" />
    <glyph glyph-name="Omacron" unicode="&#x14c;" horiz-adv-x="619" 
d="M309 -11c-117 0 -196 57 -230 161c-16 49 -19 93 -19 190s3 141 19 190c34 104 113 161 230 161c118 0 197 -57 231 -161c16 -49 19 -93 19 -190s-3 -141 -19 -190c-34 -104 -113 -161 -231 -161zM309 72c79 0 124 42 144 105c11 33 16 73 16 163s-5 130 -16 163
c-20 63 -65 105 -144 105c-78 0 -123 -42 -143 -105c-11 -33 -16 -73 -16 -163s5 -130 16 -163c20 -63 65 -105 143 -105zM417 790h-218c-22 0 -35 14 -35 32c0 19 13 33 35 33h218c22 0 35 -14 35 -33c0 -18 -13 -32 -35 -32z" />
    <glyph glyph-name="Obreve" unicode="&#x14e;" horiz-adv-x="619" 
d="M309 -11c-117 0 -196 57 -230 161c-16 49 -19 93 -19 190s3 141 19 190c34 104 113 161 230 161c118 0 197 -57 231 -161c16 -49 19 -93 19 -190s-3 -141 -19 -190c-34 -104 -113 -161 -231 -161zM309 72c79 0 124 42 144 105c11 33 16 73 16 163s-5 130 -16 163
c-20 63 -65 105 -144 105c-78 0 -123 -42 -143 -105c-11 -33 -16 -73 -16 -163s5 -130 16 -163c20 -63 65 -105 143 -105zM308 761c-79 0 -131 53 -131 104c0 15 9 26 25 26c15 0 22 -9 29 -24c14 -30 41 -46 77 -46s63 16 77 46c7 15 14 24 29 24c16 0 25 -11 25 -26
c0 -51 -52 -104 -131 -104z" />
    <glyph glyph-name="Ohungarumlaut" unicode="&#x150;" horiz-adv-x="619" 
d="M309 -11c-117 0 -196 57 -230 161c-16 49 -19 93 -19 190s3 141 19 190c34 104 113 161 230 161c118 0 197 -57 231 -161c16 -49 19 -93 19 -190s-3 -141 -19 -190c-34 -104 -113 -161 -231 -161zM309 72c79 0 124 42 144 105c11 33 16 73 16 163s-5 130 -16 163
c-20 63 -65 105 -144 105c-78 0 -123 -42 -143 -105c-11 -33 -16 -73 -16 -163s5 -130 16 -163c20 -63 65 -105 143 -105zM415 771c-8 -11 -18 -17 -29 -17c-17 0 -33 12 -33 31c0 8 3 17 8 25l50 74c8 11 18 17 30 17c18 0 34 -13 34 -32c0 -8 -3 -17 -9 -25zM273 771
c-8 -11 -18 -17 -29 -17c-17 0 -33 12 -33 31c0 8 3 17 8 25l50 74c8 11 19 17 30 17c18 0 34 -13 34 -32c0 -8 -3 -17 -9 -25z" />
    <glyph glyph-name="Oslash" unicode="&#xd8;" horiz-adv-x="619" 
d="M128 -18c-6 -10 -14 -17 -25 -17c-14 0 -27 10 -27 26c0 5 2 11 6 18l37 63c-17 22 -30 48 -40 78c-16 49 -19 93 -19 190s3 141 19 190c34 104 113 161 230 161c60 0 110 -15 149 -43l29 51c6 10 14 16 25 16c15 0 27 -9 27 -25c0 -5 -2 -12 -6 -18l-36 -62
c18 -22 33 -49 43 -80c16 -49 19 -93 19 -190s-3 -141 -19 -190c-34 -104 -113 -161 -231 -161c-61 0 -111 15 -151 44zM150 340c0 -96 5 -136 22 -180l239 412c-24 23 -58 36 -102 36c-78 0 -123 -42 -143 -105c-11 -33 -16 -73 -16 -163zM309 72c79 0 124 42 144 105
c11 33 16 73 16 163c0 102 -5 141 -24 183l-240 -413c24 -24 59 -38 104 -38z" />
    <glyph glyph-name="Oslashacute" unicode="&#x1fe;" horiz-adv-x="619" 
d="M128 -18c-6 -10 -14 -17 -25 -17c-14 0 -27 10 -27 26c0 5 2 11 6 18l37 63c-17 22 -30 48 -40 78c-16 49 -19 93 -19 190s3 141 19 190c34 104 113 161 230 161c60 0 110 -15 149 -43l29 51c6 10 14 16 25 16c15 0 27 -9 27 -25c0 -5 -2 -12 -6 -18l-36 -62
c18 -22 33 -49 43 -80c16 -49 19 -93 19 -190s-3 -141 -19 -190c-34 -104 -113 -161 -231 -161c-61 0 -111 15 -151 44zM150 340c0 -96 5 -136 22 -180l239 412c-24 23 -58 36 -102 36c-78 0 -123 -42 -143 -105c-11 -33 -16 -73 -16 -163zM309 72c79 0 124 42 144 105
c11 33 16 73 16 163c0 102 -5 141 -24 183l-240 -413c24 -24 59 -38 104 -38zM286 812l69 78c7 8 15 13 27 13c19 0 34 -14 34 -33c0 -10 -4 -19 -10 -26l-69 -76c-9 -10 -18 -15 -30 -15c-17 0 -32 14 -32 32c0 10 4 19 11 27z" />
    <glyph glyph-name="OE" unicode="&#x152;" horiz-adv-x="948" 
d="M309 691c76 0 128 -28 158 -83h2v32c0 24 15 40 40 40h350c27 0 44 -18 44 -41c0 -24 -17 -42 -44 -42h-295c-4 0 -6 -2 -6 -6v-200c0 -4 2 -6 6 -6h246c27 0 44 -18 44 -41c0 -24 -17 -42 -44 -42h-246c-4 0 -6 -2 -6 -6v-207c0 -4 2 -6 6 -6h295c27 0 44 -18 44 -41
c0 -24 -17 -42 -44 -42h-350c-25 0 -40 16 -40 40v32h-2c-30 -55 -82 -83 -158 -83c-117 0 -196 57 -230 161c-16 49 -19 93 -19 190s3 141 19 190c34 104 113 161 230 161zM309 72c79 0 124 42 144 105c11 33 16 73 16 163s-5 130 -16 163c-20 63 -65 105 -144 105
c-78 0 -123 -42 -143 -105c-11 -33 -16 -73 -16 -163s5 -130 16 -163c20 -63 65 -105 143 -105z" />
    <glyph glyph-name="Racute" unicode="&#x154;" horiz-adv-x="617" 
d="M129 -5c-27 0 -45 18 -45 48v597c0 24 15 40 40 40h213c132 0 215 -77 215 -196c0 -91 -48 -157 -129 -183l122 -240c4 -8 6 -15 6 -24c0 -22 -16 -42 -43 -42c-18 0 -32 9 -43 28l-134 265h-152c-4 0 -6 -2 -6 -6v-239c0 -30 -18 -48 -44 -48zM338 371
c79 0 126 42 126 113s-47 113 -126 113h-159c-4 0 -6 -2 -6 -6v-214c0 -4 2 -6 6 -6h159zM265 812l69 78c7 8 15 13 27 13c19 0 34 -14 34 -33c0 -10 -4 -19 -10 -26l-69 -76c-9 -10 -18 -15 -30 -15c-17 0 -32 14 -32 32c0 10 4 19 11 27z" />
    <glyph glyph-name="Rcaron" unicode="&#x158;" horiz-adv-x="617" 
d="M129 -5c-27 0 -45 18 -45 48v597c0 24 15 40 40 40h213c132 0 215 -77 215 -196c0 -91 -48 -157 -129 -183l122 -240c4 -8 6 -15 6 -24c0 -22 -16 -42 -43 -42c-18 0 -32 9 -43 28l-134 265h-152c-4 0 -6 -2 -6 -6v-239c0 -30 -18 -48 -44 -48zM338 371
c79 0 126 42 126 113s-47 113 -126 113h-159c-4 0 -6 -2 -6 -6v-214c0 -4 2 -6 6 -6h159zM288 814l69 78c8 9 16 13 25 13c15 0 27 -11 27 -26c0 -7 -3 -14 -8 -20l-69 -87c-15 -18 -26 -27 -45 -27s-31 9 -45 27l-69 87c-5 6 -8 13 -8 20c0 15 12 26 27 26
c9 0 17 -4 25 -13l69 -78h2z" />
    <glyph glyph-name="Rcommaaccent" unicode="&#x156;" horiz-adv-x="617" 
d="M129 -5c-27 0 -45 18 -45 48v597c0 24 15 40 40 40h213c132 0 215 -77 215 -196c0 -91 -48 -157 -129 -183l122 -240c4 -8 6 -15 6 -24c0 -22 -16 -42 -43 -42c-18 0 -32 9 -43 28l-134 265h-152c-4 0 -6 -2 -6 -6v-239c0 -30 -18 -48 -44 -48zM338 371
c79 0 126 42 126 113s-47 113 -126 113h-159c-4 0 -6 -2 -6 -6v-214c0 -4 2 -6 6 -6h159zM317 -189c-6 -20 -19 -31 -36 -31c-22 0 -39 15 -39 37c0 5 1 11 3 17l28 87c6 20 19 30 36 30c22 0 40 -13 40 -35c0 -6 -1 -13 -3 -19z" />
    <glyph glyph-name="Sacute" unicode="&#x15a;" horiz-adv-x="591" 
d="M289 -11c-88 0 -163 31 -211 64c-14 10 -22 23 -22 39c0 22 17 42 43 42c10 0 20 -4 28 -9c49 -31 104 -53 169 -53c96 0 152 46 152 116c0 58 -32 94 -142 111l-33 5c-137 21 -201 82 -201 189c0 121 86 198 222 198c73 0 139 -21 180 -46c17 -11 24 -24 24 -39
c0 -22 -17 -40 -40 -40c-9 0 -20 4 -29 8c-43 19 -88 34 -138 34c-86 0 -129 -47 -129 -110c0 -57 35 -93 141 -109l33 -5c137 -21 202 -82 202 -191c0 -118 -84 -204 -249 -204zM275 812l69 78c7 8 15 13 27 13c19 0 34 -14 34 -33c0 -10 -4 -19 -10 -26l-69 -76
c-9 -10 -18 -15 -30 -15c-17 0 -32 14 -32 32c0 10 4 19 11 27z" />
    <glyph glyph-name="Scircumflex" unicode="&#x15c;" horiz-adv-x="591" 
d="M289 -11c-88 0 -163 31 -211 64c-14 10 -22 23 -22 39c0 22 17 42 43 42c10 0 20 -4 28 -9c49 -31 104 -53 169 -53c96 0 152 46 152 116c0 58 -32 94 -142 111l-33 5c-137 21 -201 82 -201 189c0 121 86 198 222 198c73 0 139 -21 180 -46c17 -11 24 -24 24 -39
c0 -22 -17 -40 -40 -40c-9 0 -20 4 -29 8c-43 19 -88 34 -138 34c-86 0 -129 -47 -129 -110c0 -57 35 -93 141 -109l33 -5c137 -21 202 -82 202 -191c0 -118 -84 -204 -249 -204zM368 758l-69 78h-2l-69 -78c-8 -9 -16 -13 -25 -13c-15 0 -27 11 -27 26c0 7 3 14 8 20l69 87
c14 18 26 27 45 27s30 -9 45 -27l69 -87c5 -6 8 -13 8 -20c0 -15 -12 -26 -27 -26c-9 0 -17 4 -25 13z" />
    <glyph glyph-name="Scaron" unicode="&#x160;" horiz-adv-x="591" 
d="M289 -11c-88 0 -163 31 -211 64c-14 10 -22 23 -22 39c0 22 17 42 43 42c10 0 20 -4 28 -9c49 -31 104 -53 169 -53c96 0 152 46 152 116c0 58 -32 94 -142 111l-33 5c-137 21 -201 82 -201 189c0 121 86 198 222 198c73 0 139 -21 180 -46c17 -11 24 -24 24 -39
c0 -22 -17 -40 -40 -40c-9 0 -20 4 -29 8c-43 19 -88 34 -138 34c-86 0 -129 -47 -129 -110c0 -57 35 -93 141 -109l33 -5c137 -21 202 -82 202 -191c0 -118 -84 -204 -249 -204zM298 814l69 78c8 9 16 13 25 13c15 0 27 -11 27 -26c0 -7 -3 -14 -8 -20l-69 -87
c-15 -18 -26 -27 -45 -27s-31 9 -45 27l-69 87c-5 6 -8 13 -8 20c0 15 12 26 27 26c9 0 17 -4 25 -13l69 -78h2z" />
    <glyph glyph-name="Scedilla" unicode="&#x15e;" horiz-adv-x="591" 
d="M292 -136c-6 -18 -18 -26 -34 -26c-20 0 -35 12 -35 33c0 5 2 13 4 19l37 100c-75 5 -142 32 -186 63c-14 10 -22 23 -22 39c0 22 17 42 43 42c10 0 20 -4 28 -9c49 -31 104 -53 169 -53c96 0 152 46 152 116c0 58 -32 94 -142 111l-33 5c-137 21 -201 82 -201 189
c0 121 86 198 222 198c73 0 139 -21 180 -46c17 -11 24 -24 24 -39c0 -22 -17 -40 -40 -40c-9 0 -20 4 -29 8c-43 19 -88 34 -138 34c-86 0 -129 -47 -129 -110c0 -57 35 -93 141 -109l33 -5c137 -21 202 -82 202 -191c0 -104 -65 -185 -202 -201z" />
    <glyph glyph-name="Scommaaccent" unicode="&#x218;" horiz-adv-x="591" 
d="M289 -11c-88 0 -163 31 -211 64c-14 10 -22 23 -22 39c0 22 17 42 43 42c10 0 20 -4 28 -9c49 -31 104 -53 169 -53c96 0 152 46 152 116c0 58 -32 94 -142 111l-33 5c-137 21 -201 82 -201 189c0 121 86 198 222 198c73 0 139 -21 180 -46c17 -11 24 -24 24 -39
c0 -22 -17 -40 -40 -40c-9 0 -20 4 -29 8c-43 19 -88 34 -138 34c-86 0 -129 -47 -129 -110c0 -57 35 -93 141 -109l33 -5c137 -21 202 -82 202 -191c0 -118 -84 -204 -249 -204zM312 -189c-6 -20 -19 -31 -36 -31c-22 0 -39 15 -39 37c0 5 1 11 3 17l28 87
c6 20 19 30 36 30c22 0 40 -13 40 -35c0 -6 -1 -13 -3 -19z" />
    <glyph glyph-name="Tcaron" unicode="&#x164;" horiz-adv-x="537" 
d="M61 680h415c27 0 44 -18 44 -42c0 -23 -17 -41 -44 -41h-157c-4 0 -6 -2 -6 -6v-548c0 -30 -18 -48 -44 -48c-27 0 -45 18 -45 48v548c0 4 -2 6 -6 6h-157c-27 0 -44 18 -44 41c0 24 17 42 44 42zM268 814l69 78c8 9 16 13 25 13c15 0 27 -11 27 -26c0 -7 -3 -14 -8 -20
l-69 -87c-15 -18 -26 -27 -45 -27s-31 9 -45 27l-69 87c-5 6 -8 13 -8 20c0 15 12 26 27 26c9 0 17 -4 25 -13l69 -78h2z" />
    <glyph glyph-name="Tcommaaccent" unicode="&#x162;" horiz-adv-x="537" 
d="M61 680h415c27 0 44 -18 44 -42c0 -23 -17 -41 -44 -41h-157c-4 0 -6 -2 -6 -6v-548c0 -30 -18 -48 -44 -48c-27 0 -45 18 -45 48v548c0 4 -2 6 -6 6h-157c-27 0 -44 18 -44 41c0 24 17 42 44 42zM273 -189c-6 -20 -19 -31 -36 -31c-22 0 -39 15 -39 37c0 5 1 11 3 17
l28 87c6 20 19 30 36 30c22 0 40 -13 40 -35c0 -6 -1 -13 -3 -19z" />
    <glyph glyph-name="uni021A" unicode="&#x21a;" horiz-adv-x="537" 
d="M61 680h415c27 0 44 -18 44 -42c0 -23 -17 -41 -44 -41h-157c-4 0 -6 -2 -6 -6v-548c0 -30 -18 -48 -44 -48c-27 0 -45 18 -45 48v548c0 4 -2 6 -6 6h-157c-27 0 -44 18 -44 41c0 24 17 42 44 42zM273 -189c-6 -20 -19 -31 -36 -31c-22 0 -39 15 -39 37c0 5 1 11 3 17
l28 87c6 20 19 30 36 30c22 0 40 -13 40 -35c0 -6 -1 -13 -3 -19z" />
    <glyph glyph-name="Tbar" unicode="&#x166;" horiz-adv-x="537" 
d="M268 -5c-25 0 -44 18 -44 48v314c0 4 -2 6 -6 6h-75c-26 0 -42 16 -42 39c0 24 16 40 42 40h75c4 0 6 3 6 7v142c0 4 -2 6 -6 6h-157c-27 0 -44 18 -44 41c0 24 17 42 44 42h415c27 0 44 -18 44 -42c0 -23 -17 -41 -44 -41h-157c-4 0 -6 -2 -6 -6v-142c0 -4 2 -7 6 -7h75
c26 0 42 -16 42 -40c0 -23 -16 -39 -42 -39h-75c-4 0 -6 -2 -6 -6v-314c0 -30 -19 -48 -45 -48z" />
    <glyph glyph-name="Thorn" unicode="&#xde;" horiz-adv-x="592" 
d="M129 -5c-27 0 -45 18 -45 48v594c0 30 18 48 45 48c26 0 44 -18 44 -48v-77c0 -4 2 -6 6 -6h155c136 0 218 -82 218 -203s-82 -203 -218 -203h-155c-4 0 -6 -2 -6 -6v-99c0 -30 -18 -48 -44 -48zM331 231c84 0 133 46 133 120s-49 120 -133 120h-152c-4 0 -6 -2 -6 -6
v-228c0 -4 2 -6 6 -6h152z" />
    <glyph glyph-name="Ugrave" unicode="&#xd9;" horiz-adv-x="639" 
d="M471 238v399c0 30 18 48 45 48c26 0 44 -18 44 -48v-399c0 -166 -95 -249 -241 -249c-144 0 -240 83 -240 249v399c0 30 18 48 45 48c26 0 44 -18 44 -48v-399c0 -110 61 -166 152 -166c90 0 151 56 151 166zM269 890l69 -78c7 -8 11 -17 11 -27c0 -18 -15 -32 -32 -32
c-12 0 -21 5 -30 15l-69 76c-6 7 -10 16 -10 26c0 19 15 33 34 33c12 0 20 -5 27 -13z" />
    <glyph glyph-name="Uacute" unicode="&#xda;" horiz-adv-x="639" 
d="M471 238v399c0 30 18 48 45 48c26 0 44 -18 44 -48v-399c0 -166 -95 -249 -241 -249c-144 0 -240 83 -240 249v399c0 30 18 48 45 48c26 0 44 -18 44 -48v-399c0 -110 61 -166 152 -166c90 0 151 56 151 166zM299 812l69 78c7 8 15 13 27 13c19 0 34 -14 34 -33
c0 -10 -4 -19 -10 -26l-69 -76c-9 -10 -18 -15 -30 -15c-17 0 -32 14 -32 32c0 10 4 19 11 27z" />
    <glyph glyph-name="Ucircumflex" unicode="&#xdb;" horiz-adv-x="639" 
d="M471 238v399c0 30 18 48 45 48c26 0 44 -18 44 -48v-399c0 -166 -95 -249 -241 -249c-144 0 -240 83 -240 249v399c0 30 18 48 45 48c26 0 44 -18 44 -48v-399c0 -110 61 -166 152 -166c90 0 151 56 151 166zM389 758l-69 78h-2l-69 -78c-8 -9 -16 -13 -25 -13
c-15 0 -27 11 -27 26c0 7 3 14 8 20l69 87c14 18 26 27 45 27s30 -9 45 -27l69 -87c5 -6 8 -13 8 -20c0 -15 -12 -26 -27 -26c-9 0 -17 4 -25 13z" />
    <glyph glyph-name="Utilde" unicode="&#x168;" horiz-adv-x="639" 
d="M471 238v399c0 30 18 48 45 48c26 0 44 -18 44 -48v-399c0 -166 -95 -249 -241 -249c-144 0 -240 83 -240 249v399c0 30 18 48 45 48c26 0 44 -18 44 -48v-399c0 -110 61 -166 152 -166c90 0 151 56 151 166zM266 809c-15 0 -24 -6 -37 -23c-7 -8 -15 -13 -25 -13
c-17 0 -29 11 -29 27c0 7 3 16 8 23c24 35 51 50 80 50c25 0 42 -8 64 -22c23 -15 34 -19 45 -19c15 0 24 6 37 23c7 8 15 13 25 13c17 0 29 -11 29 -27c0 -7 -3 -16 -8 -23c-24 -35 -51 -50 -80 -50c-25 0 -42 8 -64 22c-23 15 -34 19 -45 19z" />
    <glyph glyph-name="Udieresis" unicode="&#xdc;" horiz-adv-x="639" 
d="M471 238v399c0 30 18 48 45 48c26 0 44 -18 44 -48v-399c0 -166 -95 -249 -241 -249c-144 0 -240 83 -240 249v399c0 30 18 48 45 48c26 0 44 -18 44 -48v-399c0 -110 61 -166 152 -166c90 0 151 56 151 166zM419 773c-27 0 -50 22 -50 49c0 28 23 51 50 51
c28 0 50 -23 50 -51c0 -27 -22 -49 -50 -49zM220 773c-28 0 -50 22 -50 49c0 28 22 51 50 51c27 0 50 -23 50 -51c0 -27 -23 -49 -50 -49z" />
    <glyph glyph-name="Umacron" unicode="&#x16a;" horiz-adv-x="639" 
d="M471 238v399c0 30 18 48 45 48c26 0 44 -18 44 -48v-399c0 -166 -95 -249 -241 -249c-144 0 -240 83 -240 249v399c0 30 18 48 45 48c26 0 44 -18 44 -48v-399c0 -110 61 -166 152 -166c90 0 151 56 151 166zM428 790h-218c-22 0 -35 14 -35 32c0 19 13 33 35 33h218
c22 0 35 -14 35 -33c0 -18 -13 -32 -35 -32z" />
    <glyph glyph-name="Ubreve" unicode="&#x16c;" horiz-adv-x="639" 
d="M471 238v399c0 30 18 48 45 48c26 0 44 -18 44 -48v-399c0 -166 -95 -249 -241 -249c-144 0 -240 83 -240 249v399c0 30 18 48 45 48c26 0 44 -18 44 -48v-399c0 -110 61 -166 152 -166c90 0 151 56 151 166zM319 761c-79 0 -131 53 -131 104c0 15 9 26 25 26
c15 0 22 -9 29 -24c14 -30 41 -46 77 -46s63 16 77 46c7 15 14 24 29 24c16 0 25 -11 25 -26c0 -51 -52 -104 -131 -104z" />
    <glyph glyph-name="Uring" unicode="&#x16e;" horiz-adv-x="639" 
d="M471 238v399c0 30 18 48 45 48c26 0 44 -18 44 -48v-399c0 -166 -95 -249 -241 -249c-144 0 -240 83 -240 249v399c0 30 18 48 45 48c26 0 44 -18 44 -48v-399c0 -110 61 -166 152 -166c90 0 151 56 151 166zM319 728c-53 0 -95 41 -95 95s42 95 95 95s95 -41 95 -95
s-42 -95 -95 -95zM319 770c29 0 51 23 51 53s-22 53 -51 53s-51 -23 -51 -53s22 -53 51 -53z" />
    <glyph glyph-name="Uhungarumlaut" unicode="&#x170;" horiz-adv-x="639" 
d="M471 238v399c0 30 18 48 45 48c26 0 44 -18 44 -48v-399c0 -166 -95 -249 -241 -249c-144 0 -240 83 -240 249v399c0 30 18 48 45 48c26 0 44 -18 44 -48v-399c0 -110 61 -166 152 -166c90 0 151 56 151 166zM427 771c-8 -11 -18 -17 -29 -17c-17 0 -33 12 -33 31
c0 8 3 17 8 25l50 74c8 11 18 17 30 17c18 0 34 -13 34 -32c0 -8 -3 -17 -9 -25zM285 771c-8 -11 -18 -17 -29 -17c-17 0 -33 12 -33 31c0 8 3 17 8 25l50 74c8 11 19 17 30 17c18 0 34 -13 34 -32c0 -8 -3 -17 -9 -25z" />
    <glyph glyph-name="Uogonek" unicode="&#x172;" horiz-adv-x="639" 
d="M330 -179c-50 0 -83 29 -83 77c0 30 10 55 40 93c-126 11 -208 93 -208 247v399c0 30 18 48 45 48c26 0 44 -18 44 -48v-399c0 -110 61 -166 152 -166c90 0 151 56 151 166v399c0 30 18 48 45 48c26 0 44 -18 44 -48v-399c0 -147 -74 -228 -192 -245
c-43 -44 -50 -67 -50 -83s9 -24 24 -24c6 0 11 1 18 4c6 2 11 3 16 3c16 0 27 -13 27 -29c0 -11 -4 -21 -16 -28c-14 -9 -36 -15 -57 -15z" />
    <glyph glyph-name="Wacute" unicode="&#x1e82;" horiz-adv-x="822" 
d="M595 -5c-24 0 -38 14 -48 48l-134 474h-2l-136 -474c-10 -34 -24 -48 -48 -48s-39 14 -48 48l-148 579c-2 8 -3 16 -3 21c0 23 16 42 43 42c21 0 37 -12 43 -38l117 -482h2l133 477c8 29 23 43 46 43s37 -14 45 -43l136 -478h2l113 483c6 26 22 38 43 38
c27 0 43 -19 43 -42c0 -5 -1 -13 -3 -21l-148 -579c-9 -34 -24 -48 -48 -48zM408 812l69 78c7 8 15 13 27 13c19 0 34 -14 34 -33c0 -10 -4 -19 -10 -26l-69 -76c-9 -10 -18 -15 -30 -15c-17 0 -32 14 -32 32c0 10 4 19 11 27z" />
    <glyph glyph-name="Wcircumflex" unicode="&#x174;" horiz-adv-x="822" 
d="M595 -5c-24 0 -38 14 -48 48l-134 474h-2l-136 -474c-10 -34 -24 -48 -48 -48s-39 14 -48 48l-148 579c-2 8 -3 16 -3 21c0 23 16 42 43 42c21 0 37 -12 43 -38l117 -482h2l133 477c8 29 23 43 46 43s37 -14 45 -43l136 -478h2l113 483c6 26 22 38 43 38
c27 0 43 -19 43 -42c0 -5 -1 -13 -3 -21l-148 -579c-9 -34 -24 -48 -48 -48zM481 758l-69 78h-2l-69 -78c-8 -9 -16 -13 -25 -13c-15 0 -27 11 -27 26c0 7 3 14 8 20l69 87c14 18 26 27 45 27s30 -9 45 -27l69 -87c5 -6 8 -13 8 -20c0 -15 -12 -26 -27 -26
c-9 0 -17 4 -25 13z" />
    <glyph glyph-name="Wdieresis" unicode="&#x1e84;" horiz-adv-x="822" 
d="M595 -5c-24 0 -38 14 -48 48l-134 474h-2l-136 -474c-10 -34 -24 -48 -48 -48s-39 14 -48 48l-148 579c-2 8 -3 16 -3 21c0 23 16 42 43 42c21 0 37 -12 43 -38l117 -482h2l133 477c8 29 23 43 46 43s37 -14 45 -43l136 -478h2l113 483c6 26 22 38 43 38
c27 0 43 -19 43 -42c0 -5 -1 -13 -3 -21l-148 -579c-9 -34 -24 -48 -48 -48zM511 773c-27 0 -50 22 -50 49c0 28 23 51 50 51c28 0 50 -23 50 -51c0 -27 -22 -49 -50 -49zM312 773c-28 0 -50 22 -50 49c0 28 22 51 50 51c27 0 50 -23 50 -51c0 -27 -23 -49 -50 -49z" />
    <glyph glyph-name="Wgrave" unicode="&#x1e80;" horiz-adv-x="822" 
d="M595 -5c-24 0 -38 14 -48 48l-134 474h-2l-136 -474c-10 -34 -24 -48 -48 -48s-39 14 -48 48l-148 579c-2 8 -3 16 -3 21c0 23 16 42 43 42c21 0 37 -12 43 -38l117 -482h2l133 477c8 29 23 43 46 43s37 -14 45 -43l136 -478h2l113 483c6 26 22 38 43 38
c27 0 43 -19 43 -42c0 -5 -1 -13 -3 -21l-148 -579c-9 -34 -24 -48 -48 -48zM352 890l69 -78c7 -8 11 -17 11 -27c0 -18 -15 -32 -32 -32c-12 0 -21 5 -30 15l-69 76c-6 7 -10 16 -10 26c0 19 15 33 34 33c12 0 20 -5 27 -13z" />
    <glyph glyph-name="Yacute" unicode="&#xdd;" horiz-adv-x="526" 
d="M493 619l-186 -343v-233c0 -30 -18 -48 -44 -48c-25 0 -44 18 -44 48v233l-186 343c-4 8 -7 18 -7 26c0 22 18 40 42 40c18 0 30 -9 39 -26l156 -290h3l154 290c9 17 21 26 39 26c24 0 41 -18 41 -40c0 -8 -3 -18 -7 -26zM251 812l69 78c7 8 15 13 27 13
c19 0 34 -14 34 -33c0 -10 -4 -19 -10 -26l-69 -76c-9 -10 -18 -15 -30 -15c-17 0 -32 14 -32 32c0 10 4 19 11 27z" />
    <glyph glyph-name="Ycircumflex" unicode="&#x176;" horiz-adv-x="526" 
d="M493 619l-186 -343v-233c0 -30 -18 -48 -44 -48c-25 0 -44 18 -44 48v233l-186 343c-4 8 -7 18 -7 26c0 22 18 40 42 40c18 0 30 -9 39 -26l156 -290h3l154 290c9 17 21 26 39 26c24 0 41 -18 41 -40c0 -8 -3 -18 -7 -26zM333 758l-69 78h-2l-69 -78
c-8 -9 -16 -13 -25 -13c-15 0 -27 11 -27 26c0 7 3 14 8 20l69 87c14 18 26 27 45 27s30 -9 45 -27l69 -87c5 -6 8 -13 8 -20c0 -15 -12 -26 -27 -26c-9 0 -17 4 -25 13z" />
    <glyph glyph-name="Ydieresis" unicode="&#x178;" horiz-adv-x="526" 
d="M493 619l-186 -343v-233c0 -30 -18 -48 -44 -48c-25 0 -44 18 -44 48v233l-186 343c-4 8 -7 18 -7 26c0 22 18 40 42 40c18 0 30 -9 39 -26l156 -290h3l154 290c9 17 21 26 39 26c24 0 41 -18 41 -40c0 -8 -3 -18 -7 -26zM363 773c-27 0 -50 22 -50 49c0 28 23 51 50 51
c28 0 50 -23 50 -51c0 -27 -22 -49 -50 -49zM164 773c-28 0 -50 22 -50 49c0 28 22 51 50 51c27 0 50 -23 50 -51c0 -27 -23 -49 -50 -49z" />
    <glyph glyph-name="Ygrave" unicode="&#x1ef2;" horiz-adv-x="526" 
d="M493 619l-186 -343v-233c0 -30 -18 -48 -44 -48c-25 0 -44 18 -44 48v233l-186 343c-4 8 -7 18 -7 26c0 22 18 40 42 40c18 0 30 -9 39 -26l156 -290h3l154 290c9 17 21 26 39 26c24 0 41 -18 41 -40c0 -8 -3 -18 -7 -26zM206 890l69 -78c7 -8 11 -17 11 -27
c0 -18 -15 -32 -32 -32c-12 0 -21 5 -30 15l-69 76c-6 7 -10 16 -10 26c0 19 15 33 34 33c12 0 20 -5 27 -13z" />
    <glyph glyph-name="Zacute" unicode="&#x179;" horiz-adv-x="536" 
d="M451 0h-363c-29 0 -47 17 -47 42c0 19 7 34 26 63l318 491v1h-287c-27 0 -44 18 -44 41c0 24 17 42 44 42h350c29 0 47 -18 47 -43c0 -17 -5 -30 -24 -60l-320 -493v-1h300c27 0 44 -18 44 -41c0 -24 -17 -42 -44 -42zM242 812l69 78c7 8 15 13 27 13c19 0 34 -14 34 -33
c0 -10 -4 -19 -10 -26l-69 -76c-9 -10 -18 -15 -30 -15c-17 0 -32 14 -32 32c0 10 4 19 11 27z" />
    <glyph glyph-name="Zcaron" unicode="&#x17d;" horiz-adv-x="536" 
d="M451 0h-363c-29 0 -47 17 -47 42c0 19 7 34 26 63l318 491v1h-287c-27 0 -44 18 -44 41c0 24 17 42 44 42h350c29 0 47 -18 47 -43c0 -17 -5 -30 -24 -60l-320 -493v-1h300c27 0 44 -18 44 -41c0 -24 -17 -42 -44 -42zM268 814l69 78c8 9 16 13 25 13c15 0 27 -11 27 -26
c0 -7 -3 -14 -8 -20l-69 -87c-15 -18 -26 -27 -45 -27s-31 9 -45 27l-69 87c-5 6 -8 13 -8 20c0 15 12 26 27 26c9 0 17 -4 25 -13l69 -78h2z" />
    <glyph glyph-name="Zdotaccent" unicode="&#x17b;" horiz-adv-x="536" 
d="M451 0h-363c-29 0 -47 17 -47 42c0 19 7 34 26 63l318 491v1h-287c-27 0 -44 18 -44 41c0 24 17 42 44 42h350c29 0 47 -18 47 -43c0 -17 -5 -30 -24 -60l-320 -493v-1h300c27 0 44 -18 44 -41c0 -24 -17 -42 -44 -42zM267 766c-31 0 -55 24 -55 55c0 30 24 55 55 55
c30 0 55 -25 55 -55c0 -31 -25 -55 -55 -55z" />
    <glyph glyph-name="agrave" unicode="&#xe0;" horiz-adv-x="520" 
d="M467 59c4 -7 7 -16 7 -24c0 -23 -18 -40 -43 -40c-15 0 -27 7 -37 21l-19 30h-1c-32 -36 -77 -57 -147 -57c-107 0 -169 53 -169 144c0 99 68 148 187 148h109c4 0 6 2 6 6v23c0 67 -31 105 -115 105c-37 0 -75 -12 -98 -24c-8 -4 -17 -7 -24 -7c-22 0 -36 14 -36 36
c0 13 6 26 20 34c30 20 80 36 146 36c128 0 188 -61 188 -179v-172c0 -25 2 -35 9 -49zM239 61c74 0 121 35 121 94v53c0 4 -2 6 -6 6h-96c-82 0 -119 -24 -119 -78c0 -50 36 -75 100 -75zM275 549c-10 0 -20 5 -28 16l-58 86c-5 8 -8 16 -8 25c0 18 15 32 34 32
c13 0 23 -6 30 -17l56 -86c5 -9 7 -16 7 -24c0 -19 -13 -32 -33 -32z" />
    <glyph glyph-name="aacute" unicode="&#xe1;" horiz-adv-x="520" 
d="M467 59c4 -7 7 -16 7 -24c0 -23 -18 -40 -43 -40c-15 0 -27 7 -37 21l-19 30h-1c-32 -36 -77 -57 -147 -57c-107 0 -169 53 -169 144c0 99 68 148 187 148h109c4 0 6 2 6 6v23c0 67 -31 105 -115 105c-37 0 -75 -12 -98 -24c-8 -4 -17 -7 -24 -7c-22 0 -36 14 -36 36
c0 13 6 26 20 34c30 20 80 36 146 36c128 0 188 -61 188 -179v-172c0 -25 2 -35 9 -49zM239 61c74 0 121 35 121 94v53c0 4 -2 6 -6 6h-96c-82 0 -119 -24 -119 -78c0 -50 36 -75 100 -75zM264 549c-20 0 -33 13 -33 32c0 8 2 15 7 24l56 86c7 11 17 17 30 17
c19 0 34 -14 34 -32c0 -9 -3 -17 -8 -25l-58 -86c-8 -11 -18 -16 -28 -16z" />
    <glyph glyph-name="acircumflex" unicode="&#xe2;" horiz-adv-x="520" 
d="M467 59c4 -7 7 -16 7 -24c0 -23 -18 -40 -43 -40c-15 0 -27 7 -37 21l-19 30h-1c-32 -36 -77 -57 -147 -57c-107 0 -169 53 -169 144c0 99 68 148 187 148h109c4 0 6 2 6 6v23c0 67 -31 105 -115 105c-37 0 -75 -12 -98 -24c-8 -4 -17 -7 -24 -7c-22 0 -36 14 -36 36
c0 13 6 26 20 34c30 20 80 36 146 36c128 0 188 -61 188 -179v-172c0 -25 2 -35 9 -49zM239 61c74 0 121 35 121 94v53c0 4 -2 6 -6 6h-96c-82 0 -119 -24 -119 -78c0 -50 36 -75 100 -75zM329 561l-69 78h-2l-69 -78c-8 -9 -16 -13 -25 -13c-15 0 -27 11 -27 26
c0 7 3 14 8 20l69 87c14 18 26 27 45 27s30 -9 45 -27l69 -87c5 -6 8 -13 8 -20c0 -15 -12 -26 -27 -26c-9 0 -17 4 -25 13z" />
    <glyph glyph-name="atilde" unicode="&#xe3;" horiz-adv-x="520" 
d="M467 59c4 -7 7 -16 7 -24c0 -23 -18 -40 -43 -40c-15 0 -27 7 -37 21l-19 30h-1c-32 -36 -77 -57 -147 -57c-107 0 -169 53 -169 144c0 99 68 148 187 148h109c4 0 6 2 6 6v23c0 67 -31 105 -115 105c-37 0 -75 -12 -98 -24c-8 -4 -17 -7 -24 -7c-22 0 -36 14 -36 36
c0 13 6 26 20 34c30 20 80 36 146 36c128 0 188 -61 188 -179v-172c0 -25 2 -35 9 -49zM239 61c74 0 121 35 121 94v53c0 4 -2 6 -6 6h-96c-82 0 -119 -24 -119 -78c0 -50 36 -75 100 -75zM206 621c-15 0 -24 -6 -37 -23c-7 -8 -15 -13 -25 -13c-17 0 -29 11 -29 27
c0 7 3 16 8 23c24 35 51 50 80 50c25 0 42 -8 64 -22c23 -15 34 -19 45 -19c15 0 24 6 37 23c7 8 15 13 25 13c17 0 29 -11 29 -27c0 -7 -3 -16 -8 -23c-24 -35 -51 -50 -80 -50c-25 0 -42 8 -64 22c-23 15 -34 19 -45 19z" />
    <glyph glyph-name="adieresis" unicode="&#xe4;" horiz-adv-x="520" 
d="M467 59c4 -7 7 -16 7 -24c0 -23 -18 -40 -43 -40c-15 0 -27 7 -37 21l-19 30h-1c-32 -36 -77 -57 -147 -57c-107 0 -169 53 -169 144c0 99 68 148 187 148h109c4 0 6 2 6 6v23c0 67 -31 105 -115 105c-37 0 -75 -12 -98 -24c-8 -4 -17 -7 -24 -7c-22 0 -36 14 -36 36
c0 13 6 26 20 34c30 20 80 36 146 36c128 0 188 -61 188 -179v-172c0 -25 2 -35 9 -49zM239 61c74 0 121 35 121 94v53c0 4 -2 6 -6 6h-96c-82 0 -119 -24 -119 -78c0 -50 36 -75 100 -75zM359 582c-27 0 -50 22 -50 50c0 27 23 50 50 50c28 0 50 -23 50 -50
c0 -28 -22 -50 -50 -50zM160 582c-28 0 -50 22 -50 50c0 27 22 50 50 50c27 0 50 -23 50 -50c0 -28 -23 -50 -50 -50z" />
    <glyph glyph-name="amacron" unicode="&#x101;" horiz-adv-x="520" 
d="M467 59c4 -7 7 -16 7 -24c0 -23 -18 -40 -43 -40c-15 0 -27 7 -37 21l-19 30h-1c-32 -36 -77 -57 -147 -57c-107 0 -169 53 -169 144c0 99 68 148 187 148h109c4 0 6 2 6 6v23c0 67 -31 105 -115 105c-37 0 -75 -12 -98 -24c-8 -4 -17 -7 -24 -7c-22 0 -36 14 -36 36
c0 13 6 26 20 34c30 20 80 36 146 36c128 0 188 -61 188 -179v-172c0 -25 2 -35 9 -49zM239 61c74 0 121 35 121 94v53c0 4 -2 6 -6 6h-96c-82 0 -119 -24 -119 -78c0 -50 36 -75 100 -75zM368 601h-218c-22 0 -35 14 -35 32c0 19 13 33 35 33h218c22 0 35 -14 35 -33
c0 -18 -13 -32 -35 -32z" />
    <glyph glyph-name="abreve" unicode="&#x103;" horiz-adv-x="520" 
d="M467 59c4 -7 7 -16 7 -24c0 -23 -18 -40 -43 -40c-15 0 -27 7 -37 21l-19 30h-1c-32 -36 -77 -57 -147 -57c-107 0 -169 53 -169 144c0 99 68 148 187 148h109c4 0 6 2 6 6v23c0 67 -31 105 -115 105c-37 0 -75 -12 -98 -24c-8 -4 -17 -7 -24 -7c-22 0 -36 14 -36 36
c0 13 6 26 20 34c30 20 80 36 146 36c128 0 188 -61 188 -179v-172c0 -25 2 -35 9 -49zM239 61c74 0 121 35 121 94v53c0 4 -2 6 -6 6h-96c-82 0 -119 -24 -119 -78c0 -50 36 -75 100 -75zM260 561c-79 0 -131 53 -131 104c0 15 9 26 25 26c15 0 22 -9 29 -24
c14 -30 41 -46 77 -46s63 16 77 46c7 15 14 24 29 24c16 0 25 -11 25 -26c0 -51 -52 -104 -131 -104z" />
    <glyph glyph-name="aring" unicode="&#xe5;" horiz-adv-x="520" 
d="M467 59c4 -7 7 -16 7 -24c0 -23 -18 -40 -43 -40c-15 0 -27 7 -37 21l-19 30h-1c-32 -36 -77 -57 -147 -57c-107 0 -169 53 -169 144c0 99 68 148 187 148h109c4 0 6 2 6 6v23c0 67 -31 105 -115 105c-37 0 -75 -12 -98 -24c-8 -4 -17 -7 -24 -7c-22 0 -36 14 -36 36
c0 13 6 26 20 34c30 20 80 36 146 36c128 0 188 -61 188 -179v-172c0 -25 2 -35 9 -49zM239 61c74 0 121 35 121 94v53c0 4 -2 6 -6 6h-96c-82 0 -119 -24 -119 -78c0 -50 36 -75 100 -75zM263 534c-53 0 -95 41 -95 95s42 95 95 95s95 -41 95 -95s-42 -95 -95 -95zM263 576
c29 0 51 23 51 53s-22 53 -51 53s-51 -23 -51 -53s22 -53 51 -53z" />
    <glyph glyph-name="aringacute" unicode="&#x1fb;" horiz-adv-x="520" 
d="M296 772c-8 -8 -17 -12 -27 -12c-18 0 -33 14 -33 33c0 9 4 18 13 27l61 68c7 7 15 11 25 11c19 0 34 -14 34 -33c0 -9 -4 -19 -13 -28zM467 59c4 -7 7 -16 7 -24c0 -23 -18 -40 -43 -40c-15 0 -27 7 -37 21l-19 30h-1c-32 -36 -77 -57 -147 -57c-107 0 -169 53 -169 144
c0 99 68 148 187 148h109c4 0 6 2 6 6v23c0 67 -31 105 -115 105c-37 0 -75 -12 -98 -24c-8 -4 -17 -7 -24 -7c-22 0 -36 14 -36 36c0 13 6 26 20 34c30 20 80 36 146 36c128 0 188 -61 188 -179v-172c0 -25 2 -35 9 -49zM239 61c74 0 121 35 121 94v53c0 4 -2 6 -6 6h-96
c-82 0 -119 -24 -119 -78c0 -50 36 -75 100 -75zM263 534c-53 0 -95 41 -95 95s42 95 95 95s95 -41 95 -95s-42 -95 -95 -95zM263 576c29 0 51 23 51 53s-22 53 -51 53s-51 -23 -51 -53s22 -53 51 -53z" />
    <glyph glyph-name="aogonek" unicode="&#x105;" horiz-adv-x="520" 
d="M310 -102c0 37 22 72 85 116l-20 32h-1c-32 -36 -77 -57 -147 -57c-107 0 -169 53 -169 144c0 99 68 148 187 148h109c4 0 6 2 6 6v23c0 67 -31 105 -115 105c-37 0 -75 -12 -98 -24c-8 -4 -17 -7 -24 -7c-22 0 -36 14 -36 36c0 13 6 26 20 34c30 20 80 36 146 36
c128 0 188 -61 188 -179v-172c0 -25 2 -36 9 -49l17 -31c4 -7 7 -17 7 -25c0 -15 -7 -28 -26 -43c-54 -43 -67 -62 -67 -81c0 -16 9 -24 23 -24c7 0 12 1 19 4c5 2 11 3 16 3c16 0 27 -13 27 -29c0 -11 -5 -21 -16 -28c-15 -9 -36 -15 -58 -15c-50 0 -82 29 -82 77zM239 61
c74 0 121 35 121 94v53c0 4 -2 6 -6 6h-96c-82 0 -119 -24 -119 -78c0 -50 36 -75 100 -75z" />
    <glyph glyph-name="ae" unicode="&#xe6;" horiz-adv-x="814" 
d="M564 -11c-72 0 -127 26 -162 76h-2c-43 -58 -100 -76 -173 -76c-107 0 -169 53 -169 144c0 99 68 148 187 148h109c4 0 6 2 6 6v23c0 67 -31 105 -115 105c-37 0 -75 -12 -98 -24c-8 -4 -17 -7 -24 -7c-22 0 -36 14 -36 36c0 13 6 26 20 34c30 20 80 36 146 36
c75 0 127 -22 155 -66h2c34 43 84 66 147 66c94 0 162 -46 188 -128c11 -32 16 -69 16 -116c0 -19 -13 -32 -33 -32h-281c-4 0 -6 -2 -6 -6c0 -23 2 -39 8 -58c18 -55 62 -83 121 -83c47 0 79 14 115 41c10 8 19 12 29 12c20 0 35 -15 35 -35c0 -12 -5 -22 -13 -30
c-41 -38 -98 -66 -172 -66zM447 281h222c4 0 6 2 6 6c0 22 -2 39 -7 54c-16 48 -56 75 -110 75s-94 -27 -110 -75c-5 -15 -7 -32 -7 -54c0 -4 2 -6 6 -6zM239 61c74 0 121 35 121 94v53c0 4 -2 6 -6 6h-96c-82 0 -119 -24 -119 -78c0 -50 36 -75 100 -75z" />
    <glyph glyph-name="aeacute" unicode="&#x1fd;" horiz-adv-x="814" 
d="M564 -11c-72 0 -127 26 -162 76h-2c-43 -58 -100 -76 -173 -76c-107 0 -169 53 -169 144c0 99 68 148 187 148h109c4 0 6 2 6 6v23c0 67 -31 105 -115 105c-37 0 -75 -12 -98 -24c-8 -4 -17 -7 -24 -7c-22 0 -36 14 -36 36c0 13 6 26 20 34c30 20 80 36 146 36
c75 0 127 -22 155 -66h2c34 43 84 66 147 66c94 0 162 -46 188 -128c11 -32 16 -69 16 -116c0 -19 -13 -32 -33 -32h-281c-4 0 -6 -2 -6 -6c0 -23 2 -39 8 -58c18 -55 62 -83 121 -83c47 0 79 14 115 41c10 8 19 12 29 12c20 0 35 -15 35 -35c0 -12 -5 -22 -13 -30
c-41 -38 -98 -66 -172 -66zM447 281h222c4 0 6 2 6 6c0 22 -2 39 -7 54c-16 48 -56 75 -110 75s-94 -27 -110 -75c-5 -15 -7 -32 -7 -54c0 -4 2 -6 6 -6zM239 61c74 0 121 35 121 94v53c0 4 -2 6 -6 6h-96c-82 0 -119 -24 -119 -78c0 -50 36 -75 100 -75zM427 549
c-20 0 -33 13 -33 32c0 8 2 15 7 24l56 86c7 11 17 17 30 17c19 0 34 -14 34 -32c0 -9 -3 -17 -8 -25l-58 -86c-8 -11 -18 -16 -28 -16z" />
    <glyph glyph-name="cacute" unicode="&#x107;" horiz-adv-x="472" 
d="M257 -11c-92 0 -162 46 -189 129c-9 29 -15 68 -15 122c0 53 6 92 15 121c27 83 97 129 189 129c72 0 123 -31 153 -70c8 -11 12 -20 12 -31c0 -21 -16 -37 -37 -37c-15 0 -26 8 -37 20c-22 24 -48 40 -91 40c-52 0 -91 -25 -107 -75c-8 -25 -11 -55 -11 -97
c0 -43 3 -73 11 -98c16 -50 55 -75 107 -75c43 0 69 16 91 40c11 12 22 20 37 20c21 0 37 -16 37 -37c0 -11 -4 -20 -12 -31c-30 -39 -81 -70 -153 -70zM251 549c-20 0 -33 13 -33 32c0 8 2 15 7 24l56 86c7 11 17 17 30 17c19 0 34 -14 34 -32c0 -9 -3 -17 -8 -25l-58 -86
c-8 -11 -18 -16 -28 -16z" />
    <glyph glyph-name="ccircumflex" unicode="&#x109;" horiz-adv-x="472" 
d="M257 -11c-92 0 -162 46 -189 129c-9 29 -15 68 -15 122c0 53 6 92 15 121c27 83 97 129 189 129c72 0 123 -31 153 -70c8 -11 12 -20 12 -31c0 -21 -16 -37 -37 -37c-15 0 -26 8 -37 20c-22 24 -48 40 -91 40c-52 0 -91 -25 -107 -75c-8 -25 -11 -55 -11 -97
c0 -43 3 -73 11 -98c16 -50 55 -75 107 -75c43 0 69 16 91 40c11 12 22 20 37 20c21 0 37 -16 37 -37c0 -11 -4 -20 -12 -31c-30 -39 -81 -70 -153 -70zM326 561l-69 78h-2l-69 -78c-8 -9 -16 -13 -25 -13c-15 0 -27 11 -27 26c0 7 3 14 8 20l69 87c14 18 26 27 45 27
s30 -9 45 -27l69 -87c5 -6 8 -13 8 -20c0 -15 -12 -26 -27 -26c-9 0 -17 4 -25 13z" />
    <glyph glyph-name="ccaron" unicode="&#x10d;" horiz-adv-x="472" 
d="M257 -11c-92 0 -162 46 -189 129c-9 29 -15 68 -15 122c0 53 6 92 15 121c27 83 97 129 189 129c72 0 123 -31 153 -70c8 -11 12 -20 12 -31c0 -21 -16 -37 -37 -37c-15 0 -26 8 -37 20c-22 24 -48 40 -91 40c-52 0 -91 -25 -107 -75c-8 -25 -11 -55 -11 -97
c0 -43 3 -73 11 -98c16 -50 55 -75 107 -75c43 0 69 16 91 40c11 12 22 20 37 20c21 0 37 -16 37 -37c0 -11 -4 -20 -12 -31c-30 -39 -81 -70 -153 -70zM257 616l69 78c8 9 16 13 25 13c15 0 27 -11 27 -26c0 -7 -3 -14 -8 -20l-69 -87c-15 -18 -26 -27 -45 -27
s-31 9 -45 27l-69 87c-5 6 -8 13 -8 20c0 15 12 26 27 26c9 0 17 -4 25 -13l69 -78h2z" />
    <glyph glyph-name="cdotaccent" unicode="&#x10b;" horiz-adv-x="472" 
d="M257 -11c-92 0 -162 46 -189 129c-9 29 -15 68 -15 122c0 53 6 92 15 121c27 83 97 129 189 129c72 0 123 -31 153 -70c8 -11 12 -20 12 -31c0 -21 -16 -37 -37 -37c-15 0 -26 8 -37 20c-22 24 -48 40 -91 40c-52 0 -91 -25 -107 -75c-8 -25 -11 -55 -11 -97
c0 -43 3 -73 11 -98c16 -50 55 -75 107 -75c43 0 69 16 91 40c11 12 22 20 37 20c21 0 37 -16 37 -37c0 -11 -4 -20 -12 -31c-30 -39 -81 -70 -153 -70zM255 575c-31 0 -55 25 -55 55c0 31 24 55 55 55c30 0 55 -24 55 -55c0 -30 -25 -55 -55 -55z" />
    <glyph glyph-name="ccedilla" unicode="&#xe7;" horiz-adv-x="472" 
d="M245 -136c-6 -18 -18 -26 -34 -26c-20 0 -35 12 -35 33c0 5 2 13 4 19l38 102c-73 11 -127 55 -150 126c-9 29 -15 68 -15 122c0 53 6 92 15 121c27 83 97 129 189 129c72 0 123 -31 153 -70c8 -11 12 -20 12 -31c0 -21 -16 -37 -37 -37c-15 0 -26 8 -37 20
c-22 24 -48 40 -91 40c-52 0 -91 -25 -107 -75c-8 -25 -11 -55 -11 -97c0 -43 3 -73 11 -98c16 -50 55 -75 107 -75c43 0 69 16 91 40c11 12 22 20 37 20c21 0 37 -16 37 -37c0 -11 -4 -20 -12 -31c-26 -33 -66 -60 -121 -68z" />
    <glyph glyph-name="dcaron" unicode="&#x10f;" horiz-adv-x="538" 
d="M414 -5c-24 0 -42 17 -42 45v13h-1c-23 -38 -65 -64 -136 -64c-81 0 -140 45 -165 120c-12 38 -17 76 -17 131c0 54 5 92 17 130c25 75 84 120 165 120c72 0 114 -27 136 -64h1v214c0 28 18 45 42 45s42 -17 42 -45v-600c0 -28 -18 -45 -42 -45zM255 67
c54 0 90 27 106 75c9 26 11 56 11 98c0 41 -2 71 -11 97c-16 48 -52 75 -106 75c-53 0 -89 -27 -105 -75c-9 -26 -11 -56 -11 -97c0 -42 2 -72 11 -98c16 -48 52 -75 105 -75zM554 547c-7 -19 -20 -30 -36 -30c-22 0 -38 14 -38 36c0 5 1 12 3 17l26 83c7 20 19 30 36 30
c22 0 39 -14 39 -36c0 -5 -1 -12 -3 -17z" />
    <glyph glyph-name="dcroat" unicode="&#x111;" horiz-adv-x="538" 
d="M372 426v123c0 4 -2 6 -6 6h-99c-23 0 -37 14 -37 34c0 19 14 34 37 34h99c4 0 6 2 6 6v11c0 28 18 45 42 45s42 -17 42 -45v-11c0 -4 2 -6 6 -6h9c23 0 37 -15 37 -34c0 -20 -14 -34 -37 -34h-9c-4 0 -6 -2 -6 -6v-509c0 -28 -18 -45 -42 -45s-42 17 -42 45v13h-1
c-23 -38 -65 -64 -136 -64c-81 0 -140 45 -165 120c-12 38 -17 76 -17 131c0 54 5 92 17 130c25 75 84 120 165 120c72 0 114 -27 136 -64h1zM255 67c54 0 90 27 106 75c9 26 11 56 11 98c0 41 -2 71 -11 97c-16 48 -52 75 -106 75c-53 0 -89 -27 -105 -75
c-9 -26 -11 -56 -11 -97c0 -42 2 -72 11 -98c16 -48 52 -75 105 -75z" />
    <glyph glyph-name="eth" unicode="&#xf0;" horiz-adv-x="516" 
d="M378 575l-56 -17l16 -20c79 -101 125 -201 125 -294c0 -59 -5 -95 -15 -125c-26 -81 -96 -130 -190 -130c-95 0 -164 48 -190 128c-10 31 -15 66 -15 113c0 45 5 82 15 111c25 78 86 125 167 125c30 0 54 -7 76 -23h3l-70 92l-80 -24c-4 -1 -9 -2 -13 -2
c-18 0 -31 13 -31 31c0 14 8 26 24 31l60 18l-24 32c-7 9 -11 19 -11 27c0 20 15 37 37 37c14 0 23 -5 33 -17l42 -56l77 23c4 1 9 2 13 2c18 0 31 -13 31 -31c0 -14 -8 -26 -24 -31zM377 229c0 33 -5 64 -12 87c-16 50 -54 75 -107 75c-52 0 -91 -25 -107 -75
c-7 -23 -12 -54 -12 -87s5 -64 12 -87c16 -50 55 -75 107 -75c53 0 91 25 107 75c7 23 12 54 12 87z" />
    <glyph glyph-name="egrave" unicode="&#xe8;" horiz-adv-x="512" 
d="M262 -11c-99 0 -166 46 -193 130c-10 30 -16 64 -16 121s5 91 15 121c27 83 96 129 187 129c94 0 162 -46 188 -128c11 -32 16 -69 16 -116c0 -19 -13 -32 -33 -32h-281c-4 0 -6 -2 -6 -6c0 -23 2 -39 8 -58c18 -55 62 -83 121 -83c47 0 79 14 115 41c10 8 19 12 29 12
c20 0 35 -15 35 -35c0 -12 -5 -22 -13 -30c-41 -38 -98 -66 -172 -66zM145 281h222c4 0 6 2 6 6c0 22 -2 39 -7 54c-16 48 -56 75 -110 75s-94 -27 -110 -75c-5 -15 -7 -32 -7 -54c0 -4 2 -6 6 -6zM256 549c-10 0 -20 5 -28 16l-58 86c-5 8 -8 16 -8 25c0 18 15 32 34 32
c13 0 23 -6 30 -17l56 -86c5 -9 7 -16 7 -24c0 -19 -13 -32 -33 -32z" />
    <glyph glyph-name="eacute" unicode="&#xe9;" horiz-adv-x="512" 
d="M262 -11c-99 0 -166 46 -193 130c-10 30 -16 64 -16 121s5 91 15 121c27 83 96 129 187 129c94 0 162 -46 188 -128c11 -32 16 -69 16 -116c0 -19 -13 -32 -33 -32h-281c-4 0 -6 -2 -6 -6c0 -23 2 -39 8 -58c18 -55 62 -83 121 -83c47 0 79 14 115 41c10 8 19 12 29 12
c20 0 35 -15 35 -35c0 -12 -5 -22 -13 -30c-41 -38 -98 -66 -172 -66zM145 281h222c4 0 6 2 6 6c0 22 -2 39 -7 54c-16 48 -56 75 -110 75s-94 -27 -110 -75c-5 -15 -7 -32 -7 -54c0 -4 2 -6 6 -6zM257 549c-20 0 -33 13 -33 32c0 8 2 15 7 24l56 86c7 11 17 17 30 17
c19 0 34 -14 34 -32c0 -9 -3 -17 -8 -25l-58 -86c-8 -11 -18 -16 -28 -16z" />
    <glyph glyph-name="ecircumflex" unicode="&#xea;" horiz-adv-x="512" 
d="M262 -11c-99 0 -166 46 -193 130c-10 30 -16 64 -16 121s5 91 15 121c27 83 96 129 187 129c94 0 162 -46 188 -128c11 -32 16 -69 16 -116c0 -19 -13 -32 -33 -32h-281c-4 0 -6 -2 -6 -6c0 -23 2 -39 8 -58c18 -55 62 -83 121 -83c47 0 79 14 115 41c10 8 19 12 29 12
c20 0 35 -15 35 -35c0 -12 -5 -22 -13 -30c-41 -38 -98 -66 -172 -66zM145 281h222c4 0 6 2 6 6c0 22 -2 39 -7 54c-16 48 -56 75 -110 75s-94 -27 -110 -75c-5 -15 -7 -32 -7 -54c0 -4 2 -6 6 -6zM326 561l-69 78h-2l-69 -78c-8 -9 -16 -13 -25 -13c-15 0 -27 11 -27 26
c0 7 3 14 8 20l69 87c14 18 26 27 45 27s30 -9 45 -27l69 -87c5 -6 8 -13 8 -20c0 -15 -12 -26 -27 -26c-9 0 -17 4 -25 13z" />
    <glyph glyph-name="ecaron" unicode="&#x11b;" horiz-adv-x="512" 
d="M262 -11c-99 0 -166 46 -193 130c-10 30 -16 64 -16 121s5 91 15 121c27 83 96 129 187 129c94 0 162 -46 188 -128c11 -32 16 -69 16 -116c0 -19 -13 -32 -33 -32h-281c-4 0 -6 -2 -6 -6c0 -23 2 -39 8 -58c18 -55 62 -83 121 -83c47 0 79 14 115 41c10 8 19 12 29 12
c20 0 35 -15 35 -35c0 -12 -5 -22 -13 -30c-41 -38 -98 -66 -172 -66zM145 281h222c4 0 6 2 6 6c0 22 -2 39 -7 54c-16 48 -56 75 -110 75s-94 -27 -110 -75c-5 -15 -7 -32 -7 -54c0 -4 2 -6 6 -6zM257 616l69 78c8 9 16 13 25 13c15 0 27 -11 27 -26c0 -7 -3 -14 -8 -20
l-69 -87c-15 -18 -26 -27 -45 -27s-31 9 -45 27l-69 87c-5 6 -8 13 -8 20c0 15 12 26 27 26c9 0 17 -4 25 -13l69 -78h2z" />
    <glyph glyph-name="edieresis" unicode="&#xeb;" horiz-adv-x="512" 
d="M262 -11c-99 0 -166 46 -193 130c-10 30 -16 64 -16 121s5 91 15 121c27 83 96 129 187 129c94 0 162 -46 188 -128c11 -32 16 -69 16 -116c0 -19 -13 -32 -33 -32h-281c-4 0 -6 -2 -6 -6c0 -23 2 -39 8 -58c18 -55 62 -83 121 -83c47 0 79 14 115 41c10 8 19 12 29 12
c20 0 35 -15 35 -35c0 -12 -5 -22 -13 -30c-41 -38 -98 -66 -172 -66zM145 281h222c4 0 6 2 6 6c0 22 -2 39 -7 54c-16 48 -56 75 -110 75s-94 -27 -110 -75c-5 -15 -7 -32 -7 -54c0 -4 2 -6 6 -6zM355 582c-27 0 -50 22 -50 50c0 27 23 50 50 50c28 0 50 -23 50 -50
c0 -28 -22 -50 -50 -50zM156 582c-28 0 -50 22 -50 50c0 27 22 50 50 50c27 0 50 -23 50 -50c0 -28 -23 -50 -50 -50z" />
    <glyph glyph-name="emacron" unicode="&#x113;" horiz-adv-x="512" 
d="M262 -11c-99 0 -166 46 -193 130c-10 30 -16 64 -16 121s5 91 15 121c27 83 96 129 187 129c94 0 162 -46 188 -128c11 -32 16 -69 16 -116c0 -19 -13 -32 -33 -32h-281c-4 0 -6 -2 -6 -6c0 -23 2 -39 8 -58c18 -55 62 -83 121 -83c47 0 79 14 115 41c10 8 19 12 29 12
c20 0 35 -15 35 -35c0 -12 -5 -22 -13 -30c-41 -38 -98 -66 -172 -66zM145 281h222c4 0 6 2 6 6c0 22 -2 39 -7 54c-16 48 -56 75 -110 75s-94 -27 -110 -75c-5 -15 -7 -32 -7 -54c0 -4 2 -6 6 -6zM365 601h-218c-22 0 -35 14 -35 32c0 19 13 33 35 33h218
c22 0 35 -14 35 -33c0 -18 -13 -32 -35 -32z" />
    <glyph glyph-name="ebreve" unicode="&#x115;" horiz-adv-x="512" 
d="M262 -11c-99 0 -166 46 -193 130c-10 30 -16 64 -16 121s5 91 15 121c27 83 96 129 187 129c94 0 162 -46 188 -128c11 -32 16 -69 16 -116c0 -19 -13 -32 -33 -32h-281c-4 0 -6 -2 -6 -6c0 -23 2 -39 8 -58c18 -55 62 -83 121 -83c47 0 79 14 115 41c10 8 19 12 29 12
c20 0 35 -15 35 -35c0 -12 -5 -22 -13 -30c-41 -38 -98 -66 -172 -66zM145 281h222c4 0 6 2 6 6c0 22 -2 39 -7 54c-16 48 -56 75 -110 75s-94 -27 -110 -75c-5 -15 -7 -32 -7 -54c0 -4 2 -6 6 -6zM256 561c-79 0 -131 53 -131 104c0 15 9 26 25 26c15 0 22 -9 29 -24
c14 -30 41 -46 77 -46s63 16 77 46c7 15 14 24 29 24c16 0 25 -11 25 -26c0 -51 -52 -104 -131 -104z" />
    <glyph glyph-name="edotaccent" unicode="&#x117;" horiz-adv-x="512" 
d="M262 -11c-99 0 -166 46 -193 130c-10 30 -16 64 -16 121s5 91 15 121c27 83 96 129 187 129c94 0 162 -46 188 -128c11 -32 16 -69 16 -116c0 -19 -13 -32 -33 -32h-281c-4 0 -6 -2 -6 -6c0 -23 2 -39 8 -58c18 -55 62 -83 121 -83c47 0 79 14 115 41c10 8 19 12 29 12
c20 0 35 -15 35 -35c0 -12 -5 -22 -13 -30c-41 -38 -98 -66 -172 -66zM145 281h222c4 0 6 2 6 6c0 22 -2 39 -7 54c-16 48 -56 75 -110 75s-94 -27 -110 -75c-5 -15 -7 -32 -7 -54c0 -4 2 -6 6 -6zM256 575c-31 0 -55 25 -55 55c0 31 24 55 55 55c30 0 55 -24 55 -55
c0 -30 -25 -55 -55 -55z" />
    <glyph glyph-name="eogonek" unicode="&#x119;" horiz-adv-x="512" 
d="M262 -11c-99 0 -166 46 -193 130c-10 30 -16 64 -16 121s5 91 15 121c27 83 96 129 187 129c94 0 162 -46 188 -128c11 -32 16 -69 16 -116c0 -19 -13 -32 -33 -32h-281c-4 0 -6 -2 -6 -6c0 -23 2 -39 8 -58c18 -55 62 -83 121 -83c47 0 79 14 115 41c10 8 19 12 29 12
c20 0 35 -15 35 -35c0 -12 -5 -22 -13 -30s-17 -15 -27 -22c-75 -73 -85 -102 -85 -123c0 -16 9 -24 24 -24c6 0 12 1 19 4c5 2 11 3 15 3c17 0 28 -13 28 -29c0 -11 -5 -21 -17 -28c-14 -9 -36 -15 -57 -15c-50 0 -83 29 -83 77c0 28 13 61 42 93c-10 -1 -21 -2 -31 -2z
M145 281h222c4 0 6 2 6 6c0 22 -2 39 -7 54c-16 48 -56 75 -110 75s-94 -27 -110 -75c-5 -15 -7 -32 -7 -54c0 -4 2 -6 6 -6z" />
    <glyph glyph-name="gcircumflex" unicode="&#x11d;" horiz-adv-x="530" 
d="M363 427h1v12c0 28 18 45 42 45s42 -17 42 -45v-415c0 -143 -76 -215 -209 -215c-63 0 -123 26 -152 57c-8 8 -12 18 -12 27c0 22 16 39 38 39c12 0 23 -5 34 -13c27 -20 60 -32 95 -32c77 0 122 38 122 130v52h-1c-24 -40 -64 -63 -134 -63c-80 0 -137 44 -161 119
c-11 34 -16 70 -16 123s5 89 16 123c24 75 81 119 161 119c71 0 111 -27 134 -63zM251 83c52 0 85 25 102 75c8 23 11 50 11 90c0 39 -3 66 -11 89c-17 50 -50 75 -102 75s-85 -25 -102 -75c-8 -23 -11 -50 -11 -89c0 -40 3 -67 11 -90c17 -50 50 -75 102 -75zM324 561
l-69 78h-2l-69 -78c-8 -9 -16 -13 -25 -13c-15 0 -27 11 -27 26c0 7 3 14 8 20l69 87c14 18 26 27 45 27s30 -9 45 -27l69 -87c5 -6 8 -13 8 -20c0 -15 -12 -26 -27 -26c-9 0 -17 4 -25 13z" />
    <glyph glyph-name="gbreve" unicode="&#x11f;" horiz-adv-x="530" 
d="M363 427h1v12c0 28 18 45 42 45s42 -17 42 -45v-415c0 -143 -76 -215 -209 -215c-63 0 -123 26 -152 57c-8 8 -12 18 -12 27c0 22 16 39 38 39c12 0 23 -5 34 -13c27 -20 60 -32 95 -32c77 0 122 38 122 130v52h-1c-24 -40 -64 -63 -134 -63c-80 0 -137 44 -161 119
c-11 34 -16 70 -16 123s5 89 16 123c24 75 81 119 161 119c71 0 111 -27 134 -63zM251 83c52 0 85 25 102 75c8 23 11 50 11 90c0 39 -3 66 -11 89c-17 50 -50 75 -102 75s-85 -25 -102 -75c-8 -23 -11 -50 -11 -89c0 -40 3 -67 11 -90c17 -50 50 -75 102 -75zM255 561
c-79 0 -131 53 -131 104c0 15 9 26 25 26c15 0 22 -9 29 -24c14 -30 41 -46 77 -46s63 16 77 46c7 15 14 24 29 24c16 0 25 -11 25 -26c0 -51 -52 -104 -131 -104z" />
    <glyph glyph-name="gdotaccent" unicode="&#x121;" horiz-adv-x="530" 
d="M363 427h1v12c0 28 18 45 42 45s42 -17 42 -45v-415c0 -143 -76 -215 -209 -215c-63 0 -123 26 -152 57c-8 8 -12 18 -12 27c0 22 16 39 38 39c12 0 23 -5 34 -13c27 -20 60 -32 95 -32c77 0 122 38 122 130v52h-1c-24 -40 -64 -63 -134 -63c-80 0 -137 44 -161 119
c-11 34 -16 70 -16 123s5 89 16 123c24 75 81 119 161 119c71 0 111 -27 134 -63zM251 83c52 0 85 25 102 75c8 23 11 50 11 90c0 39 -3 66 -11 89c-17 50 -50 75 -102 75s-85 -25 -102 -75c-8 -23 -11 -50 -11 -89c0 -40 3 -67 11 -90c17 -50 50 -75 102 -75zM255 575
c-31 0 -55 25 -55 55c0 31 24 55 55 55c30 0 55 -24 55 -55c0 -30 -25 -55 -55 -55z" />
    <glyph glyph-name="gcommaaccent" unicode="&#x123;" horiz-adv-x="530" 
d="M363 427h1v12c0 28 18 45 42 45s42 -17 42 -45v-415c0 -143 -76 -215 -209 -215c-63 0 -123 26 -152 57c-8 8 -12 18 -12 27c0 22 16 39 38 39c12 0 23 -5 34 -13c27 -20 60 -32 95 -32c77 0 122 38 122 130v52h-1c-24 -40 -64 -63 -134 -63c-80 0 -137 44 -161 119
c-11 34 -16 70 -16 123s5 89 16 123c24 75 81 119 161 119c71 0 111 -27 134 -63zM251 83c52 0 85 25 102 75c8 23 11 50 11 90c0 39 -3 66 -11 89c-17 50 -50 75 -102 75s-85 -25 -102 -75c-8 -23 -11 -50 -11 -89c0 -40 3 -67 11 -90c17 -50 50 -75 102 -75zM283 592
c-7 -20 -19 -31 -36 -31c-21 0 -39 12 -39 35c0 6 1 13 3 19l29 90c7 20 19 31 36 31c21 0 38 -13 38 -36c0 -6 -2 -14 -3 -18z" />
    <glyph glyph-name="hcircumflex" unicode="&#x125;" horiz-adv-x="545" 
d="M82 40v600c0 28 18 45 42 45s42 -17 42 -45v-215h1c23 37 69 65 134 65c104 0 166 -71 166 -180v-270c0 -28 -18 -45 -42 -45s-42 17 -42 45v250c0 77 -35 122 -107 122c-65 0 -110 -46 -110 -117v-255c0 -28 -18 -45 -42 -45s-42 17 -42 45zM347 758l-69 78h-2l-69 -78
c-8 -9 -16 -13 -25 -13c-15 0 -27 11 -27 26c0 7 3 14 8 20l69 87c14 18 26 27 45 27s30 -9 45 -27l69 -87c5 -6 8 -13 8 -20c0 -15 -12 -26 -27 -26c-9 0 -17 4 -25 13z" />
    <glyph glyph-name="hbar" unicode="&#x127;" horiz-adv-x="545" 
d="M82 629v11c0 28 18 45 42 45s42 -17 42 -45v-11c0 -4 2 -6 6 -6h99c23 0 37 -15 37 -34c0 -20 -14 -34 -37 -34h-99c-4 0 -6 -2 -6 -6v-124h1c23 37 69 65 134 65c104 0 166 -71 166 -180v-270c0 -28 -18 -45 -42 -45s-42 17 -42 45v250c0 77 -35 122 -107 122
c-65 0 -110 -46 -110 -117v-255c0 -28 -18 -45 -42 -45s-42 17 -42 45v509c0 4 -2 6 -6 6h-9c-23 0 -37 14 -37 34c0 19 14 34 37 34h9c4 0 6 2 6 6z" />
    <glyph glyph-name="dotlessi" unicode="&#x131;" horiz-adv-x="248" 
d="M82 40v399c0 28 18 45 42 45s42 -17 42 -45v-399c0 -28 -18 -45 -42 -45s-42 17 -42 45z" />
    <glyph glyph-name="igrave" unicode="&#xec;" horiz-adv-x="248" 
d="M82 40v399c0 28 18 45 42 45s42 -17 42 -45v-399c0 -28 -18 -45 -42 -45s-42 17 -42 45zM124 549c-10 0 -20 5 -28 16l-58 86c-5 8 -8 16 -8 25c0 18 15 32 34 32c13 0 23 -6 30 -17l56 -86c5 -9 7 -16 7 -24c0 -19 -13 -32 -33 -32z" />
    <glyph glyph-name="iacute" unicode="&#xed;" horiz-adv-x="248" 
d="M82 40v399c0 28 18 45 42 45s42 -17 42 -45v-399c0 -28 -18 -45 -42 -45s-42 17 -42 45zM126 549c-20 0 -33 13 -33 32c0 8 2 15 7 24l56 86c7 11 17 17 30 17c19 0 34 -14 34 -32c0 -9 -3 -17 -8 -25l-58 -86c-8 -11 -18 -16 -28 -16z" />
    <glyph glyph-name="ibreve" unicode="&#x12d;" horiz-adv-x="248" 
d="M82 40v399c0 28 18 45 42 45s42 -17 42 -45v-399c0 -28 -18 -45 -42 -45s-42 17 -42 45zM124 561c-79 0 -131 53 -131 104c0 15 9 26 25 26c15 0 22 -9 29 -24c14 -30 41 -46 77 -46s63 16 77 46c7 15 14 24 29 24c16 0 25 -11 25 -26c0 -51 -52 -104 -131 -104z" />
    <glyph glyph-name="icircumflex" unicode="&#xee;" horiz-adv-x="248" 
d="M82 40v399c0 28 18 45 42 45s42 -17 42 -45v-399c0 -28 -18 -45 -42 -45s-42 17 -42 45zM194 561l-69 78h-2l-69 -78c-8 -9 -16 -13 -25 -13c-15 0 -27 11 -27 26c0 7 3 14 8 20l69 87c14 18 26 27 45 27s30 -9 45 -27l69 -87c5 -6 8 -13 8 -20c0 -15 -12 -26 -27 -26
c-9 0 -17 4 -25 13z" />
    <glyph glyph-name="itilde" unicode="&#x129;" horiz-adv-x="248" 
d="M82 40v399c0 28 18 45 42 45s42 -17 42 -45v-399c0 -28 -18 -45 -42 -45s-42 17 -42 45zM71 621c-15 0 -24 -6 -37 -23c-7 -8 -15 -13 -25 -13c-17 0 -29 11 -29 27c0 7 3 16 8 23c24 35 51 50 80 50c25 0 42 -8 64 -22c23 -15 34 -19 45 -19c15 0 24 6 37 23
c7 8 15 13 25 13c17 0 29 -11 29 -27c0 -7 -3 -16 -8 -23c-24 -35 -51 -50 -80 -50c-25 0 -42 8 -64 22c-23 15 -34 19 -45 19z" />
    <glyph glyph-name="idieresis" unicode="&#xef;" horiz-adv-x="248" 
d="M82 40v399c0 28 18 45 42 45s42 -17 42 -45v-399c0 -28 -18 -45 -42 -45s-42 17 -42 45zM224 582c-27 0 -50 22 -50 50c0 27 23 50 50 50c28 0 50 -23 50 -50c0 -28 -22 -50 -50 -50zM25 582c-28 0 -50 22 -50 50c0 27 22 50 50 50c27 0 50 -23 50 -50
c0 -28 -23 -50 -50 -50z" />
    <glyph glyph-name="imacron" unicode="&#x12b;" horiz-adv-x="248" 
d="M82 40v399c0 28 18 45 42 45s42 -17 42 -45v-399c0 -28 -18 -45 -42 -45s-42 17 -42 45zM233 601h-218c-22 0 -35 14 -35 32c0 19 13 33 35 33h218c22 0 35 -14 35 -33c0 -18 -13 -32 -35 -32z" />
    <glyph glyph-name="iogonek" unicode="&#x12f;" horiz-adv-x="248" 
d="M124 575c-30 0 -55 25 -55 55c0 31 25 55 55 55s55 -24 55 -55c0 -30 -25 -55 -55 -55zM23 -102c0 34 18 74 63 117c-3 7 -4 18 -4 25v399c0 28 18 45 42 45s42 -17 42 -45v-399c0 -19 -3 -30 -17 -44c-43 -43 -55 -64 -55 -86c0 -16 9 -24 23 -24c7 0 12 1 19 4
c5 2 11 3 16 3c16 0 27 -13 27 -29c0 -11 -5 -21 -16 -28c-15 -9 -36 -15 -58 -15c-50 0 -82 29 -82 77z" />
    <glyph glyph-name="dotlessj" unicode="&#x237;" horiz-adv-x="248" 
d="M82 -37v476c0 28 18 45 42 45s42 -17 42 -45v-475c0 -102 -46 -144 -138 -144c-26 0 -40 17 -40 39s13 37 37 39c44 4 57 16 57 65z" />
    <glyph glyph-name="jcircumflex" unicode="&#x135;" horiz-adv-x="248" 
d="M82 -37v476c0 28 18 45 42 45s42 -17 42 -45v-475c0 -102 -46 -144 -138 -144c-26 0 -40 17 -40 39s13 37 37 39c44 4 57 16 57 65zM194 561l-69 78h-2l-69 -78c-8 -9 -16 -13 -25 -13c-15 0 -27 11 -27 26c0 7 3 14 8 20l69 87c14 18 26 27 45 27s30 -9 45 -27l69 -87
c5 -6 8 -13 8 -20c0 -15 -12 -26 -27 -26c-9 0 -17 4 -25 13z" />
    <glyph glyph-name="kcommaaccent" unicode="&#x137;" horiz-adv-x="511" 
d="M82 40v600c0 28 18 45 42 45s42 -17 42 -45v-392l196 221c9 10 19 15 32 15c19 0 35 -14 35 -35c0 -11 -4 -19 -12 -28l-111 -121l151 -242c5 -8 7 -16 7 -25c0 -21 -17 -38 -40 -38c-16 0 -29 8 -39 24l-135 221l-84 -94v-106c0 -28 -18 -45 -42 -45s-42 17 -42 45z
M270 -189c-6 -20 -19 -31 -36 -31c-22 0 -39 15 -39 37c0 5 1 11 3 17l28 87c6 20 19 30 36 30c22 0 40 -13 40 -35c0 -6 -1 -13 -3 -19z" />
    <glyph glyph-name="kgreenlandic" unicode="&#x138;" horiz-adv-x="511" 
d="M82 40v399c0 28 18 45 42 45s42 -17 42 -45v-191l196 221c9 10 19 15 32 15c19 0 35 -14 35 -35c0 -11 -4 -19 -12 -28l-111 -121l151 -242c5 -8 7 -16 7 -25c0 -21 -17 -38 -40 -38c-16 0 -29 8 -39 24l-135 221l-84 -94v-106c0 -28 -18 -45 -42 -45s-42 17 -42 45z" />
    <glyph glyph-name="lacute" unicode="&#x13a;" horiz-adv-x="279" 
d="M206 -5h-9c-86 0 -117 42 -117 128v517c0 28 18 45 42 45s42 -17 42 -45v-512c0 -40 13 -55 46 -55c24 0 39 -16 39 -39s-15 -39 -43 -39zM116 812l69 78c7 8 15 13 27 13c19 0 34 -14 34 -33c0 -10 -4 -19 -10 -26l-69 -76c-9 -10 -18 -15 -30 -15c-17 0 -32 14 -32 32
c0 10 4 19 11 27z" />
    <glyph glyph-name="lcaron" unicode="&#x13e;" horiz-adv-x="279" 
d="M206 -5h-9c-86 0 -117 42 -117 128v517c0 28 18 45 42 45s42 -17 42 -45v-512c0 -40 13 -55 46 -55c24 0 39 -16 39 -39s-15 -39 -43 -39zM267 547c-7 -19 -20 -30 -36 -30c-22 0 -38 14 -38 36c0 5 1 12 3 17l26 83c7 20 19 30 36 30c22 0 39 -14 39 -36
c0 -5 -1 -12 -3 -17z" />
    <glyph glyph-name="lcommaaccent" unicode="&#x13c;" horiz-adv-x="279" 
d="M206 -5h-9c-86 0 -117 42 -117 128v517c0 28 18 45 42 45s42 -17 42 -45v-512c0 -40 13 -55 46 -55c24 0 39 -16 39 -39s-15 -39 -43 -39zM172 -189c-6 -20 -19 -31 -36 -31c-22 0 -39 15 -39 37c0 5 1 11 3 17l28 87c6 20 19 30 36 30c22 0 40 -13 40 -35
c0 -6 -1 -13 -3 -19z" />
    <glyph glyph-name="lslash" unicode="&#x142;" horiz-adv-x="279" 
d="M46 357l34 18v265c0 28 18 45 42 45s42 -17 42 -45v-222l29 15c7 4 14 6 20 6c18 0 32 -14 32 -33c0 -13 -6 -24 -19 -31l-62 -32v-215c0 -40 13 -55 46 -55c24 0 39 -16 39 -39s-15 -39 -43 -39h-9c-86 0 -117 42 -117 128v177c-8 -5 -15 -7 -21 -7c-18 0 -32 14 -32 33
c0 13 6 24 19 31z" />
    <glyph glyph-name="ldot" unicode="&#x140;" horiz-adv-x="330" 
d="M206 -5h-9c-86 0 -117 42 -117 128v517c0 28 18 45 42 45s42 -17 42 -45v-512c0 -40 13 -55 46 -55c24 0 39 -16 39 -39s-15 -39 -43 -39zM287 278c-31 0 -57 26 -57 57s26 57 57 57s57 -26 57 -57s-26 -57 -57 -57z" />
    <glyph glyph-name="nacute" unicode="&#x144;" horiz-adv-x="544" 
d="M82 40v399c0 28 18 45 42 45s42 -17 42 -45v-14h1c23 37 69 65 134 65c104 0 166 -71 166 -180v-270c0 -28 -18 -45 -42 -45s-42 17 -42 45v250c0 77 -35 122 -107 122c-65 0 -110 -46 -110 -117v-255c0 -28 -18 -45 -42 -45s-42 17 -42 45zM263 549c-20 0 -33 13 -33 32
c0 8 2 15 7 24l56 86c7 11 17 17 30 17c19 0 34 -14 34 -32c0 -9 -3 -17 -8 -25l-58 -86c-8 -11 -18 -16 -28 -16z" />
    <glyph glyph-name="ncaron" unicode="&#x148;" horiz-adv-x="544" 
d="M82 40v399c0 28 18 45 42 45s42 -17 42 -45v-14h1c23 37 69 65 134 65c104 0 166 -71 166 -180v-270c0 -28 -18 -45 -42 -45s-42 17 -42 45v250c0 77 -35 122 -107 122c-65 0 -110 -46 -110 -117v-255c0 -28 -18 -45 -42 -45s-42 17 -42 45zM273 616l69 78
c8 9 16 13 25 13c15 0 27 -11 27 -26c0 -7 -3 -14 -8 -20l-69 -87c-15 -18 -26 -27 -45 -27s-31 9 -45 27l-69 87c-5 6 -8 13 -8 20c0 15 12 26 27 26c9 0 17 -4 25 -13l69 -78h2z" />
    <glyph glyph-name="ntilde" unicode="&#xf1;" horiz-adv-x="544" 
d="M82 40v399c0 28 18 45 42 45s42 -17 42 -45v-14h1c23 37 69 65 134 65c104 0 166 -71 166 -180v-270c0 -28 -18 -45 -42 -45s-42 17 -42 45v250c0 77 -35 122 -107 122c-65 0 -110 -46 -110 -117v-255c0 -28 -18 -45 -42 -45s-42 17 -42 45zM219 621
c-15 0 -24 -6 -37 -23c-7 -8 -15 -13 -25 -13c-17 0 -29 11 -29 27c0 7 3 16 8 23c24 35 51 50 80 50c25 0 42 -8 64 -22c23 -15 34 -19 45 -19c15 0 24 6 37 23c7 8 15 13 25 13c17 0 29 -11 29 -27c0 -7 -3 -16 -8 -23c-24 -35 -51 -50 -80 -50c-25 0 -42 8 -64 22
c-23 15 -34 19 -45 19z" />
    <glyph glyph-name="ncommaaccent" unicode="&#x146;" horiz-adv-x="544" 
d="M82 40v399c0 28 18 45 42 45s42 -17 42 -45v-14h1c23 37 69 65 134 65c104 0 166 -71 166 -180v-270c0 -28 -18 -45 -42 -45s-42 17 -42 45v250c0 77 -35 122 -107 122c-65 0 -110 -46 -110 -117v-255c0 -28 -18 -45 -42 -45s-42 17 -42 45zM286 -189
c-6 -20 -19 -31 -36 -31c-22 0 -39 15 -39 37c0 5 1 11 3 17l28 87c6 20 19 30 36 30c22 0 40 -13 40 -35c0 -6 -1 -13 -3 -19z" />
    <glyph glyph-name="ograve" unicode="&#xf2;" horiz-adv-x="516" 
d="M258 -11c-93 0 -163 48 -189 129c-11 33 -16 66 -16 122c0 55 5 88 16 121c26 82 96 129 189 129s163 -47 189 -129c11 -33 16 -66 16 -121c0 -56 -5 -89 -16 -122c-26 -81 -96 -129 -189 -129zM258 67c53 0 92 27 108 75c8 26 11 52 11 98s-3 71 -11 97
c-16 48 -55 75 -108 75s-92 -27 -108 -75c-8 -26 -11 -51 -11 -97s3 -72 11 -98c16 -48 55 -75 108 -75zM254 549c-10 0 -20 5 -28 16l-58 86c-5 8 -8 16 -8 25c0 18 15 32 34 32c13 0 23 -6 30 -17l56 -86c5 -9 7 -16 7 -24c0 -19 -13 -32 -33 -32z" />
    <glyph glyph-name="oacute" unicode="&#xf3;" horiz-adv-x="516" 
d="M258 -11c-93 0 -163 48 -189 129c-11 33 -16 66 -16 122c0 55 5 88 16 121c26 82 96 129 189 129s163 -47 189 -129c11 -33 16 -66 16 -121c0 -56 -5 -89 -16 -122c-26 -81 -96 -129 -189 -129zM258 67c53 0 92 27 108 75c8 26 11 52 11 98s-3 71 -11 97
c-16 48 -55 75 -108 75s-92 -27 -108 -75c-8 -26 -11 -51 -11 -97s3 -72 11 -98c16 -48 55 -75 108 -75zM262 549c-20 0 -33 13 -33 32c0 8 2 15 7 24l56 86c7 11 17 17 30 17c19 0 34 -14 34 -32c0 -9 -3 -17 -8 -25l-58 -86c-8 -11 -18 -16 -28 -16z" />
    <glyph glyph-name="ocircumflex" unicode="&#xf4;" horiz-adv-x="516" 
d="M258 -11c-93 0 -163 48 -189 129c-11 33 -16 66 -16 122c0 55 5 88 16 121c26 82 96 129 189 129s163 -47 189 -129c11 -33 16 -66 16 -121c0 -56 -5 -89 -16 -122c-26 -81 -96 -129 -189 -129zM258 67c53 0 92 27 108 75c8 26 11 52 11 98s-3 71 -11 97
c-16 48 -55 75 -108 75s-92 -27 -108 -75c-8 -26 -11 -51 -11 -97s3 -72 11 -98c16 -48 55 -75 108 -75zM330 561l-69 78h-2l-69 -78c-8 -9 -16 -13 -25 -13c-15 0 -27 11 -27 26c0 7 3 14 8 20l69 87c14 18 26 27 45 27s30 -9 45 -27l69 -87c5 -6 8 -13 8 -20
c0 -15 -12 -26 -27 -26c-9 0 -17 4 -25 13z" />
    <glyph glyph-name="otilde" unicode="&#xf5;" horiz-adv-x="516" 
d="M258 -11c-93 0 -163 48 -189 129c-11 33 -16 66 -16 122c0 55 5 88 16 121c26 82 96 129 189 129s163 -47 189 -129c11 -33 16 -66 16 -121c0 -56 -5 -89 -16 -122c-26 -81 -96 -129 -189 -129zM258 67c53 0 92 27 108 75c8 26 11 52 11 98s-3 71 -11 97
c-16 48 -55 75 -108 75s-92 -27 -108 -75c-8 -26 -11 -51 -11 -97s3 -72 11 -98c16 -48 55 -75 108 -75zM205 621c-15 0 -24 -6 -37 -23c-7 -8 -15 -13 -25 -13c-17 0 -29 11 -29 27c0 7 3 16 8 23c24 35 51 50 80 50c25 0 42 -8 64 -22c23 -15 34 -19 45 -19
c15 0 24 6 37 23c7 8 15 13 25 13c17 0 29 -11 29 -27c0 -7 -3 -16 -8 -23c-24 -35 -51 -50 -80 -50c-25 0 -42 8 -64 22c-23 15 -34 19 -45 19z" />
    <glyph glyph-name="odieresis" unicode="&#xf6;" horiz-adv-x="516" 
d="M258 -11c-93 0 -163 48 -189 129c-11 33 -16 66 -16 122c0 55 5 88 16 121c26 82 96 129 189 129s163 -47 189 -129c11 -33 16 -66 16 -121c0 -56 -5 -89 -16 -122c-26 -81 -96 -129 -189 -129zM258 67c53 0 92 27 108 75c8 26 11 52 11 98s-3 71 -11 97
c-16 48 -55 75 -108 75s-92 -27 -108 -75c-8 -26 -11 -51 -11 -97s3 -72 11 -98c16 -48 55 -75 108 -75zM358 582c-27 0 -50 22 -50 50c0 27 23 50 50 50c28 0 50 -23 50 -50c0 -28 -22 -50 -50 -50zM159 582c-28 0 -50 22 -50 50c0 27 22 50 50 50c27 0 50 -23 50 -50
c0 -28 -23 -50 -50 -50z" />
    <glyph glyph-name="omacron" unicode="&#x14d;" horiz-adv-x="516" 
d="M258 -11c-93 0 -163 48 -189 129c-11 33 -16 66 -16 122c0 55 5 88 16 121c26 82 96 129 189 129s163 -47 189 -129c11 -33 16 -66 16 -121c0 -56 -5 -89 -16 -122c-26 -81 -96 -129 -189 -129zM258 67c53 0 92 27 108 75c8 26 11 52 11 98s-3 71 -11 97
c-16 48 -55 75 -108 75s-92 -27 -108 -75c-8 -26 -11 -51 -11 -97s3 -72 11 -98c16 -48 55 -75 108 -75zM367 601h-218c-22 0 -35 14 -35 32c0 19 13 33 35 33h218c22 0 35 -14 35 -33c0 -18 -13 -32 -35 -32z" />
    <glyph glyph-name="obreve" unicode="&#x14f;" horiz-adv-x="516" 
d="M258 -11c-93 0 -163 48 -189 129c-11 33 -16 66 -16 122c0 55 5 88 16 121c26 82 96 129 189 129s163 -47 189 -129c11 -33 16 -66 16 -121c0 -56 -5 -89 -16 -122c-26 -81 -96 -129 -189 -129zM258 67c53 0 92 27 108 75c8 26 11 52 11 98s-3 71 -11 97
c-16 48 -55 75 -108 75s-92 -27 -108 -75c-8 -26 -11 -51 -11 -97s3 -72 11 -98c16 -48 55 -75 108 -75zM258 561c-79 0 -131 53 -131 104c0 15 9 26 25 26c15 0 22 -9 29 -24c14 -30 41 -46 77 -46s63 16 77 46c7 15 14 24 29 24c16 0 25 -11 25 -26
c0 -51 -52 -104 -131 -104z" />
    <glyph glyph-name="ohungarumlaut" unicode="&#x151;" horiz-adv-x="516" 
d="M258 -11c-93 0 -163 48 -189 129c-11 33 -16 66 -16 122c0 55 5 88 16 121c26 82 96 129 189 129s163 -47 189 -129c11 -33 16 -66 16 -121c0 -56 -5 -89 -16 -122c-26 -81 -96 -129 -189 -129zM258 67c53 0 92 27 108 75c8 26 11 52 11 98s-3 71 -11 97
c-16 48 -55 75 -108 75s-92 -27 -108 -75c-8 -26 -11 -51 -11 -97s3 -72 11 -98c16 -48 55 -75 108 -75zM372 570c-9 -15 -19 -21 -31 -21c-18 0 -33 13 -33 32c0 7 2 15 6 22l50 85c9 15 20 20 33 20c18 0 34 -13 34 -31c0 -8 -3 -16 -7 -23zM227 570
c-9 -15 -19 -21 -31 -21c-18 0 -33 13 -33 32c0 7 2 15 6 22l50 85c9 15 20 20 33 20c18 0 34 -13 34 -31c0 -8 -3 -16 -7 -23z" />
    <glyph glyph-name="oslash" unicode="&#xf8;" horiz-adv-x="516" 
d="M83 -35c-11 0 -20 8 -20 21c0 5 2 10 6 16l35 52c-16 18 -27 39 -35 64c-11 33 -16 66 -16 122c0 55 5 88 16 121c26 82 96 129 189 129c47 0 89 -12 121 -35l33 48c6 8 12 12 20 12c12 0 20 -8 20 -20c0 -5 -2 -11 -6 -17l-35 -52c16 -18 28 -40 36 -65
c11 -33 16 -66 16 -121c0 -56 -5 -89 -16 -122c-26 -81 -96 -129 -189 -129c-48 0 -90 12 -123 36l-32 -48c-5 -8 -12 -12 -20 -12zM139 240c0 -66 8 -95 17 -114l175 262c-19 16 -44 24 -73 24c-53 0 -92 -27 -108 -75c-8 -26 -11 -51 -11 -97zM258 67c53 0 92 27 108 75
c8 26 11 52 11 98c0 56 -5 84 -17 112l-177 -261c20 -16 45 -24 75 -24z" />
    <glyph glyph-name="oslashacute" unicode="&#x1ff;" horiz-adv-x="516" 
d="M83 -35c-11 0 -20 8 -20 21c0 5 2 10 6 16l35 52c-16 18 -27 39 -35 64c-11 33 -16 66 -16 122c0 55 5 88 16 121c26 82 96 129 189 129c47 0 89 -12 121 -35l33 48c6 8 12 12 20 12c12 0 20 -8 20 -20c0 -5 -2 -11 -6 -17l-35 -52c16 -18 28 -40 36 -65
c11 -33 16 -66 16 -121c0 -56 -5 -89 -16 -122c-26 -81 -96 -129 -189 -129c-48 0 -90 12 -123 36l-32 -48c-5 -8 -12 -12 -20 -12zM139 240c0 -66 8 -95 17 -114l175 262c-19 16 -44 24 -73 24c-53 0 -92 -27 -108 -75c-8 -26 -11 -51 -11 -97zM258 67c53 0 92 27 108 75
c8 26 11 52 11 98c0 56 -5 84 -17 112l-177 -261c20 -16 45 -24 75 -24zM262 549c-20 0 -33 13 -33 32c0 8 2 15 7 24l56 86c7 11 17 17 30 17c19 0 34 -14 34 -32c0 -9 -3 -17 -8 -25l-58 -86c-8 -11 -18 -16 -28 -16z" />
    <glyph glyph-name="oe" unicode="&#x153;" horiz-adv-x="835" 
d="M585 -11c-75 0 -130 30 -164 86h-1c-34 -57 -90 -86 -162 -86c-93 0 -163 48 -189 129c-11 33 -16 66 -16 122c0 55 5 88 16 121c26 82 96 129 189 129c74 0 127 -32 162 -86h1c33 54 88 86 158 86c94 0 161 -46 187 -128c11 -32 16 -69 16 -116c0 -19 -13 -32 -33 -32
h-281c-4 0 -6 -2 -6 -6c0 -23 2 -39 8 -58c18 -55 62 -83 121 -83c47 0 79 14 115 41c10 8 19 12 29 12c20 0 35 -15 35 -35c0 -12 -5 -22 -13 -30c-41 -38 -98 -66 -172 -66zM468 281h222c4 0 6 2 6 6c0 22 -2 39 -7 54c-16 48 -56 75 -110 75s-94 -27 -110 -75
c-5 -15 -7 -32 -7 -54c0 -4 2 -6 6 -6zM258 67c53 0 92 27 108 75c8 26 11 52 11 98s-3 71 -11 97c-16 48 -55 75 -108 75s-92 -27 -108 -75c-8 -26 -11 -51 -11 -97s3 -72 11 -98c16 -48 55 -75 108 -75z" />
    <glyph glyph-name="racute" unicode="&#x155;" horiz-adv-x="407" 
d="M124 -5c-24 0 -42 17 -42 45v399c0 28 18 45 42 45s42 -17 42 -45v-22h1c20 43 64 73 123 73c33 0 55 -8 71 -17c17 -9 24 -22 24 -36c0 -24 -17 -42 -42 -42c-6 0 -14 2 -21 5c-18 7 -35 12 -55 12c-72 0 -101 -60 -101 -140v-232c0 -28 -18 -45 -42 -45zM210 549
c-20 0 -33 13 -33 32c0 8 2 15 7 24l56 86c7 11 17 17 30 17c19 0 34 -14 34 -32c0 -9 -3 -17 -8 -25l-58 -86c-8 -11 -18 -16 -28 -16z" />
    <glyph glyph-name="rcaron" unicode="&#x159;" horiz-adv-x="407" 
d="M124 -5c-24 0 -42 17 -42 45v399c0 28 18 45 42 45s42 -17 42 -45v-22h1c20 43 64 73 123 73c33 0 55 -8 71 -17c17 -9 24 -22 24 -36c0 -24 -17 -42 -42 -42c-6 0 -14 2 -21 5c-18 7 -35 12 -55 12c-72 0 -101 -60 -101 -140v-232c0 -28 -18 -45 -42 -45zM229 616l69 78
c8 9 16 13 25 13c15 0 27 -11 27 -26c0 -7 -3 -14 -8 -20l-69 -87c-15 -18 -26 -27 -45 -27s-31 9 -45 27l-69 87c-5 6 -8 13 -8 20c0 15 12 26 27 26c9 0 17 -4 25 -13l69 -78h2z" />
    <glyph glyph-name="rcommaaccent" unicode="&#x157;" horiz-adv-x="407" 
d="M124 -5c-24 0 -42 17 -42 45v399c0 28 18 45 42 45s42 -17 42 -45v-22h1c20 43 64 73 123 73c33 0 55 -8 71 -17c17 -9 24 -22 24 -36c0 -24 -17 -42 -42 -42c-6 0 -14 2 -21 5c-18 7 -35 12 -55 12c-72 0 -101 -60 -101 -140v-232c0 -28 -18 -45 -42 -45zM129 -189
c-6 -20 -19 -31 -36 -31c-22 0 -39 15 -39 37c0 5 1 11 3 17l28 87c6 20 19 30 36 30c22 0 40 -13 40 -35c0 -6 -1 -13 -3 -19z" />
    <glyph glyph-name="sacute" unicode="&#x15b;" horiz-adv-x="490" 
d="M245 -11c-73 0 -134 25 -174 53c-13 9 -20 21 -20 35c0 20 16 38 39 38c8 0 16 -2 28 -9c39 -23 80 -42 134 -42c69 0 105 30 105 72c0 40 -18 60 -94 68l-50 5c-94 10 -143 58 -143 135c0 91 65 146 177 146c56 0 106 -14 143 -35c17 -9 25 -20 25 -35
c0 -20 -16 -36 -36 -36c-8 0 -17 2 -30 8c-32 15 -68 25 -106 25c-60 0 -91 -27 -91 -66c0 -38 22 -58 94 -65l50 -5c100 -11 144 -58 144 -136c0 -94 -68 -156 -195 -156zM242 549c-20 0 -33 13 -33 32c0 8 2 15 7 24l56 86c7 11 17 17 30 17c19 0 34 -14 34 -32
c0 -9 -3 -17 -8 -25l-58 -86c-8 -11 -18 -16 -28 -16z" />
    <glyph glyph-name="scircumflex" unicode="&#x15d;" horiz-adv-x="490" 
d="M245 -11c-73 0 -134 25 -174 53c-13 9 -20 21 -20 35c0 20 16 38 39 38c8 0 16 -2 28 -9c39 -23 80 -42 134 -42c69 0 105 30 105 72c0 40 -18 60 -94 68l-50 5c-94 10 -143 58 -143 135c0 91 65 146 177 146c56 0 106 -14 143 -35c17 -9 25 -20 25 -35
c0 -20 -16 -36 -36 -36c-8 0 -17 2 -30 8c-32 15 -68 25 -106 25c-60 0 -91 -27 -91 -66c0 -38 22 -58 94 -65l50 -5c100 -11 144 -58 144 -136c0 -94 -68 -156 -195 -156zM317 561l-69 78h-2l-69 -78c-8 -9 -16 -13 -25 -13c-15 0 -27 11 -27 26c0 7 3 14 8 20l69 87
c14 18 26 27 45 27s30 -9 45 -27l69 -87c5 -6 8 -13 8 -20c0 -15 -12 -26 -27 -26c-9 0 -17 4 -25 13z" />
    <glyph glyph-name="scaron" unicode="&#x161;" horiz-adv-x="490" 
d="M245 -11c-73 0 -134 25 -174 53c-13 9 -20 21 -20 35c0 20 16 38 39 38c8 0 16 -2 28 -9c39 -23 80 -42 134 -42c69 0 105 30 105 72c0 40 -18 60 -94 68l-50 5c-94 10 -143 58 -143 135c0 91 65 146 177 146c56 0 106 -14 143 -35c17 -9 25 -20 25 -35
c0 -20 -16 -36 -36 -36c-8 0 -17 2 -30 8c-32 15 -68 25 -106 25c-60 0 -91 -27 -91 -66c0 -38 22 -58 94 -65l50 -5c100 -11 144 -58 144 -136c0 -94 -68 -156 -195 -156zM248 616l69 78c8 9 16 13 25 13c15 0 27 -11 27 -26c0 -7 -3 -14 -8 -20l-69 -87
c-15 -18 -26 -27 -45 -27s-31 9 -45 27l-69 87c-5 6 -8 13 -8 20c0 15 12 26 27 26c9 0 17 -4 25 -13l69 -78h2z" />
    <glyph glyph-name="scedilla" unicode="&#x15f;" horiz-adv-x="490" 
d="M245 -136c-6 -18 -18 -26 -34 -26c-20 0 -35 12 -35 33c0 5 2 13 4 19l37 100c-57 5 -111 27 -146 52c-13 9 -20 21 -20 35c0 20 16 38 39 38c8 0 16 -2 28 -9c39 -23 80 -42 134 -42c69 0 105 30 105 72c0 40 -18 60 -94 68l-50 5c-94 10 -143 58 -143 135
c0 91 65 146 177 146c56 0 106 -14 143 -35c17 -9 25 -20 25 -35c0 -20 -16 -36 -36 -36c-8 0 -17 2 -30 8c-32 15 -68 25 -106 25c-60 0 -91 -27 -91 -66c0 -38 22 -58 94 -65l50 -5c100 -11 144 -58 144 -136c0 -81 -52 -141 -151 -153z" />
    <glyph glyph-name="scommaaccent" unicode="&#x219;" horiz-adv-x="490" 
d="M245 -11c-73 0 -134 25 -174 53c-13 9 -20 21 -20 35c0 20 16 38 39 38c8 0 16 -2 28 -9c39 -23 80 -42 134 -42c69 0 105 30 105 72c0 40 -18 60 -94 68l-50 5c-94 10 -143 58 -143 135c0 91 65 146 177 146c56 0 106 -14 143 -35c17 -9 25 -20 25 -35
c0 -20 -16 -36 -36 -36c-8 0 -17 2 -30 8c-32 15 -68 25 -106 25c-60 0 -91 -27 -91 -66c0 -38 22 -58 94 -65l50 -5c100 -11 144 -58 144 -136c0 -94 -68 -156 -195 -156zM258 -189c-6 -20 -19 -31 -36 -31c-22 0 -39 15 -39 37c0 5 1 11 3 17l28 87c6 20 19 30 36 30
c22 0 40 -13 40 -35c0 -6 -1 -13 -3 -19z" />
    <glyph glyph-name="germandbls" unicode="&#xdf;" horiz-adv-x="543" 
d="M301 -4c-26 0 -41 16 -41 39s15 38 41 39c51 1 77 11 90 51c5 16 8 40 8 98c0 64 -4 87 -10 103c-14 41 -45 54 -91 54c-23 0 -39 15 -39 39s16 39 39 39c63 0 92 22 92 77c0 52 -38 78 -110 78c-85 0 -114 -33 -114 -120v-453c0 -28 -18 -45 -42 -45s-42 17 -42 45v451
c0 128 52 200 197 200c126 0 195 -58 195 -154c0 -57 -22 -93 -63 -114v-2c27 -14 48 -36 61 -74c8 -25 11 -53 11 -125c0 -74 -6 -106 -13 -129c-22 -70 -76 -97 -169 -97z" />
    <glyph glyph-name="tcaron" unicode="&#x165;" horiz-adv-x="318" 
d="M236 -5h-10c-98 0 -134 41 -134 141v269c0 4 -2 6 -6 6h-27c-23 0 -36 14 -36 34s13 34 36 34h27c4 0 6 2 6 6v105c0 28 18 45 42 45s42 -17 42 -45v-105c0 -4 2 -6 6 -6h63c23 0 36 -14 36 -34s-13 -34 -36 -34h-63c-4 0 -6 -2 -6 -6v-266c0 -51 13 -66 64 -66
c26 0 41 -16 41 -39s-15 -39 -45 -39zM304 547c-7 -19 -20 -30 -36 -30c-22 0 -38 14 -38 36c0 5 1 12 3 17l26 83c7 20 19 30 36 30c22 0 39 -14 39 -36c0 -5 -1 -12 -3 -17z" />
    <glyph glyph-name="tcommaaccent" unicode="&#x163;" horiz-adv-x="318" 
d="M236 -5h-10c-98 0 -134 41 -134 141v269c0 4 -2 6 -6 6h-27c-23 0 -36 14 -36 34s13 34 36 34h27c4 0 6 2 6 6v105c0 28 18 45 42 45s42 -17 42 -45v-105c0 -4 2 -6 6 -6h63c23 0 36 -14 36 -34s-13 -34 -36 -34h-63c-4 0 -6 -2 -6 -6v-266c0 -51 13 -66 64 -66
c26 0 41 -16 41 -39s-15 -39 -45 -39zM192 -189c-6 -20 -19 -31 -36 -31c-22 0 -39 15 -39 37c0 5 1 11 3 17l28 87c6 20 19 30 36 30c22 0 40 -13 40 -35c0 -6 -1 -13 -3 -19z" />
    <glyph glyph-name="uni021B" unicode="&#x21b;" horiz-adv-x="318" 
d="M236 -5h-10c-98 0 -134 41 -134 141v269c0 4 -2 6 -6 6h-27c-23 0 -36 14 -36 34s13 34 36 34h27c4 0 6 2 6 6v105c0 28 18 45 42 45s42 -17 42 -45v-105c0 -4 2 -6 6 -6h63c23 0 36 -14 36 -34s-13 -34 -36 -34h-63c-4 0 -6 -2 -6 -6v-266c0 -51 13 -66 64 -66
c26 0 41 -16 41 -39s-15 -39 -45 -39zM192 -189c-6 -20 -19 -31 -36 -31c-22 0 -39 15 -39 37c0 5 1 11 3 17l28 87c6 20 19 30 36 30c22 0 40 -13 40 -35c0 -6 -1 -13 -3 -19z" />
    <glyph glyph-name="tbar" unicode="&#x167;" horiz-adv-x="318" 
d="M230 274h-48c-4 0 -6 -2 -6 -6v-129c0 -51 13 -66 64 -66c26 0 41 -16 41 -39s-15 -39 -45 -39h-10c-98 0 -134 41 -134 141v132c0 4 -2 6 -6 6h-19c-22 0 -34 13 -34 32s12 32 34 32h19c4 0 6 2 6 6v61c0 4 -2 6 -6 6h-27c-23 0 -36 14 -36 34s13 34 36 34h27
c4 0 6 2 6 6v105c0 28 18 45 42 45s42 -17 42 -45v-105c0 -4 2 -6 6 -6h63c23 0 36 -14 36 -34s-13 -34 -36 -34h-63c-4 0 -6 -2 -6 -6v-61c0 -4 2 -6 6 -6h48c22 0 34 -13 34 -32s-12 -32 -34 -32z" />
    <glyph glyph-name="thorn" unicode="&#xfe;" horiz-adv-x="538" 
d="M124 -185c-24 0 -42 17 -42 45v780c0 28 18 45 42 45s42 -17 42 -45v-214h1c23 38 65 64 136 64c81 0 140 -45 165 -120c12 -38 17 -76 17 -131c0 -54 -5 -92 -17 -130c-25 -75 -84 -120 -165 -120c-72 0 -114 27 -136 64h-1v-193c0 -28 -18 -45 -42 -45zM283 67
c53 0 89 27 105 75c9 26 11 56 11 97c0 42 -2 72 -11 98c-16 48 -52 75 -105 75c-54 0 -90 -27 -106 -75c-9 -26 -11 -56 -11 -98c0 -41 2 -71 11 -97c16 -48 52 -75 106 -75z" />
    <glyph glyph-name="ugrave" unicode="&#xf9;" horiz-adv-x="539" 
d="M457 439v-399c0 -28 -18 -45 -42 -45s-42 17 -42 45v14h-1c-23 -37 -67 -65 -132 -65c-104 0 -165 71 -165 180v270c0 28 18 45 42 45s42 -17 42 -45v-250c0 -77 34 -122 106 -122c65 0 108 46 108 117v255c0 28 18 45 42 45s42 -17 42 -45zM266 549c-10 0 -20 5 -28 16
l-58 86c-5 8 -8 16 -8 25c0 18 15 32 34 32c13 0 23 -6 30 -17l56 -86c5 -9 7 -16 7 -24c0 -19 -13 -32 -33 -32z" />
    <glyph glyph-name="uacute" unicode="&#xfa;" horiz-adv-x="539" 
d="M457 439v-399c0 -28 -18 -45 -42 -45s-42 17 -42 45v14h-1c-23 -37 -67 -65 -132 -65c-104 0 -165 71 -165 180v270c0 28 18 45 42 45s42 -17 42 -45v-250c0 -77 34 -122 106 -122c65 0 108 46 108 117v255c0 28 18 45 42 45s42 -17 42 -45zM273 549c-20 0 -33 13 -33 32
c0 8 2 15 7 24l56 86c7 11 17 17 30 17c19 0 34 -14 34 -32c0 -9 -3 -17 -8 -25l-58 -86c-8 -11 -18 -16 -28 -16z" />
    <glyph glyph-name="ucircumflex" unicode="&#xfb;" horiz-adv-x="539" 
d="M457 439v-399c0 -28 -18 -45 -42 -45s-42 17 -42 45v14h-1c-23 -37 -67 -65 -132 -65c-104 0 -165 71 -165 180v270c0 28 18 45 42 45s42 -17 42 -45v-250c0 -77 34 -122 106 -122c65 0 108 46 108 117v255c0 28 18 45 42 45s42 -17 42 -45zM338 561l-69 78h-2l-69 -78
c-8 -9 -16 -13 -25 -13c-15 0 -27 11 -27 26c0 7 3 14 8 20l69 87c14 18 26 27 45 27s30 -9 45 -27l69 -87c5 -6 8 -13 8 -20c0 -15 -12 -26 -27 -26c-9 0 -17 4 -25 13z" />
    <glyph glyph-name="utilde" unicode="&#x169;" horiz-adv-x="539" 
d="M457 439v-399c0 -28 -18 -45 -42 -45s-42 17 -42 45v14h-1c-23 -37 -67 -65 -132 -65c-104 0 -165 71 -165 180v270c0 28 18 45 42 45s42 -17 42 -45v-250c0 -77 34 -122 106 -122c65 0 108 46 108 117v255c0 28 18 45 42 45s42 -17 42 -45zM215 621
c-15 0 -24 -6 -37 -23c-7 -8 -15 -13 -25 -13c-17 0 -29 11 -29 27c0 7 3 16 8 23c24 35 51 50 80 50c25 0 42 -8 64 -22c23 -15 34 -19 45 -19c15 0 24 6 37 23c7 8 15 13 25 13c17 0 29 -11 29 -27c0 -7 -3 -16 -8 -23c-24 -35 -51 -50 -80 -50c-25 0 -42 8 -64 22
c-23 15 -34 19 -45 19z" />
    <glyph glyph-name="udieresis" unicode="&#xfc;" horiz-adv-x="539" 
d="M457 439v-399c0 -28 -18 -45 -42 -45s-42 17 -42 45v14h-1c-23 -37 -67 -65 -132 -65c-104 0 -165 71 -165 180v270c0 28 18 45 42 45s42 -17 42 -45v-250c0 -77 34 -122 106 -122c65 0 108 46 108 117v255c0 28 18 45 42 45s42 -17 42 -45zM369 582c-27 0 -50 22 -50 50
c0 27 23 50 50 50c28 0 50 -23 50 -50c0 -28 -22 -50 -50 -50zM170 582c-28 0 -50 22 -50 50c0 27 22 50 50 50c27 0 50 -23 50 -50c0 -28 -23 -50 -50 -50z" />
    <glyph glyph-name="umacron" unicode="&#x16b;" horiz-adv-x="539" 
d="M457 439v-399c0 -28 -18 -45 -42 -45s-42 17 -42 45v14h-1c-23 -37 -67 -65 -132 -65c-104 0 -165 71 -165 180v270c0 28 18 45 42 45s42 -17 42 -45v-250c0 -77 34 -122 106 -122c65 0 108 46 108 117v255c0 28 18 45 42 45s42 -17 42 -45zM378 601h-218
c-22 0 -35 14 -35 32c0 19 13 33 35 33h218c22 0 35 -14 35 -33c0 -18 -13 -32 -35 -32z" />
    <glyph glyph-name="ubreve" unicode="&#x16d;" horiz-adv-x="539" 
d="M457 439v-399c0 -28 -18 -45 -42 -45s-42 17 -42 45v14h-1c-23 -37 -67 -65 -132 -65c-104 0 -165 71 -165 180v270c0 28 18 45 42 45s42 -17 42 -45v-250c0 -77 34 -122 106 -122c65 0 108 46 108 117v255c0 28 18 45 42 45s42 -17 42 -45zM269 561
c-79 0 -131 53 -131 104c0 15 9 26 25 26c15 0 22 -9 29 -24c14 -30 41 -46 77 -46s63 16 77 46c7 15 14 24 29 24c16 0 25 -11 25 -26c0 -51 -52 -104 -131 -104z" />
    <glyph glyph-name="uring" unicode="&#x16f;" horiz-adv-x="539" 
d="M457 439v-399c0 -28 -18 -45 -42 -45s-42 17 -42 45v14h-1c-23 -37 -67 -65 -132 -65c-104 0 -165 71 -165 180v270c0 28 18 45 42 45s42 -17 42 -45v-250c0 -77 34 -122 106 -122c65 0 108 46 108 117v255c0 28 18 45 42 45s42 -17 42 -45zM269 534c-53 0 -95 41 -95 95
s42 95 95 95s95 -41 95 -95s-42 -95 -95 -95zM269 576c29 0 51 23 51 53s-22 53 -51 53s-51 -23 -51 -53s22 -53 51 -53z" />
    <glyph glyph-name="uhungarumlaut" unicode="&#x171;" horiz-adv-x="539" 
d="M457 439v-399c0 -28 -18 -45 -42 -45s-42 17 -42 45v14h-1c-23 -37 -67 -65 -132 -65c-104 0 -165 71 -165 180v270c0 28 18 45 42 45s42 -17 42 -45v-250c0 -77 34 -122 106 -122c65 0 108 46 108 117v255c0 28 18 45 42 45s42 -17 42 -45zM378 570
c-9 -15 -19 -21 -31 -21c-18 0 -33 13 -33 32c0 7 2 15 6 22l50 85c9 15 20 20 33 20c18 0 34 -13 34 -31c0 -8 -3 -16 -7 -23zM233 570c-9 -15 -19 -21 -31 -21c-18 0 -33 13 -33 32c0 7 2 15 6 22l50 85c9 15 20 20 33 20c18 0 34 -13 34 -31c0 -8 -3 -16 -7 -23z" />
    <glyph glyph-name="uogonek" unicode="&#x173;" horiz-adv-x="539" 
d="M373 40v14h-1c-23 -37 -67 -65 -132 -65c-104 0 -165 71 -165 180v270c0 28 18 45 42 45s42 -17 42 -45v-250c0 -77 34 -122 106 -122c65 0 108 46 108 117v255c0 28 18 45 42 45s42 -17 42 -45v-399c0 -17 -4 -29 -20 -43c-59 -50 -69 -68 -69 -87c0 -16 9 -24 23 -24
c7 0 12 1 19 4c5 2 11 3 16 3c16 0 27 -13 27 -29c0 -11 -5 -21 -16 -28c-15 -9 -36 -15 -58 -15c-50 0 -82 29 -82 77c0 38 22 75 81 117c-3 5 -5 12 -5 25z" />
    <glyph glyph-name="wacute" unicode="&#x1e83;" horiz-adv-x="745" 
d="M524 -5c-25 0 -42 13 -51 43l-99 315h-2l-100 -315c-10 -30 -26 -43 -50 -43s-40 13 -50 43l-127 388c-2 6 -3 13 -3 18c0 23 16 40 41 40c21 0 34 -12 41 -36l101 -325h2l100 320c9 29 23 41 46 41s37 -12 46 -41l102 -320h2l99 325c7 24 20 36 41 36
c24 0 40 -17 40 -40c0 -5 -1 -12 -3 -18l-127 -388c-10 -30 -26 -43 -49 -43zM390 549c-20 0 -33 13 -33 32c0 8 2 15 7 24l56 86c7 11 17 17 30 17c19 0 34 -14 34 -32c0 -9 -3 -17 -8 -25l-58 -86c-8 -11 -18 -16 -28 -16z" />
    <glyph glyph-name="wcircumflex" unicode="&#x175;" horiz-adv-x="745" 
d="M524 -5c-25 0 -42 13 -51 43l-99 315h-2l-100 -315c-10 -30 -26 -43 -50 -43s-40 13 -50 43l-127 388c-2 6 -3 13 -3 18c0 23 16 40 41 40c21 0 34 -12 41 -36l101 -325h2l100 320c9 29 23 41 46 41s37 -12 46 -41l102 -320h2l99 325c7 24 20 36 41 36
c24 0 40 -17 40 -40c0 -5 -1 -12 -3 -18l-127 -388c-10 -30 -26 -43 -49 -43zM443 561l-69 78h-2l-69 -78c-8 -9 -16 -13 -25 -13c-15 0 -27 11 -27 26c0 7 3 14 8 20l69 87c14 18 26 27 45 27s30 -9 45 -27l69 -87c5 -6 8 -13 8 -20c0 -15 -12 -26 -27 -26
c-9 0 -17 4 -25 13z" />
    <glyph glyph-name="wdieresis" unicode="&#x1e85;" horiz-adv-x="745" 
d="M524 -5c-25 0 -42 13 -51 43l-99 315h-2l-100 -315c-10 -30 -26 -43 -50 -43s-40 13 -50 43l-127 388c-2 6 -3 13 -3 18c0 23 16 40 41 40c21 0 34 -12 41 -36l101 -325h2l100 320c9 29 23 41 46 41s37 -12 46 -41l102 -320h2l99 325c7 24 20 36 41 36
c24 0 40 -17 40 -40c0 -5 -1 -12 -3 -18l-127 -388c-10 -30 -26 -43 -49 -43zM472 582c-27 0 -50 22 -50 50c0 27 23 50 50 50c28 0 50 -23 50 -50c0 -28 -22 -50 -50 -50zM273 582c-28 0 -50 22 -50 50c0 27 22 50 50 50c27 0 50 -23 50 -50c0 -28 -23 -50 -50 -50z" />
    <glyph glyph-name="wgrave" unicode="&#x1e81;" horiz-adv-x="745" 
d="M524 -5c-25 0 -42 13 -51 43l-99 315h-2l-100 -315c-10 -30 -26 -43 -50 -43s-40 13 -50 43l-127 388c-2 6 -3 13 -3 18c0 23 16 40 41 40c21 0 34 -12 41 -36l101 -325h2l100 320c9 29 23 41 46 41s37 -12 46 -41l102 -320h2l99 325c7 24 20 36 41 36
c24 0 40 -17 40 -40c0 -5 -1 -12 -3 -18l-127 -388c-10 -30 -26 -43 -49 -43zM361 549c-10 0 -20 5 -28 16l-58 86c-5 8 -8 16 -8 25c0 18 15 32 34 32c13 0 23 -6 30 -17l56 -86c5 -9 7 -16 7 -24c0 -19 -13 -32 -33 -32z" />
    <glyph glyph-name="yacute" unicode="&#xfd;" horiz-adv-x="477" 
d="M110 -180h-8c-26 0 -41 17 -41 39s15 39 41 39c39 0 62 15 83 72l16 44l-163 411c-2 6 -4 13 -4 20c0 22 18 39 42 39c20 0 33 -10 40 -30l125 -331h2l120 331c7 20 20 30 39 30c25 0 41 -17 41 -39c0 -7 -2 -14 -4 -20l-180 -472c-42 -108 -80 -133 -149 -133zM247 549
c-20 0 -33 13 -33 32c0 8 2 15 7 24l56 86c7 11 17 17 30 17c19 0 34 -14 34 -32c0 -9 -3 -17 -8 -25l-58 -86c-8 -11 -18 -16 -28 -16z" />
    <glyph glyph-name="ycircumflex" unicode="&#x177;" horiz-adv-x="477" 
d="M110 -180h-8c-26 0 -41 17 -41 39s15 39 41 39c39 0 62 15 83 72l16 44l-163 411c-2 6 -4 13 -4 20c0 22 18 39 42 39c20 0 33 -10 40 -30l125 -331h2l120 331c7 20 20 30 39 30c25 0 41 -17 41 -39c0 -7 -2 -14 -4 -20l-180 -472c-42 -108 -80 -133 -149 -133zM311 561
l-69 78h-2l-69 -78c-8 -9 -16 -13 -25 -13c-15 0 -27 11 -27 26c0 7 3 14 8 20l69 87c14 18 26 27 45 27s30 -9 45 -27l69 -87c5 -6 8 -13 8 -20c0 -15 -12 -26 -27 -26c-9 0 -17 4 -25 13z" />
    <glyph glyph-name="ydieresis" unicode="&#xff;" horiz-adv-x="477" 
d="M110 -180h-8c-26 0 -41 17 -41 39s15 39 41 39c39 0 62 15 83 72l16 44l-163 411c-2 6 -4 13 -4 20c0 22 18 39 42 39c20 0 33 -10 40 -30l125 -331h2l120 331c7 20 20 30 39 30c25 0 41 -17 41 -39c0 -7 -2 -14 -4 -20l-180 -472c-42 -108 -80 -133 -149 -133zM340 582
c-27 0 -50 22 -50 50c0 27 23 50 50 50c28 0 50 -23 50 -50c0 -28 -22 -50 -50 -50zM141 582c-28 0 -50 22 -50 50c0 27 22 50 50 50c27 0 50 -23 50 -50c0 -28 -23 -50 -50 -50z" />
    <glyph glyph-name="ygrave" unicode="&#x1ef3;" horiz-adv-x="477" 
d="M110 -180h-8c-26 0 -41 17 -41 39s15 39 41 39c39 0 62 15 83 72l16 44l-163 411c-2 6 -4 13 -4 20c0 22 18 39 42 39c20 0 33 -10 40 -30l125 -331h2l120 331c7 20 20 30 39 30c25 0 41 -17 41 -39c0 -7 -2 -14 -4 -20l-180 -472c-42 -108 -80 -133 -149 -133zM242 549
c-10 0 -20 5 -28 16l-58 86c-5 8 -8 16 -8 25c0 18 15 32 34 32c13 0 23 -6 30 -17l56 -86c5 -9 7 -16 7 -24c0 -19 -13 -32 -33 -32z" />
    <glyph glyph-name="zacute" unicode="&#x17a;" horiz-adv-x="453" 
d="M377 0h-301c-25 0 -40 15 -40 38c0 17 7 31 24 53l249 310v2h-220c-26 0 -40 16 -40 38s14 38 40 38h288c25 0 40 -15 40 -38c0 -16 -5 -30 -23 -53l-249 -310v-2h232c26 0 40 -16 40 -38s-14 -38 -40 -38zM229 549c-20 0 -33 13 -33 32c0 8 2 15 7 24l56 86
c7 11 17 17 30 17c19 0 34 -14 34 -32c0 -9 -3 -17 -8 -25l-58 -86c-8 -11 -18 -16 -28 -16z" />
    <glyph glyph-name="zcaron" unicode="&#x17e;" horiz-adv-x="453" 
d="M377 0h-301c-25 0 -40 15 -40 38c0 17 7 31 24 53l249 310v2h-220c-26 0 -40 16 -40 38s14 38 40 38h288c25 0 40 -15 40 -38c0 -16 -5 -30 -23 -53l-249 -310v-2h232c26 0 40 -16 40 -38s-14 -38 -40 -38zM230 616l69 78c8 9 16 13 25 13c15 0 27 -11 27 -26
c0 -7 -3 -14 -8 -20l-69 -87c-15 -18 -26 -27 -45 -27s-31 9 -45 27l-69 87c-5 6 -8 13 -8 20c0 15 12 26 27 26c9 0 17 -4 25 -13l69 -78h2z" />
    <glyph glyph-name="zdotaccent" unicode="&#x17c;" horiz-adv-x="453" 
d="M377 0h-301c-25 0 -40 15 -40 38c0 17 7 31 24 53l249 310v2h-220c-26 0 -40 16 -40 38s14 38 40 38h288c25 0 40 -15 40 -38c0 -16 -5 -30 -23 -53l-249 -310v-2h232c26 0 40 -16 40 -38s-14 -38 -40 -38zM229 575c-31 0 -55 25 -55 55c0 31 24 55 55 55
c30 0 55 -24 55 -55c0 -30 -25 -55 -55 -55z" />
    <glyph glyph-name="grave.cap" horiz-adv-x="433" 
d="M201 890l69 -78c7 -8 11 -17 11 -27c0 -18 -15 -32 -32 -32c-12 0 -21 5 -30 15l-69 76c-6 7 -10 16 -10 26c0 19 15 33 34 33c12 0 20 -5 27 -13z" />
    <glyph glyph-name="acute" unicode="&#xb4;" horiz-adv-x="433" 
d="M188 549c-20 0 -33 13 -33 32c0 8 2 15 7 24l56 86c7 11 17 17 30 17c19 0 34 -14 34 -32c0 -9 -3 -17 -8 -25l-58 -86c-8 -11 -18 -16 -28 -16z" />
    <glyph glyph-name="acute.cap" horiz-adv-x="433" 
d="M163 812l69 78c7 8 15 13 27 13c19 0 34 -14 34 -33c0 -10 -4 -19 -10 -26l-69 -76c-9 -10 -18 -15 -30 -15c-17 0 -32 14 -32 32c0 10 4 19 11 27z" />
    <glyph glyph-name="circumflex" unicode="&#x2c6;" horiz-adv-x="433" 
d="M287 561l-69 78h-2l-69 -78c-8 -9 -16 -13 -25 -13c-15 0 -27 11 -27 26c0 7 3 14 8 20l69 87c14 18 26 27 45 27s30 -9 45 -27l69 -87c5 -6 8 -13 8 -20c0 -15 -12 -26 -27 -26c-9 0 -17 4 -25 13z" />
    <glyph glyph-name="circumflex.cap" horiz-adv-x="433" 
d="M287 758l-69 78h-2l-69 -78c-8 -9 -16 -13 -25 -13c-15 0 -27 11 -27 26c0 7 3 14 8 20l69 87c14 18 26 27 45 27s30 -9 45 -27l69 -87c5 -6 8 -13 8 -20c0 -15 -12 -26 -27 -26c-9 0 -17 4 -25 13z" />
    <glyph glyph-name="caron" unicode="&#x2c7;" horiz-adv-x="433" 
d="M218 616l69 78c8 9 16 13 25 13c15 0 27 -11 27 -26c0 -7 -3 -14 -8 -20l-69 -87c-15 -18 -26 -27 -45 -27s-31 9 -45 27l-69 87c-5 6 -8 13 -8 20c0 15 12 26 27 26c9 0 17 -4 25 -13l69 -78h2z" />
    <glyph glyph-name="caron.cap" horiz-adv-x="433" 
d="M218 814l69 78c8 9 16 13 25 13c15 0 27 -11 27 -26c0 -7 -3 -14 -8 -20l-69 -87c-15 -18 -26 -27 -45 -27s-31 9 -45 27l-69 87c-5 6 -8 13 -8 20c0 15 12 26 27 26c9 0 17 -4 25 -13l69 -78h2z" />
    <glyph glyph-name="caron.alt" horiz-adv-x="433" 
d="M243 547c-7 -19 -20 -30 -36 -30c-22 0 -38 14 -38 36c0 5 1 12 3 17l26 83c7 20 19 30 36 30c22 0 39 -14 39 -36c0 -5 -1 -12 -3 -17z" />
    <glyph glyph-name="tilde" unicode="&#x2dc;" horiz-adv-x="433" 
d="M164 621c-15 0 -24 -6 -37 -23c-7 -8 -15 -13 -25 -13c-17 0 -29 11 -29 27c0 7 3 16 8 23c24 35 51 50 80 50c25 0 42 -8 64 -22c23 -15 34 -19 45 -19c15 0 24 6 37 23c7 8 15 13 25 13c17 0 29 -11 29 -27c0 -7 -3 -16 -8 -23c-24 -35 -51 -50 -80 -50
c-25 0 -42 8 -64 22c-23 15 -34 19 -45 19z" />
    <glyph glyph-name="tilde.cap" horiz-adv-x="433" 
d="M164 809c-15 0 -24 -6 -37 -23c-7 -8 -15 -13 -25 -13c-17 0 -29 11 -29 27c0 7 3 16 8 23c24 35 51 50 80 50c25 0 42 -8 64 -22c23 -15 34 -19 45 -19c15 0 24 6 37 23c7 8 15 13 25 13c17 0 29 -11 29 -27c0 -7 -3 -16 -8 -23c-24 -35 -51 -50 -80 -50
c-25 0 -42 8 -64 22c-23 15 -34 19 -45 19z" />
    <glyph glyph-name="dieresis" unicode="&#xa8;" horiz-adv-x="433" 
d="M316 582c-27 0 -50 22 -50 50c0 27 23 50 50 50c28 0 50 -23 50 -50c0 -28 -22 -50 -50 -50zM117 582c-28 0 -50 22 -50 50c0 27 22 50 50 50c27 0 50 -23 50 -50c0 -28 -23 -50 -50 -50z" />
    <glyph glyph-name="dieresis.cap" horiz-adv-x="433" 
d="M316 773c-27 0 -50 22 -50 49c0 28 23 51 50 51c28 0 50 -23 50 -51c0 -27 -22 -49 -50 -49zM117 773c-28 0 -50 22 -50 49c0 28 22 51 50 51c27 0 50 -23 50 -51c0 -27 -23 -49 -50 -49z" />
    <glyph glyph-name="macron" unicode="&#xaf;" horiz-adv-x="433" 
d="M326 601h-218c-22 0 -35 14 -35 32c0 19 13 33 35 33h218c22 0 35 -14 35 -33c0 -18 -13 -32 -35 -32z" />
    <glyph glyph-name="macron.cap" horiz-adv-x="433" 
d="M326 790h-218c-22 0 -35 14 -35 32c0 19 13 33 35 33h218c22 0 35 -14 35 -33c0 -18 -13 -32 -35 -32z" />
    <glyph glyph-name="uni02C9" unicode="&#x2c9;" horiz-adv-x="433" 
d="M326 790h-218c-22 0 -35 14 -35 32c0 19 13 33 35 33h218c22 0 35 -14 35 -33c0 -18 -13 -32 -35 -32z" />
    <glyph glyph-name="breve" unicode="&#x2d8;" horiz-adv-x="433" 
d="M217 561c-79 0 -131 53 -131 104c0 15 9 26 25 26c15 0 22 -9 29 -24c14 -30 41 -46 77 -46s63 16 77 46c7 15 14 24 29 24c16 0 25 -11 25 -26c0 -51 -52 -104 -131 -104z" />
    <glyph glyph-name="breve.cap" horiz-adv-x="433" 
d="M217 761c-79 0 -131 53 -131 104c0 15 9 26 25 26c15 0 22 -9 29 -24c14 -30 41 -46 77 -46s63 16 77 46c7 15 14 24 29 24c16 0 25 -11 25 -26c0 -51 -52 -104 -131 -104z" />
    <glyph glyph-name="ring" unicode="&#x2da;" horiz-adv-x="433" 
d="M217 534c-53 0 -95 41 -95 95s42 95 95 95s95 -41 95 -95s-42 -95 -95 -95zM217 576c29 0 51 23 51 53s-22 53 -51 53s-51 -23 -51 -53s22 -53 51 -53z" />
    <glyph glyph-name="ring.cap" horiz-adv-x="433" 
d="M217 728c-53 0 -95 41 -95 95s42 95 95 95s95 -41 95 -95s-42 -95 -95 -95zM217 770c29 0 51 23 51 53s-22 53 -51 53s-51 -23 -51 -53s22 -53 51 -53z" />
    <glyph glyph-name="hungarumlaut" unicode="&#x2dd;" horiz-adv-x="433" 
d="M294 570c-9 -15 -19 -21 -31 -21c-18 0 -33 13 -33 32c0 7 2 15 6 22l50 85c9 15 20 20 33 20c18 0 34 -13 34 -31c0 -8 -3 -16 -7 -23zM149 570c-9 -15 -19 -21 -31 -21c-18 0 -33 13 -33 32c0 7 2 15 6 22l50 85c9 15 20 20 33 20c18 0 34 -13 34 -31
c0 -8 -3 -16 -7 -23z" />
    <glyph glyph-name="hungarumlaut.cap" horiz-adv-x="433" 
d="M291 771c-8 -11 -18 -17 -29 -17c-17 0 -33 12 -33 31c0 8 3 17 8 25l50 74c8 11 18 17 30 17c18 0 34 -13 34 -32c0 -8 -3 -17 -9 -25zM149 771c-8 -11 -18 -17 -29 -17c-17 0 -33 12 -33 31c0 8 3 17 8 25l50 74c8 11 19 17 30 17c18 0 34 -13 34 -32
c0 -8 -3 -17 -9 -25z" />
    <glyph glyph-name="dotaccent" unicode="&#x2d9;" horiz-adv-x="433" 
d="M217 575c-31 0 -55 25 -55 55c0 31 24 55 55 55c30 0 55 -24 55 -55c0 -30 -25 -55 -55 -55z" />
    <glyph glyph-name="dotaccent.cap" horiz-adv-x="433" 
d="M217 766c-31 0 -55 24 -55 55c0 30 24 55 55 55c30 0 55 -25 55 -55c0 -31 -25 -55 -55 -55z" />
    <glyph glyph-name="cedilla" unicode="&#xb8;" horiz-adv-x="433" 
d="M228 -136c-6 -18 -18 -26 -34 -26c-20 0 -35 12 -35 33c0 5 2 13 4 19l41 110c3 8 6 10 13 10h51c6 0 9 -4 7 -10z" />
    <glyph glyph-name="ogonek" unicode="&#x2db;" horiz-adv-x="433" 
d="M220 -179c-50 0 -82 29 -82 77c0 35 20 69 64 102c10 8 17 10 25 10h62c6 0 7 -7 2 -10c-64 -42 -82 -68 -82 -90c0 -16 9 -24 23 -24c7 0 12 1 19 4c5 2 11 3 16 3c16 0 27 -13 27 -29c0 -11 -5 -21 -16 -28c-15 -9 -36 -15 -58 -15z" />
    <glyph glyph-name="commaaccent" horiz-adv-x="433" 
d="M240 -189c-6 -20 -19 -31 -36 -31c-22 0 -39 15 -39 37c0 5 1 11 3 17l28 87c6 20 19 30 36 30c22 0 40 -13 40 -35c0 -6 -1 -13 -3 -19z" />
    <glyph glyph-name="commaaccent.alt" horiz-adv-x="433" 
d="M244 592c-7 -20 -19 -31 -36 -31c-21 0 -39 12 -39 35c0 6 1 13 3 19l29 90c7 20 19 31 36 31c21 0 38 -13 38 -36c0 -6 -2 -14 -3 -18z" />
    <glyph glyph-name="ellipsis" unicode="&#x2026;" horiz-adv-x="702" 
d="M585 -5c-31 0 -57 26 -57 57s26 57 57 57s57 -26 57 -57s-26 -57 -57 -57zM351 -5c-31 0 -57 26 -57 57s26 57 57 57s57 -26 57 -57s-26 -57 -57 -57zM117 -5c-31 0 -57 26 -57 57s26 57 57 57s57 -26 57 -57s-26 -57 -57 -57z" />
    <glyph glyph-name="uni00AD" unicode="&#xad;" horiz-adv-x="380" 
d="M301 227h-216c-25 0 -41 17 -41 39s16 39 41 39h216c25 0 41 -17 41 -39s-16 -39 -41 -39z" />
    <glyph glyph-name="exclamdown" unicode="&#xa1;" horiz-adv-x="282" 
d="M141 297c25 0 42 -16 42 -44v-414c0 -28 -17 -45 -42 -45s-42 17 -42 45v414c0 28 17 44 42 44zM198 427c0 -31 -26 -57 -57 -57s-57 26 -57 57s26 57 57 57s57 -26 57 -57z" />
    <glyph glyph-name="questiondown" unicode="&#xbf;" horiz-adv-x="456" 
d="M233 301c24 0 42 -16 42 -43v-15c0 -38 -9 -66 -37 -100l-55 -72c-40 -52 -51 -75 -51 -111c0 -59 40 -94 97 -94c53 0 87 27 101 75c8 24 23 34 41 34c23 0 40 -15 40 -38c0 -4 -1 -11 -3 -20c-20 -73 -84 -129 -181 -129c-108 0 -181 72 -181 170c0 53 18 89 57 140
l55 72c26 34 33 50 33 78v10c0 27 18 43 42 43zM290 427c0 -31 -26 -57 -57 -57s-57 26 -57 57s26 57 57 57s57 -26 57 -57z" />
    <glyph glyph-name="quoteleft" unicode="&#x2018;" horiz-adv-x="215" 
d="M88 483c-22 0 -38 15 -38 37c0 6 1 14 3 20l37 114c6 20 19 31 37 31c22 0 38 -15 38 -37c0 -6 -1 -14 -3 -20l-37 -114c-6 -20 -19 -31 -37 -31z" />
    <glyph glyph-name="quoteright" unicode="&#x2019;" horiz-adv-x="215" 
d="M88 483c-22 0 -38 15 -38 37c0 6 1 14 3 20l37 114c6 20 19 31 37 31c22 0 38 -15 38 -37c0 -6 -1 -14 -3 -20l-37 -114c-6 -20 -19 -31 -37 -31z" />
    <glyph glyph-name="quotedblleft" unicode="&#x201c;" horiz-adv-x="368" 
d="M241 483c-22 0 -38 15 -38 37c0 6 1 14 3 20l37 114c6 20 19 31 37 31c22 0 38 -15 38 -37c0 -6 -1 -14 -3 -20l-37 -114c-6 -20 -19 -31 -37 -31zM88 483c-22 0 -38 15 -38 37c0 6 1 14 3 20l37 114c6 20 19 31 37 31c22 0 38 -15 38 -37c0 -6 -1 -14 -3 -20l-37 -114
c-6 -20 -19 -31 -37 -31z" />
    <glyph glyph-name="quotedblright" unicode="&#x201d;" horiz-adv-x="368" 
d="M241 483c-22 0 -38 15 -38 37c0 6 1 14 3 20l37 114c6 20 19 31 37 31c22 0 38 -15 38 -37c0 -6 -1 -14 -3 -20l-37 -114c-6 -20 -19 -31 -37 -31zM88 483c-22 0 -38 15 -38 37c0 6 1 14 3 20l37 114c6 20 19 31 37 31c22 0 38 -15 38 -37c0 -6 -1 -14 -3 -20l-37 -114
c-6 -20 -19 -31 -37 -31z" />
    <glyph glyph-name="quotesinglbase" unicode="&#x201a;" horiz-adv-x="215" 
d="M88 -119c-22 0 -38 15 -38 37c0 6 1 14 3 20l37 114c6 20 19 31 37 31c22 0 38 -15 38 -37c0 -6 -1 -14 -3 -20l-37 -114c-6 -20 -19 -31 -37 -31z" />
    <glyph glyph-name="quotedblbase" unicode="&#x201e;" horiz-adv-x="368" 
d="M241 -119c-22 0 -38 15 -38 37c0 6 1 14 3 20l37 114c6 20 19 31 37 31c22 0 38 -15 38 -37c0 -6 -1 -14 -3 -20l-37 -114c-6 -20 -19 -31 -37 -31zM88 -119c-22 0 -38 15 -38 37c0 6 1 14 3 20l37 114c6 20 19 31 37 31c22 0 38 -15 38 -37c0 -6 -1 -14 -3 -20l-37 -114
c-6 -20 -19 -31 -37 -31z" />
    <glyph glyph-name="guilsinglleft" unicode="&#x2039;" horiz-adv-x="320" 
d="M225 85c-10 0 -19 5 -26 12l-132 133c-13 13 -18 22 -18 34s5 21 18 34l132 133c7 7 16 12 26 12c19 0 33 -14 33 -32c0 -8 -4 -18 -12 -26l-115 -117c-3 -3 -3 -5 0 -8l115 -117c8 -8 12 -18 12 -26c0 -18 -14 -32 -33 -32z" />
    <glyph glyph-name="guilsinglright" unicode="&#x203a;" horiz-adv-x="320" 
d="M95 85c-19 0 -33 14 -33 32c0 8 4 18 12 26l115 117c3 3 3 5 0 8l-115 117c-8 8 -12 18 -12 26c0 18 14 32 33 32c10 0 19 -5 26 -12l132 -133c13 -13 18 -22 18 -34s-5 -21 -18 -34l-132 -133c-7 -7 -16 -12 -26 -12z" />
    <glyph glyph-name="guillemotleft" unicode="&#xab;" horiz-adv-x="535" 
d="M440 85c-10 0 -19 5 -26 12l-132 133c-13 13 -18 22 -18 34s5 21 18 34l132 133c7 7 16 12 26 12c19 0 33 -14 33 -32c0 -8 -4 -18 -12 -26l-115 -117c-3 -3 -3 -5 0 -8l115 -117c8 -8 12 -18 12 -26c0 -18 -14 -32 -33 -32zM225 85c-10 0 -19 5 -26 12l-132 133
c-13 13 -18 22 -18 34s5 21 18 34l132 133c7 7 16 12 26 12c19 0 33 -14 33 -32c0 -8 -4 -18 -12 -26l-115 -117c-3 -3 -3 -5 0 -8l115 -117c8 -8 12 -18 12 -26c0 -18 -14 -32 -33 -32z" />
    <glyph glyph-name="guillemotright" unicode="&#xbb;" horiz-adv-x="535" 
d="M310 85c-19 0 -33 14 -33 32c0 8 4 18 12 26l115 117c3 3 3 5 0 8l-115 117c-8 8 -12 18 -12 26c0 18 14 32 33 32c10 0 19 -5 26 -12l132 -133c13 -13 18 -22 18 -34s-5 -21 -18 -34l-132 -133c-7 -7 -16 -12 -26 -12zM95 85c-19 0 -33 14 -33 32c0 8 4 18 12 26
l115 117c3 3 3 5 0 8l-115 117c-8 8 -12 18 -12 26c0 18 14 32 33 32c10 0 19 -5 26 -12l132 -133c13 -13 18 -22 18 -34s-5 -21 -18 -34l-132 -133c-7 -7 -16 -12 -26 -12z" />
    <glyph glyph-name="endash" unicode="&#x2013;" horiz-adv-x="512" 
d="M452 229h-392c-25 0 -40 15 -40 37s15 37 40 37h392c25 0 40 -15 40 -37s-15 -37 -40 -37z" />
    <glyph glyph-name="emdash" unicode="&#x2014;" horiz-adv-x="850" 
d="M790 229h-730c-25 0 -40 15 -40 37s15 37 40 37h730c26 0 40 -15 40 -37s-14 -37 -40 -37z" />
    <glyph glyph-name="bullet" unicode="&#x2022;" horiz-adv-x="444" 
d="M222 180c-70 0 -128 58 -128 128s58 128 128 128s128 -58 128 -128s-58 -128 -128 -128z" />
    <glyph glyph-name="periodcentered" unicode="&#xb7;" horiz-adv-x="236" 
d="M118 207c-31 0 -57 26 -57 57s26 57 57 57s57 -26 57 -57s-26 -57 -57 -57z" />
    <glyph glyph-name="uni2219" unicode="&#x2219;" horiz-adv-x="236" 
d="M118 207c-31 0 -57 26 -57 57s26 57 57 57s57 -26 57 -57s-26 -57 -57 -57z" />
    <glyph glyph-name="dagger" unicode="&#x2020;" horiz-adv-x="494" 
d="M247 -185c-24 0 -41 17 -41 44v499c0 4 -2 6 -6 6h-114c-25 0 -40 16 -40 38s15 38 40 38h114c4 0 6 2 6 6v195c0 27 17 44 41 44s41 -17 41 -44v-195c0 -4 2 -6 6 -6h114c25 0 40 -16 40 -38s-15 -38 -40 -38h-114c-4 0 -6 -2 -6 -6v-499c0 -27 -17 -44 -41 -44z" />
    <glyph glyph-name="daggerdbl" unicode="&#x2021;" horiz-adv-x="494" 
d="M294 105h114c25 0 40 -16 40 -38s-15 -38 -40 -38h-114c-4 0 -6 -2 -6 -6v-164c0 -27 -17 -44 -41 -44s-41 17 -41 44v164c0 4 -2 6 -6 6h-114c-25 0 -40 16 -40 38s15 38 40 38h114c4 0 6 2 6 6v278c0 4 -2 6 -6 6h-114c-25 0 -40 16 -40 38s15 38 40 38h114
c4 0 6 2 6 6v164c0 27 17 44 41 44s41 -17 41 -44v-164c0 -4 2 -6 6 -6h114c25 0 40 -16 40 -38s-15 -38 -40 -38h-114c-4 0 -6 -2 -6 -6v-278c0 -4 2 -6 6 -6z" />
    <glyph glyph-name="section" unicode="&#xa7;" horiz-adv-x="556" 
d="M276 -191c-95 0 -152 49 -165 120c-1 5 -2 11 -2 16c0 22 15 37 38 37c17 0 32 -9 37 -30c12 -48 42 -72 91 -72c56 0 91 27 91 82c0 57 -33 87 -127 108c-100 22 -146 85 -146 182c0 73 33 136 100 160v1c-56 30 -77 69 -77 130c0 83 68 148 165 148
c88 0 143 -46 157 -110c1 -4 2 -12 2 -17c0 -22 -14 -35 -37 -35c-17 0 -29 10 -35 29c-12 38 -39 62 -87 62c-53 0 -86 -30 -86 -77c0 -56 32 -88 123 -109c98 -23 145 -83 145 -181c0 -75 -38 -138 -99 -160v-1c50 -24 81 -62 81 -130c0 -96 -71 -153 -169 -153zM278 141
c63 0 106 39 106 111s-43 111 -106 111s-106 -39 -106 -111s43 -111 106 -111z" />
    <glyph glyph-name="paragraph" unicode="&#xb6;" horiz-adv-x="603" 
d="M441 -146v746c0 4 -2 6 -6 6h-84c-4 0 -6 -2 -6 -6v-746c0 -24 -15 -39 -37 -39s-37 15 -37 39v408c-120 8 -196 92 -196 209c0 119 80 209 224 209h180c22 0 36 -14 36 -36v-790c0 -24 -15 -39 -37 -39s-37 15 -37 39z" />
    <glyph glyph-name="brokenbar" unicode="&#xa6;" horiz-adv-x="290" 
d="M181 705v-282c0 -25 -15 -40 -36 -40s-36 15 -36 40v282c0 25 15 40 36 40s36 -15 36 -40zM181 235v-284c0 -25 -15 -40 -36 -40s-36 15 -36 40v284c0 25 15 40 36 40s36 -15 36 -40z" />
    <glyph glyph-name="copyright" unicode="&#xa9;" horiz-adv-x="828" 
d="M414 -11c-198 0 -351 153 -351 351s153 351 351 351s351 -153 351 -351s-153 -351 -351 -351zM414 50c164 0 288 124 288 290s-124 290 -288 290s-288 -124 -288 -290s124 -290 288 -290zM423 143c-75 0 -129 37 -153 106c-7 20 -11 44 -11 91s4 71 11 91
c24 69 78 106 153 106c56 0 97 -24 121 -56c5 -6 8 -14 8 -21c0 -16 -12 -31 -30 -31c-10 0 -19 5 -27 14c-18 21 -37 32 -72 32c-42 0 -74 -18 -88 -60c-5 -16 -8 -34 -8 -75s3 -59 8 -75c14 -42 46 -60 88 -60c35 0 54 11 72 32c8 9 17 14 27 14c18 0 30 -15 30 -31
c0 -7 -3 -15 -8 -21c-24 -32 -65 -56 -121 -56z" />
    <glyph glyph-name="registered" unicode="&#xae;" horiz-adv-x="452" 
d="M226 301c-108 0 -191 83 -191 192c0 108 83 191 191 191c109 0 191 -83 191 -191c0 -109 -82 -192 -191 -192zM226 334c90 0 157 68 157 159s-67 158 -157 158s-157 -67 -157 -158s67 -159 157 -159zM171 385c-12 0 -19 8 -19 21v175c0 12 8 19 19 19h70
c45 0 71 -24 71 -63c0 -29 -13 -50 -39 -58l33 -65c2 -3 3 -8 3 -11c0 -10 -7 -17 -18 -17c-8 0 -14 4 -18 12l-39 75h-41c-3 0 -3 -1 -3 -4v-63c0 -13 -8 -21 -19 -21zM239 507c24 0 35 11 35 30s-11 29 -35 29h-45c-3 0 -4 -1 -4 -4v-51c0 -2 1 -4 4 -4h45z" />
    <glyph glyph-name="trademark" unicode="&#x2122;" horiz-adv-x="833" 
d="M751 283c-18 0 -30 12 -30 31v226h-2l-84 -177c-8 -17 -19 -24 -35 -24c-15 0 -26 7 -34 24l-84 177h-2v-226c0 -19 -14 -31 -30 -31c-18 0 -31 12 -31 31v335c0 21 13 34 33 34c17 0 28 -9 38 -30l109 -234h4l109 234c10 21 19 30 37 30c20 0 32 -13 32 -34v-335
c0 -19 -13 -31 -30 -31zM194 283c-19 0 -32 13 -32 34v299c0 4 -2 6 -6 6h-88c-19 0 -30 13 -30 29s11 29 30 29h252c19 0 30 -13 30 -29s-11 -29 -30 -29h-88c-4 0 -6 -2 -6 -6v-299c0 -21 -14 -34 -32 -34z" />
    <glyph glyph-name="currency" unicode="&#xa4;" 
d="M271 126c-42 0 -81 12 -112 33l-46 -46c-9 -8 -17 -12 -28 -12c-21 0 -37 18 -37 37c0 11 5 19 12 27l47 47c-21 31 -32 69 -32 111s12 79 32 111l-47 48c-7 8 -12 16 -12 27c0 19 16 37 37 37c11 0 19 -4 28 -12l46 -47c32 21 70 33 112 33s80 -13 112 -34l47 48
c7 7 17 12 28 12c21 0 37 -18 37 -37c0 -11 -5 -19 -12 -27l-48 -49c20 -31 32 -69 32 -110c0 -42 -12 -79 -32 -110l48 -48c7 -8 12 -16 12 -27c0 -19 -16 -37 -37 -37c-11 0 -19 4 -28 12l-47 47c-31 -22 -70 -34 -112 -34zM271 196c73 0 125 55 125 127s-52 127 -125 127
c-72 0 -125 -55 -125 -127s53 -127 125 -127z" />
    <glyph glyph-name="Euro" unicode="&#x20ac;" 
d="M78 310h26c4 0 6 2 6 6v54c0 4 -2 6 -6 6h-26c-22 0 -34 12 -34 31s12 31 34 31h26c4 0 6 2 6 6c0 53 4 84 14 113c28 88 95 134 192 134c89 0 149 -49 175 -101c3 -6 5 -15 5 -21c0 -21 -18 -36 -38 -36c-15 0 -27 10 -38 25c-23 33 -55 55 -104 55
c-55 0 -93 -25 -110 -77c-7 -22 -10 -42 -10 -92c0 -4 2 -6 6 -6h182c22 0 34 -12 34 -31s-12 -31 -34 -31h-182c-4 0 -6 -2 -6 -6v-54c0 -4 2 -6 6 -6h142c22 0 34 -12 34 -31s-12 -31 -34 -31h-142c-4 0 -6 -2 -6 -6c0 -56 3 -76 10 -98c17 -52 55 -77 110 -77
c49 0 81 22 104 55c11 15 23 25 38 25c20 0 38 -15 38 -36c0 -6 -2 -15 -5 -21c-26 -52 -86 -101 -175 -101c-97 0 -164 46 -192 134c-10 29 -14 59 -14 119c0 4 -2 6 -6 6h-26c-22 0 -34 12 -34 31s12 31 34 31z" />
    <glyph glyph-name="cent" unicode="&#xa2;" 
d="M290 -105c-14 0 -23 9 -23 25v71c-82 8 -142 52 -166 127c-9 29 -15 68 -15 122c0 53 6 92 15 121c24 75 84 119 166 127v71c0 16 9 25 23 25s23 -9 23 -25v-70c65 -5 111 -35 139 -70c8 -11 12 -20 12 -31c0 -21 -16 -37 -37 -37c-15 0 -26 8 -37 20
c-19 20 -42 36 -77 40v-343c35 4 58 19 77 40c11 12 22 20 37 20c21 0 37 -16 37 -37c0 -11 -4 -20 -12 -31c-28 -36 -74 -65 -139 -70v-70c0 -16 -9 -25 -23 -25zM183 142c13 -42 42 -66 84 -73v341c-42 -7 -71 -32 -84 -73c-8 -25 -11 -55 -11 -97c0 -43 3 -73 11 -98z
" />
    <glyph glyph-name="sterling" unicode="&#xa3;" 
d="M430 0h-303c-26 0 -41 16 -41 38c0 17 7 30 26 51c20 23 27 44 27 84v105c0 4 -2 6 -6 6h-28c-23 0 -37 14 -37 34s14 34 37 34h28c4 0 6 2 6 6v153c0 115 64 180 164 180c80 0 128 -44 147 -101c2 -6 3 -13 3 -18c0 -23 -16 -38 -38 -38c-18 0 -31 10 -39 28
c-15 32 -36 51 -73 51c-48 0 -80 -30 -80 -92v-163c0 -4 2 -6 7 -6h108c23 0 37 -14 37 -34s-14 -34 -37 -34h-108c-5 0 -7 -2 -7 -6v-91c0 -48 -8 -83 -30 -108v-1h237c26 0 40 -17 40 -39s-14 -39 -40 -39z" />
    <glyph glyph-name="florin" unicode="&#x192;" 
d="M407 335h-82l-56 -364c-17 -112 -62 -151 -160 -151h-6c-26 0 -40 16 -40 37c0 22 14 39 40 39c52 0 75 17 84 75l56 364h-56c-23 0 -37 14 -37 34s14 34 37 34h66l20 126c17 112 62 151 160 151h6c25 0 39 -16 39 -37c0 -22 -14 -39 -39 -39c-53 0 -75 -17 -84 -75
l-20 -126h72c23 0 36 -14 36 -34s-13 -34 -36 -34z" />
    <glyph glyph-name="yen" unicode="&#xa5;" 
d="M223 148h-109c-22 0 -34 12 -34 31s12 31 34 31h109c4 0 6 2 6 6v51c0 4 -2 6 -6 6h-109c-22 0 -34 12 -34 31s12 31 34 31h91v2l-138 287c-4 8 -5 15 -5 22c0 21 16 39 42 39c17 0 29 -10 37 -27l131 -288h3l127 288c7 17 19 27 37 27c25 0 41 -18 41 -39
c0 -7 -2 -14 -5 -22l-138 -287v-2h91c22 0 34 -12 34 -31s-12 -31 -34 -31h-109c-4 0 -6 -2 -6 -6v-51c0 -4 2 -6 6 -6h109c22 0 34 -12 34 -31s-12 -31 -34 -31h-109c-4 0 -6 -2 -6 -6v-102c0 -28 -18 -45 -42 -45c-25 0 -42 17 -42 45v102c0 4 -2 6 -6 6z" />
    <glyph glyph-name="ordfeminine" unicode="&#xaa;" horiz-adv-x="343" 
d="M287 388c-14 0 -24 8 -30 18l-8 14h-1c-17 -19 -48 -34 -94 -34c-72 0 -115 33 -115 88c0 62 47 92 125 92h59c4 0 6 2 6 6v9c0 31 -16 47 -66 47c-28 0 -44 -4 -63 -12c-6 -3 -12 -6 -21 -6c-14 0 -26 13 -26 28c0 11 4 19 15 27c21 14 55 23 101 23
c87 0 127 -37 127 -111v-80c0 -13 3 -25 9 -36l11 -20c5 -9 6 -15 6 -21c0 -19 -14 -32 -35 -32zM160 442c43 0 69 17 69 46v22c0 4 -2 6 -6 6h-54c-45 0 -63 -14 -63 -38c0 -23 19 -36 54 -36z" />
    <glyph glyph-name="ordmasculine" unicode="&#xba;" horiz-adv-x="351" 
d="M175 384c-65 0 -110 27 -128 84c-6 18 -9 39 -9 68s3 50 9 68c18 57 63 84 128 84c66 0 110 -27 129 -84c6 -18 9 -39 9 -68s-3 -50 -9 -68c-19 -57 -63 -84 -129 -84zM175 447c32 0 51 14 61 42c4 12 6 26 6 47s-2 35 -6 47c-10 28 -29 42 -61 42c-31 0 -50 -14 -60 -42
c-4 -12 -6 -26 -6 -47s2 -35 6 -47c10 -28 29 -42 60 -42z" />
    <glyph glyph-name="onesuperior" unicode="&#xb9;" horiz-adv-x="341" 
d="M197 427c-20 0 -34 14 -34 37v292h-1l-39 -27c-7 -4 -14 -6 -21 -6c-17 0 -29 13 -29 31c0 11 6 22 17 29l58 39c14 10 28 17 45 17c24 0 37 -14 37 -39v-336c0 -23 -14 -37 -33 -37z" />
    <glyph glyph-name="twosuperior" unicode="&#xb2;" horiz-adv-x="341" 
d="M130 491h140c21 0 33 -13 33 -30c0 -18 -12 -31 -33 -31h-200c-21 0 -33 12 -33 31c0 15 8 28 24 44l137 159c20 23 31 42 31 64c0 32 -21 54 -57 54c-31 0 -53 -14 -63 -39c-8 -16 -19 -24 -32 -24c-18 0 -31 12 -31 29c0 5 1 12 3 17c14 39 57 78 124 78
c76 0 123 -50 123 -115c0 -39 -13 -67 -44 -100l-122 -135v-2z" />
    <glyph glyph-name="threesuperior" unicode="&#xb3;" horiz-adv-x="341" 
d="M164 608c-21 0 -33 13 -33 31c0 17 12 30 33 30c37 0 61 22 61 58c0 34 -22 55 -59 55c-29 0 -42 -10 -56 -28c-10 -14 -20 -20 -33 -20c-17 0 -30 11 -30 28c0 5 1 10 3 16c15 35 57 65 118 65c78 0 125 -46 125 -111c0 -38 -17 -68 -46 -87v-1c26 -11 55 -46 55 -98
c0 -73 -52 -123 -131 -123c-62 0 -104 29 -124 68c-3 6 -4 12 -4 17c0 16 13 29 30 29c14 0 23 -6 33 -21c12 -17 32 -32 64 -32c39 0 65 24 65 62c0 37 -26 62 -71 62z" />
    <glyph glyph-name="fraction" unicode="&#x2044;" horiz-adv-x="224" 
d="M-84 3c-6 -11 -15 -18 -28 -18c-16 0 -28 12 -28 29c0 6 2 12 5 18l374 645c6 11 15 18 28 18c16 0 28 -12 28 -29c0 -6 -2 -12 -5 -18z" />
    <glyph glyph-name="uni2215" unicode="&#x2215;" horiz-adv-x="224" 
d="M-84 3c-6 -11 -15 -18 -28 -18c-16 0 -28 12 -28 29c0 6 2 12 5 18l374 645c6 11 15 18 28 18c16 0 28 -12 28 -29c0 -6 -2 -12 -5 -18z" />
    <glyph glyph-name="onehalf" unicode="&#xbd;" horiz-adv-x="876" 
d="M206 271c-20 0 -34 14 -34 37v292h-1l-39 -27c-7 -4 -14 -6 -21 -6c-17 0 -29 13 -29 31c0 11 6 22 17 29l58 39c14 10 28 17 45 17c24 0 37 -14 37 -39v-336c0 -23 -14 -37 -33 -37zM614 61h140c21 0 33 -13 33 -30c0 -18 -12 -31 -33 -31h-200c-21 0 -33 12 -33 31
c0 15 8 28 24 44l137 159c20 23 31 42 31 64c0 32 -21 54 -57 54c-31 0 -53 -14 -63 -39c-8 -16 -19 -24 -32 -24c-18 0 -31 12 -31 29c0 5 1 12 3 17c14 39 57 78 124 78c76 0 123 -50 123 -115c0 -39 -13 -67 -44 -100l-122 -135v-2zM245 3c-6 -11 -15 -18 -28 -18
c-16 0 -28 12 -28 29c0 6 2 12 5 18l374 645c6 11 15 18 28 18c16 0 28 -12 28 -29c0 -6 -2 -12 -5 -18z" />
    <glyph glyph-name="onethird" unicode="&#x2153;" horiz-adv-x="885" 
d="M206 271c-20 0 -34 14 -34 37v292h-1l-39 -27c-7 -4 -14 -6 -21 -6c-17 0 -29 13 -29 31c0 11 6 22 17 29l58 39c14 10 28 17 45 17c24 0 37 -14 37 -39v-336c0 -23 -14 -37 -33 -37zM245 3c-6 -11 -15 -18 -28 -18c-16 0 -28 12 -28 29c0 6 2 12 5 18l374 645
c6 11 15 18 28 18c16 0 28 -12 28 -29c0 -6 -2 -12 -5 -18zM660 178c-21 0 -33 13 -33 31c0 17 12 30 33 30c37 0 61 22 61 58c0 34 -22 55 -59 55c-29 0 -42 -10 -56 -28c-10 -14 -20 -20 -33 -20c-17 0 -30 11 -30 28c0 5 1 10 3 16c15 35 57 65 118 65
c78 0 125 -46 125 -111c0 -38 -17 -68 -46 -87v-1c26 -11 55 -46 55 -98c0 -73 -52 -123 -131 -123c-62 0 -104 29 -124 68c-3 6 -4 12 -4 17c0 16 13 29 30 29c14 0 23 -6 33 -21c12 -17 32 -32 64 -32c39 0 65 24 65 62c0 37 -26 62 -71 62z" />
    <glyph glyph-name="onequarter" unicode="&#xbc;" horiz-adv-x="844" 
d="M206 271c-20 0 -34 14 -34 37v292h-1l-39 -27c-7 -4 -14 -6 -21 -6c-17 0 -29 13 -29 31c0 11 6 22 17 29l58 39c14 10 28 17 45 17c24 0 37 -14 37 -39v-336c0 -23 -14 -37 -33 -37zM676 -3c-20 0 -33 13 -33 34v30c0 4 -2 6 -6 6h-142c-19 0 -34 12 -34 32
c0 12 5 26 15 46l116 242c7 15 18 23 31 23c18 0 33 -12 33 -31c0 -6 -1 -12 -5 -19l-111 -231v-1h97c4 0 6 2 6 6v66c0 22 13 35 33 35c18 0 32 -13 32 -35v-66c0 -4 2 -6 6 -6h13c20 0 32 -13 32 -30c0 -18 -12 -31 -32 -31h-13c-4 0 -6 -2 -6 -6v-30
c0 -21 -14 -34 -32 -34zM245 3c-6 -11 -15 -18 -28 -18c-16 0 -28 12 -28 29c0 6 2 12 5 18l374 645c6 11 15 18 28 18c16 0 28 -12 28 -29c0 -6 -2 -12 -5 -18z" />
    <glyph glyph-name="oneeighth" unicode="&#x215b;" horiz-adv-x="887" 
d="M206 271c-20 0 -34 14 -34 37v292h-1l-39 -27c-7 -4 -14 -6 -21 -6c-17 0 -29 13 -29 31c0 11 6 22 17 29l58 39c14 10 28 17 45 17c24 0 37 -14 37 -39v-336c0 -23 -14 -37 -33 -37zM658 -7c-80 0 -137 49 -137 123c0 45 23 79 55 98v1c-25 16 -45 44 -45 81
c0 63 47 117 127 117s128 -54 128 -117c0 -37 -21 -65 -45 -81v-1c32 -19 55 -53 55 -98c0 -74 -58 -123 -138 -123zM658 241c35 0 60 24 60 55c0 32 -25 56 -60 56c-34 0 -59 -24 -59 -56c0 -31 25 -55 59 -55zM658 54c40 0 70 27 70 64c0 38 -30 65 -70 65
s-69 -27 -69 -65c0 -37 29 -64 69 -64zM245 3c-6 -11 -15 -18 -28 -18c-16 0 -28 12 -28 29c0 6 2 12 5 18l374 645c6 11 15 18 28 18c16 0 28 -12 28 -29c0 -6 -2 -12 -5 -18z" />
    <glyph glyph-name="twothirds" unicode="&#x2154;" horiz-adv-x="981" 
d="M178 335h140c21 0 33 -13 33 -30c0 -18 -12 -31 -33 -31h-200c-21 0 -33 12 -33 31c0 15 8 28 24 44l137 159c20 23 31 42 31 64c0 32 -21 54 -57 54c-31 0 -53 -14 -63 -39c-8 -16 -19 -24 -32 -24c-18 0 -31 12 -31 29c0 5 1 12 3 17c14 39 57 78 124 78
c76 0 123 -50 123 -115c0 -39 -13 -67 -44 -100l-122 -135v-2zM336 3c-6 -11 -15 -18 -28 -18c-16 0 -28 12 -28 29c0 6 2 12 5 18l374 645c6 11 15 18 28 18c16 0 28 -12 28 -29c0 -6 -2 -12 -5 -18zM750 178c-21 0 -33 13 -33 31c0 17 12 30 33 30c37 0 61 22 61 58
c0 34 -22 55 -59 55c-29 0 -42 -10 -56 -28c-10 -14 -20 -20 -33 -20c-17 0 -30 11 -30 28c0 5 1 10 3 16c15 35 57 65 118 65c78 0 125 -46 125 -111c0 -38 -17 -68 -46 -87v-1c26 -11 55 -46 55 -98c0 -73 -52 -123 -131 -123c-62 0 -104 29 -124 68c-3 6 -4 12 -4 17
c0 16 13 29 30 29c14 0 23 -6 33 -21c12 -17 32 -32 64 -32c39 0 65 24 65 62c0 37 -26 62 -71 62z" />
    <glyph glyph-name="threequarters" unicode="&#xbe;" horiz-adv-x="912" 
d="M737 -3c-20 0 -33 13 -33 34v30c0 4 -2 6 -6 6h-142c-19 0 -34 12 -34 32c0 12 5 26 15 46l116 242c7 15 18 23 31 23c18 0 33 -12 33 -31c0 -6 -1 -12 -5 -19l-111 -231v-1h97c4 0 6 2 6 6v66c0 22 13 35 33 35c18 0 32 -13 32 -35v-66c0 -4 2 -6 6 -6h13
c20 0 32 -13 32 -30c0 -18 -12 -31 -32 -31h-13c-4 0 -6 -2 -6 -6v-30c0 -21 -14 -34 -32 -34zM308 3c-6 -11 -15 -18 -28 -18c-16 0 -28 12 -28 29c0 6 2 12 5 18l374 645c6 11 15 18 28 18c16 0 28 -12 28 -29c0 -6 -2 -12 -5 -18zM220 452c-21 0 -33 13 -33 31
c0 17 12 30 33 30c37 0 61 22 61 58c0 34 -22 55 -59 55c-29 0 -42 -10 -56 -28c-10 -14 -20 -20 -33 -20c-17 0 -30 11 -30 28c0 5 1 10 3 16c15 35 57 65 118 65c78 0 125 -46 125 -111c0 -38 -17 -68 -46 -87v-1c26 -11 55 -46 55 -98c0 -73 -52 -123 -131 -123
c-62 0 -104 29 -124 68c-3 6 -4 12 -4 17c0 16 13 29 30 29c14 0 23 -6 33 -21c12 -17 32 -32 64 -32c39 0 65 24 65 62c0 37 -26 62 -71 62z" />
    <glyph glyph-name="threeeighths" unicode="&#x215c;" horiz-adv-x="956" 
d="M722 -7c-80 0 -137 49 -137 123c0 45 23 79 55 98v1c-25 16 -45 44 -45 81c0 63 47 117 127 117s128 -54 128 -117c0 -37 -21 -65 -45 -81v-1c32 -19 55 -53 55 -98c0 -74 -58 -123 -138 -123zM722 241c35 0 60 24 60 55c0 32 -25 56 -60 56c-34 0 -59 -24 -59 -56
c0 -31 25 -55 59 -55zM722 54c40 0 70 27 70 64c0 38 -30 65 -70 65s-69 -27 -69 -65c0 -37 29 -64 69 -64zM309 3c-6 -11 -15 -18 -28 -18c-16 0 -28 12 -28 29c0 6 2 12 5 18l374 645c6 11 15 18 28 18c16 0 28 -12 28 -29c0 -6 -2 -12 -5 -18zM220 452
c-21 0 -33 13 -33 31c0 17 12 30 33 30c37 0 61 22 61 58c0 34 -22 55 -59 55c-29 0 -42 -10 -56 -28c-10 -14 -20 -20 -33 -20c-17 0 -30 11 -30 28c0 5 1 10 3 16c15 35 57 65 118 65c78 0 125 -46 125 -111c0 -38 -17 -68 -46 -87v-1c26 -11 55 -46 55 -98
c0 -73 -52 -123 -131 -123c-62 0 -104 29 -124 68c-3 6 -4 12 -4 17c0 16 13 29 30 29c14 0 23 -6 33 -21c12 -17 32 -32 64 -32c39 0 65 24 65 62c0 37 -26 62 -71 62z" />
    <glyph glyph-name="fiveeighths" unicode="&#x215d;" horiz-adv-x="948" 
d="M716 -7c-80 0 -137 49 -137 123c0 45 23 79 55 98v1c-25 16 -45 44 -45 81c0 63 47 117 127 117s128 -54 128 -117c0 -37 -21 -65 -45 -81v-1c32 -19 55 -53 55 -98c0 -74 -58 -123 -138 -123zM716 241c35 0 60 24 60 55c0 32 -25 56 -60 56c-34 0 -59 -24 -59 -56
c0 -31 25 -55 59 -55zM716 54c40 0 70 27 70 64c0 38 -30 65 -70 65s-69 -27 -69 -65c0 -37 29 -64 69 -64zM303 3c-6 -11 -15 -18 -28 -18c-16 0 -28 12 -28 29c0 6 2 12 5 18l374 645c6 11 15 18 28 18c16 0 28 -12 28 -29c0 -6 -2 -12 -5 -18zM130 680h183
c21 0 33 -13 33 -31s-12 -30 -33 -30h-143c-4 0 -6 -2 -6 -6v-97h1c13 14 34 24 67 24c56 0 91 -22 108 -68c5 -15 8 -34 8 -66c0 -31 -3 -48 -8 -64c-17 -49 -61 -75 -123 -75c-52 0 -93 21 -113 58c-5 9 -7 17 -7 24c0 17 14 29 32 29c12 0 22 -8 30 -19
c16 -23 32 -30 58 -30c30 0 51 11 59 36c3 9 4 20 4 40c0 16 -1 28 -4 38c-7 22 -26 36 -56 36c-24 0 -40 -9 -51 -22c-12 -13 -22 -18 -37 -18c-19 0 -32 13 -32 34v177c0 18 12 30 30 30z" />
    <glyph glyph-name="seveneighths" unicode="&#x215e;" horiz-adv-x="874" 
d="M650 -7c-80 0 -137 49 -137 123c0 45 23 79 55 98v1c-25 16 -45 44 -45 81c0 63 47 117 127 117s128 -54 128 -117c0 -37 -21 -65 -45 -81v-1c32 -19 55 -53 55 -98c0 -74 -58 -123 -138 -123zM650 241c35 0 60 24 60 55c0 32 -25 56 -60 56c-34 0 -59 -24 -59 -56
c0 -31 25 -55 59 -55zM650 54c40 0 70 27 70 64c0 38 -30 65 -70 65s-69 -27 -69 -65c0 -37 29 -64 69 -64zM211 294c-7 -16 -18 -23 -32 -23c-18 0 -32 12 -32 30c0 5 2 11 4 17l127 299v2h-113c-4 0 -6 -2 -6 -6v-19c0 -20 -13 -34 -33 -34s-33 14 -33 34v56
c0 19 11 30 30 30h200c21 0 32 -13 32 -31c0 -13 -4 -25 -13 -48zM237 3c-6 -11 -15 -18 -28 -18c-16 0 -28 12 -28 29c0 6 2 12 5 18l374 645c6 11 15 18 28 18c16 0 28 -12 28 -29c0 -6 -2 -12 -5 -18z" />
    <glyph glyph-name="perthousand" unicode="&#x2030;" horiz-adv-x="1082" 
d="M200 -15c-16 0 -28 12 -28 29c0 6 1 12 4 18l374 645c6 11 15 18 28 18c16 0 28 -12 28 -29c0 -6 -1 -12 -4 -18l-374 -645c-6 -12 -15 -18 -28 -18zM198 330c-57 0 -99 30 -115 77c-6 19 -8 30 -8 102s2 83 8 102c16 47 58 77 115 77s99 -30 115 -77c6 -19 8 -30 8 -102
s-2 -83 -8 -102c-16 -47 -58 -77 -115 -77zM198 388c26 0 46 12 54 35c3 10 5 24 5 86s-2 76 -5 86c-8 23 -28 35 -54 35s-46 -12 -54 -35c-3 -10 -5 -24 -5 -86s2 -76 5 -86c8 -23 28 -35 54 -35zM884 -9c-57 0 -99 30 -115 77c-6 19 -8 30 -8 102s2 83 8 102
c16 47 58 77 115 77s99 -30 115 -77c6 -19 8 -30 8 -102s-2 -83 -8 -102c-16 -47 -58 -77 -115 -77zM580 -9c-57 0 -99 30 -115 77c-6 19 -8 30 -8 102s2 83 8 102c16 47 58 77 115 77s99 -30 115 -77c6 -19 8 -30 8 -102s-2 -83 -8 -102c-16 -47 -58 -77 -115 -77zM884 49
c26 0 46 12 54 35c3 10 5 24 5 86s-2 76 -5 86c-8 23 -28 35 -54 35s-46 -12 -54 -35c-3 -10 -5 -24 -5 -86s2 -76 5 -86c8 -23 28 -35 54 -35zM580 49c26 0 46 12 54 35c3 10 5 24 5 86s-2 76 -5 86c-8 23 -28 35 -54 35s-46 -12 -54 -35c-3 -10 -5 -24 -5 -86s2 -76 5 -86
c8 -23 28 -35 54 -35z" />
    <glyph glyph-name="minus" unicode="&#x2212;" 
d="M444 239h-346c-26 0 -41 15 -41 37s15 37 41 37h346c26 0 41 -15 41 -37s-15 -37 -41 -37z" />
    <glyph glyph-name="plusminus" unicode="&#xb1;" 
d="M271 125c-22 0 -38 15 -38 42v130c0 4 -2 6 -6 6h-129c-26 0 -41 15 -41 37s15 37 41 37h129c4 0 6 2 6 6v130c0 27 16 42 38 42s38 -15 38 -42v-130c0 -4 2 -6 6 -6h129c26 0 41 -15 41 -37s-15 -37 -41 -37h-129c-4 0 -6 -2 -6 -6v-130c0 -27 -16 -42 -38 -42zM444 0
h-346c-26 0 -41 15 -41 37s15 37 41 37h346c26 0 41 -15 41 -37s-15 -37 -41 -37z" />
    <glyph glyph-name="multiply" unicode="&#xd7;" 
d="M431 168c9 -10 14 -20 14 -29c0 -19 -15 -36 -36 -36c-10 0 -20 4 -30 14l-104 104c-3 4 -5 4 -8 0l-104 -104c-10 -9 -20 -14 -30 -14c-21 0 -35 17 -35 36c0 10 4 20 14 30l104 104c3 3 3 5 0 8l-105 104c-9 10 -14 20 -14 29c0 20 15 37 36 37c10 0 20 -5 30 -15
l104 -104c3 -4 5 -4 8 0l104 104c10 10 20 14 30 14c21 0 36 -17 36 -36c0 -9 -5 -19 -15 -29l-104 -104c-3 -3 -3 -5 0 -8z" />
    <glyph glyph-name="divide" unicode="&#xf7;" 
d="M215 438c0 31 25 56 56 56s56 -25 56 -56s-25 -56 -56 -56s-56 25 -56 56zM444 239h-346c-26 0 -41 15 -41 37s15 37 41 37h346c26 0 41 -15 41 -37s-15 -37 -41 -37zM215 114c0 31 25 56 56 56s56 -25 56 -56s-25 -56 -56 -56s-56 25 -56 56z" />
    <glyph glyph-name="notequal" unicode="&#x2260;" 
d="M444 139h-213l-51 -95c-7 -12 -16 -19 -29 -19c-16 0 -28 10 -28 28c0 6 2 13 4 17l37 69h-66c-26 0 -41 15 -41 37s15 37 41 37h105l68 126h-173c-26 0 -41 15 -41 37s15 37 41 37h213l51 95c7 12 16 19 29 19c16 0 28 -10 28 -28c0 -6 -2 -13 -4 -17l-37 -69h66
c26 0 41 -15 41 -37s-15 -37 -41 -37h-106l-68 -126h174c26 0 41 -15 41 -37s-15 -37 -41 -37z" />
    <glyph glyph-name="approxequal" unicode="&#x2248;" 
d="M476 376c-28 -45 -72 -71 -120 -71c-41 0 -74 19 -101 37c-23 15 -45 28 -71 28s-44 -10 -63 -37c-9 -12 -19 -18 -30 -18c-18 0 -32 13 -32 31c0 7 2 16 7 24c28 45 72 71 120 71c41 0 74 -19 101 -37c23 -15 45 -28 71 -28s44 10 63 37c9 12 19 17 30 17
c18 0 32 -12 32 -30c0 -7 -2 -16 -7 -24zM476 182c-28 -45 -72 -71 -120 -71c-41 0 -74 19 -101 37c-23 15 -45 28 -71 28s-44 -10 -63 -37c-9 -12 -19 -18 -30 -18c-18 0 -32 13 -32 31c0 7 2 16 7 24c28 45 72 71 120 71c41 0 74 -19 101 -37c23 -15 45 -28 71 -28
s44 10 63 37c9 12 19 17 30 17c18 0 32 -12 32 -30c0 -7 -2 -16 -7 -24z" />
    <glyph glyph-name="lessequal" unicode="&#x2264;" 
d="M444 0h-346c-26 0 -41 15 -41 37s15 37 41 37h346c26 0 41 -15 41 -37s-15 -37 -41 -37zM430 160l-332 137c-28 11 -41 27 -41 47s12 35 41 47l332 137c5 2 12 3 18 3c21 0 37 -14 37 -36c0 -17 -9 -30 -27 -37l-285 -113v-2l285 -113c18 -7 27 -20 27 -37
c0 -22 -16 -36 -37 -36c-6 0 -13 1 -18 3z" />
    <glyph glyph-name="greaterequal" unicode="&#x2265;" 
d="M444 0h-346c-26 0 -41 15 -41 37s15 37 41 37h346c26 0 41 -15 41 -37s-15 -37 -41 -37zM444 297l-332 -137c-5 -2 -12 -3 -18 -3c-21 0 -37 14 -37 36c0 17 9 30 27 37l285 113v2l-285 113c-18 7 -27 20 -27 37c0 22 16 36 37 36c6 0 14 -1 18 -3l332 -137
c29 -12 41 -27 41 -47s-13 -36 -41 -47z" />
    <glyph glyph-name="logicalnot" unicode="&#xac;" 
d="M481 276v-133c0 -27 -16 -42 -38 -42s-38 15 -38 42v90c0 4 -2 6 -6 6h-301c-26 0 -41 15 -41 37s15 37 41 37h346c22 0 37 -14 37 -37z" />
    <glyph glyph-name="Delta" unicode="&#x394;" horiz-adv-x="607" 
d="M530 0h-454c-27 0 -42 15 -42 38c0 7 2 14 7 29l205 568c11 32 28 50 58 50c31 0 48 -18 60 -50l202 -568c5 -15 7 -22 7 -29c0 -23 -16 -38 -43 -38zM463 78c4 0 6 3 5 8l-162 463h-3l-164 -463c-2 -5 0 -8 5 -8h319z" />
    <glyph glyph-name="Delta" unicode="&#x2206;" horiz-adv-x="607" 
d="M530 0h-454c-27 0 -42 15 -42 38c0 7 2 14 7 29l205 568c11 32 28 50 58 50c31 0 48 -18 60 -50l202 -568c5 -15 7 -22 7 -29c0 -23 -16 -38 -43 -38zM463 78c4 0 6 3 5 8l-162 463h-3l-164 -463c-2 -5 0 -8 5 -8h319z" />
    <glyph glyph-name="uni0394" horiz-adv-x="607" 
d="M530 0h-454c-27 0 -42 15 -42 38c0 7 2 14 7 29l205 568c11 32 28 50 58 50c31 0 48 -18 60 -50l202 -568c5 -15 7 -22 7 -29c0 -23 -16 -38 -43 -38zM463 78c4 0 6 3 5 8l-162 463h-3l-164 -463c-2 -5 0 -8 5 -8h319z" />
    <glyph glyph-name="Omega" unicode="&#x3a9;" horiz-adv-x="625" 
d="M312 608c-79 0 -126 -42 -146 -105c-11 -33 -16 -73 -16 -163c0 -147 29 -208 93 -247c30 -18 36 -32 36 -52c0 -24 -16 -41 -43 -41h-135c-27 0 -43 17 -43 41s16 41 43 41h49v2c-57 34 -90 106 -90 256c0 97 3 141 19 190c34 104 115 161 233 161
c119 0 200 -57 234 -161c16 -49 19 -93 19 -190c0 -150 -33 -222 -90 -256v-2h49c27 0 43 -17 43 -41s-16 -41 -43 -41h-135c-27 0 -43 17 -43 41c0 20 6 34 36 52c64 39 93 100 93 247c0 90 -5 130 -16 163c-20 63 -67 105 -147 105z" />
    <glyph glyph-name="Omega" unicode="&#x2126;" horiz-adv-x="625" 
d="M312 608c-79 0 -126 -42 -146 -105c-11 -33 -16 -73 -16 -163c0 -147 29 -208 93 -247c30 -18 36 -32 36 -52c0 -24 -16 -41 -43 -41h-135c-27 0 -43 17 -43 41s16 41 43 41h49v2c-57 34 -90 106 -90 256c0 97 3 141 19 190c34 104 115 161 233 161
c119 0 200 -57 234 -161c16 -49 19 -93 19 -190c0 -150 -33 -222 -90 -256v-2h49c27 0 43 -17 43 -41s-16 -41 -43 -41h-135c-27 0 -43 17 -43 41c0 20 6 34 36 52c64 39 93 100 93 247c0 90 -5 130 -16 163c-20 63 -67 105 -147 105z" />
    <glyph glyph-name="uni03A9" horiz-adv-x="625" 
d="M312 608c-79 0 -126 -42 -146 -105c-11 -33 -16 -73 -16 -163c0 -147 29 -208 93 -247c30 -18 36 -32 36 -52c0 -24 -16 -41 -43 -41h-135c-27 0 -43 17 -43 41s16 41 43 41h49v2c-57 34 -90 106 -90 256c0 97 3 141 19 190c34 104 115 161 233 161
c119 0 200 -57 234 -161c16 -49 19 -93 19 -190c0 -150 -33 -222 -90 -256v-2h49c27 0 43 -17 43 -41s-16 -41 -43 -41h-135c-27 0 -43 17 -43 41c0 20 6 34 36 52c64 39 93 100 93 247c0 90 -5 130 -16 163c-20 63 -67 105 -147 105z" />
    <glyph glyph-name="mu" unicode="&#xb5;" horiz-adv-x="546" 
d="M262 -11c-44 0 -76 14 -95 40h-1v-169c0 -28 -17 -45 -42 -45s-42 17 -42 45v579c0 28 18 45 42 45s42 -17 42 -45v-250c0 -77 34 -122 106 -122c65 0 108 46 108 117v255c0 28 18 45 42 45s42 -17 42 -45v-399c0 -28 -18 -45 -42 -45s-42 17 -42 45v14h-1
c-23 -39 -62 -65 -117 -65z" />
    <glyph glyph-name="mu" unicode="&#x3bc;" horiz-adv-x="546" 
d="M262 -11c-44 0 -76 14 -95 40h-1v-169c0 -28 -17 -45 -42 -45s-42 17 -42 45v579c0 28 18 45 42 45s42 -17 42 -45v-250c0 -77 34 -122 106 -122c65 0 108 46 108 117v255c0 28 18 45 42 45s42 -17 42 -45v-399c0 -28 -18 -45 -42 -45s-42 17 -42 45v14h-1
c-23 -39 -62 -65 -117 -65z" />
    <glyph glyph-name="uni03BC" horiz-adv-x="546" 
d="M262 -11c-44 0 -76 14 -95 40h-1v-169c0 -28 -17 -45 -42 -45s-42 17 -42 45v579c0 28 18 45 42 45s42 -17 42 -45v-250c0 -77 34 -122 106 -122c65 0 108 46 108 117v255c0 28 18 45 42 45s42 -17 42 -45v-399c0 -28 -18 -45 -42 -45s-42 17 -42 45v14h-1
c-23 -39 -62 -65 -117 -65z" />
    <glyph glyph-name="pi" unicode="&#x3c0;" horiz-adv-x="578" 
d="M106 40v355c0 4 -3 6 -7 6h-19c-27 0 -41 16 -41 39s14 39 41 39h416c27 0 41 -16 41 -39s-14 -39 -41 -39h-19c-4 0 -6 -2 -6 -6v-298c0 -15 5 -23 21 -24c25 -2 39 -18 39 -40c0 -23 -15 -39 -45 -39h-6c-69 0 -93 41 -93 113v288c0 4 -2 6 -6 6h-185c-4 0 -6 -2 -6 -6
v-355c0 -28 -18 -45 -42 -45s-42 17 -42 45z" />
    <glyph glyph-name="degree" unicode="&#xb0;" horiz-adv-x="456" 
d="M228 397c-84 0 -146 63 -146 146s62 146 146 146s146 -63 146 -146s-62 -146 -146 -146zM228 449c53 0 91 40 91 94s-38 94 -91 94s-91 -40 -91 -94s38 -94 91 -94z" />
    <glyph glyph-name="afii61289" unicode="&#x2113;" horiz-adv-x="410" 
d="M230 -11c-75 0 -114 44 -114 138v76l-10 -8c-10 -8 -18 -11 -27 -11c-20 0 -34 15 -34 34c0 11 5 22 19 33l52 41v210c0 123 45 189 130 189c69 0 116 -51 116 -138c0 -94 -45 -188 -161 -292v-134c0 -42 17 -60 45 -60c16 0 25 5 40 15c10 7 18 10 27 10
c20 0 34 -15 34 -35c0 -10 -5 -21 -14 -29c-26 -25 -64 -39 -103 -39zM201 510v-153c63 68 88 128 88 196c0 43 -16 68 -41 68c-27 0 -47 -23 -47 -111z" />
    <glyph glyph-name="estimated" unicode="&#x212e;" horiz-adv-x="620" 
d="M308 -10c-142 0 -232 111 -232 250c0 141 90 250 232 250c141 0 235 -102 236 -250h-366v-165c35 -33 79 -51 130 -51c76 0 130 32 174 109l33 -22c-56 -84 -111 -121 -207 -121zM441 274v131c-38 36 -81 55 -133 55c-51 0 -95 -19 -130 -55v-131h263z" />
    <glyph glyph-name="eng" unicode="&#x14b;" horiz-adv-x="545" 
d="M330 -180c-26 0 -41 16 -41 38s14 38 38 40c44 4 56 19 56 65v327c0 77 -35 122 -107 122c-65 0 -110 -46 -110 -117v-255c0 -28 -18 -45 -42 -45s-42 17 -42 45v399c0 28 18 45 42 45s42 -17 42 -45v-14h1c23 37 69 65 134 65c104 0 166 -71 166 -180v-346
c0 -102 -40 -144 -137 -144z" />
    <glyph glyph-name="Eng" unicode="&#x14a;" horiz-adv-x="652" 
d="M407 -180c-27 0 -43 17 -43 41s16 41 43 41c51 1 79 25 79 79v19l-315 517h-3v-477c0 -28 -17 -45 -42 -45s-42 17 -42 45v591c0 33 18 54 49 54c26 0 43 -17 60 -46l289 -477h4v478c0 28 17 45 42 45s42 -17 42 -45v-651c0 -119 -54 -169 -163 -169z" />
    <glyph glyph-name="infinity" unicode="&#x221e;" horiz-adv-x="766" 
d="M567 87c-65 0 -120 34 -184 108c-65 -73 -121 -108 -185 -108c-89 0 -156 65 -156 160c0 94 66 160 157 160c62 0 116 -36 183 -112c70 80 121 112 184 112c90 0 158 -64 158 -160c0 -94 -67 -160 -157 -160zM564 149c60 0 96 47 96 99c0 53 -35 97 -96 97
c-42 0 -79 -27 -139 -99c63 -73 96 -97 139 -97zM202 149c41 0 80 29 139 97c-60 71 -96 99 -139 99c-61 0 -96 -43 -96 -97c0 -56 38 -99 96 -99z" />
    <glyph glyph-name="partialdiff" unicode="&#x2202;" 
d="M251 -10c-121 0 -198 88 -198 210c0 123 82 217 201 217c62 0 114 -24 154 -73h1c2 152 -49 271 -161 271c-33 0 -62 -10 -93 -30c-9 -6 -18 -8 -26 -8c-20 0 -35 16 -35 36c0 12 6 23 18 33c33 25 84 45 139 45c159 0 238 -142 238 -338c0 -219 -78 -363 -238 -363z
M257 66c87 0 137 75 148 206c-36 47 -85 73 -138 73c-82 0 -132 -54 -132 -143c0 -82 47 -136 122 -136z" />
    <glyph glyph-name="integral" unicode="&#x222b;" horiz-adv-x="414" 
d="M107 -180c-6 0 -12 0 -20 1c-22 3 -37 15 -37 37s14 38 44 39c49 1 71 26 71 100v553c0 135 45 189 142 190c6 0 12 0 20 -1c22 -3 37 -15 37 -37s-14 -38 -44 -39c-49 -1 -71 -26 -71 -100v-553c0 -135 -45 -189 -142 -190z" />
    <glyph glyph-name="radical" unicode="&#x221a;" horiz-adv-x="629" 
d="M319 -185c-23 0 -37 15 -51 44l-123 253c-2 4 -5 5 -9 3l-54 -25c-5 -2 -12 -4 -18 -4c-17 0 -31 14 -31 33c0 15 8 25 23 32l88 44c6 3 13 5 20 5c14 0 24 -8 31 -22l117 -244h3l214 780c6 20 19 31 37 31c21 0 37 -15 37 -37c0 -4 -1 -9 -2 -13l-232 -836
c-9 -31 -26 -44 -50 -44z" />
    <glyph glyph-name="summation" unicode="&#x2211;" horiz-adv-x="534" 
d="M452 -180h-360c-29 0 -46 17 -46 41c0 16 3 29 21 67l172 392l-168 314c-20 35 -23 48 -23 64c0 24 17 42 46 42h349c27 0 44 -18 44 -42c0 -23 -17 -41 -44 -41h-287l159 -295c7 -14 11 -26 11 -37c0 -13 -3 -24 -10 -38l-169 -384h305c27 0 44 -18 44 -41
c0 -24 -17 -42 -44 -42z" />
    <glyph glyph-name="product" unicode="&#x220f;" horiz-adv-x="652" 
d="M524 -185c-27 0 -45 18 -45 47v789c0 4 -2 6 -6 6h-294c-4 0 -6 -2 -6 -6v-789c0 -29 -18 -47 -45 -47c-26 0 -44 18 -44 47v834c0 27 17 44 44 44h397c26 0 43 -17 43 -44v-834c0 -29 -18 -47 -44 -47z" />
    <glyph glyph-name="lozenge" unicode="&#x25ca;" horiz-adv-x="559" 
d="M280 -57c-24 0 -40 13 -55 44l-155 318c-4 8 -6 16 -6 24s2 16 6 24l155 318c15 31 31 44 55 44c23 0 39 -13 54 -44l155 -318c4 -8 6 -16 6 -24s-2 -16 -6 -24l-155 -318c-15 -31 -31 -44 -54 -44zM282 38l137 291l-139 291h-2l-138 -291l140 -291h2z" />
    <glyph glyph-name="uniF8FF" unicode="&#xf8ff;" horiz-adv-x="477" 
d="M452 0h-427c-16 0 -25 9 -25 25v630c0 16 9 25 25 25h427c16 0 25 -9 25 -25v-630c0 -16 -9 -25 -25 -25zM422 47c4 0 6 2 6 6v574c0 4 -2 6 -6 6h-367c-4 0 -6 -2 -6 -6v-574c0 -4 2 -6 6 -6h367zM227 226c-17 0 -29 12 -29 30v12c0 28 6 44 22 64l39 48
c24 31 32 46 32 70c0 35 -25 60 -61 60c-34 0 -52 -16 -65 -51c-6 -12 -14 -20 -26 -20c-16 0 -27 11 -27 28c0 4 1 10 2 14c13 45 53 81 118 81c71 0 118 -49 118 -111c0 -36 -11 -59 -36 -89l-41 -50c-14 -17 -17 -26 -17 -47v-9c0 -18 -12 -30 -29 -30zM227 109
c-21 0 -38 17 -38 38s17 37 38 37c20 0 37 -16 37 -37s-17 -38 -37 -38z" />
    <glyph glyph-name="zero.onum" 
d="M271 -11c-144 0 -245 109 -245 251s101 250 245 250s245 -108 245 -250s-101 -251 -245 -251zM271 71c96 0 158 76 158 169s-62 168 -158 168s-158 -75 -158 -168s62 -169 158 -169z" />
    <glyph glyph-name="one.onum" 
d="M309 -5c-25 0 -42 17 -42 45v344h-2l-95 -39c-7 -3 -16 -5 -22 -5c-23 0 -39 16 -39 40c0 16 8 30 26 38l114 50c23 10 38 16 57 16c27 0 45 -19 45 -49v-395c0 -28 -17 -45 -42 -45z" />
    <glyph glyph-name="two.onum" 
d="M431 0h-323c-25 0 -38 17 -38 37s11 36 37 52l176 112c80 51 97 76 97 119c0 53 -39 92 -109 92c-56 0 -90 -24 -111 -67c-12 -25 -25 -33 -44 -33c-22 0 -39 14 -39 35c0 5 1 14 3 19c23 72 92 124 192 124c123 0 194 -76 194 -169c0 -71 -35 -118 -116 -167l-122 -74
v-2h203c26 0 41 -16 41 -39s-15 -39 -41 -39z" />
    <glyph glyph-name="three.onum" 
d="M262 -191c-95 0 -169 50 -191 118c-2 5 -3 13 -3 19c0 22 16 37 40 37c17 0 29 -9 40 -28c22 -38 59 -68 113 -68c74 0 121 46 121 127c0 79 -49 125 -143 125c-28 0 -46 17 -46 42c0 18 7 32 25 54l124 164v2h-232c-26 0 -41 18 -41 40c0 23 15 38 41 38h303
c26 0 42 -14 42 -38c0 -16 -7 -29 -25 -52l-133 -175v-2c107 -11 171 -84 171 -199c0 -123 -86 -204 -206 -204z" />
    <glyph glyph-name="four.onum" 
d="M370 -185c-24 0 -42 17 -42 44v135c0 4 -2 6 -6 6h-226c-28 0 -44 17 -44 41c0 15 3 24 15 50l173 364c9 19 22 29 39 29c22 0 40 -16 40 -40c0 -6 -2 -14 -5 -20l-164 -344v-2h172c4 0 6 2 6 6v141c0 28 18 44 42 44s42 -16 42 -44v-141c0 -4 2 -6 6 -6h40
c25 0 41 -16 41 -39s-16 -39 -41 -39h-40c-4 0 -6 -2 -6 -6v-135c0 -27 -18 -44 -42 -44z" />
    <glyph glyph-name="five.onum" 
d="M286 -191c-96 0 -164 50 -185 118c-2 5 -3 13 -3 18c0 22 16 38 41 38c18 0 30 -10 39 -29c20 -42 55 -67 108 -67c47 0 87 24 101 67c6 19 9 46 9 78c0 34 -3 58 -10 77c-15 46 -50 66 -97 66c-44 0 -72 -17 -96 -51c-16 -22 -28 -30 -47 -30c-25 0 -40 16 -40 43v305
c0 23 14 37 37 37h288c26 0 41 -16 41 -39s-15 -39 -41 -39h-241c-4 0 -6 -2 -6 -6v-187h2c18 24 58 45 114 45c83 0 143 -39 167 -112c9 -29 15 -62 15 -109c0 -40 -5 -76 -14 -103c-25 -77 -95 -120 -182 -120z" />
    <glyph glyph-name="six.onum" 
d="M108 352l166 309c8 15 22 24 38 24c22 0 39 -15 39 -38c0 -8 -2 -17 -7 -25l-128 -234l2 -2c13 9 39 16 69 16c107 0 193 -78 193 -202c0 -133 -91 -211 -209 -211c-119 0 -208 78 -208 208c0 54 19 107 45 155zM271 67c74 0 123 53 123 129s-49 128 -123 128
s-122 -52 -122 -128s48 -129 122 -129z" />
    <glyph glyph-name="seven.onum" 
d="M222 -185c-23 0 -40 17 -40 40c0 6 2 12 4 18l209 525v3h-203c-4 0 -6 -3 -6 -7v-54c0 -27 -16 -44 -40 -44s-40 17 -40 44v100c0 24 15 39 40 39h300c29 0 45 -17 45 -43c0 -13 -3 -25 -14 -52l-215 -541c-8 -18 -23 -28 -40 -28z" />
    <glyph glyph-name="eight.onum" 
d="M271 -11c-123 0 -210 82 -210 200c0 80 42 139 96 168v2c-43 24 -80 76 -80 144c0 102 73 188 194 188c122 0 194 -86 194 -188c0 -68 -37 -120 -80 -144v-2c54 -29 96 -88 96 -168c0 -118 -87 -200 -210 -200zM271 396c66 0 108 49 108 109s-43 108 -108 108
s-108 -48 -108 -108s42 -109 108 -109zM271 67c75 0 124 53 124 126c0 72 -49 125 -124 125s-124 -53 -124 -125c0 -73 50 -126 124 -126z" />
    <glyph glyph-name="nine.onum" 
d="M434 127l-154 -288c-8 -15 -22 -24 -38 -24c-22 0 -39 15 -39 38c0 8 2 17 7 25l116 213l-2 2c-13 -9 -39 -16 -69 -16c-107 0 -193 78 -193 202c0 133 91 211 209 211c119 0 208 -78 208 -208c0 -54 -19 -107 -45 -155zM271 412c-74 0 -123 -53 -123 -129
s49 -128 123 -128s122 52 122 128s-48 129 -122 129z" />
    <glyph glyph-name="zero.prop" 
d="M85 118c-8 26 -15 62 -15 222s7 196 15 222c27 83 92 129 186 129s159 -46 186 -129c8 -26 15 -62 15 -222s-7 -196 -15 -222c-27 -83 -92 -129 -186 -129s-159 46 -186 129zM168 135c16 -45 53 -68 103 -68s87 23 103 68c7 21 11 50 11 205s-4 184 -11 205
c-16 45 -53 68 -103 68s-87 -23 -103 -68c-7 -21 -11 -50 -11 -205s4 -184 11 -205z" />
    <glyph glyph-name="one.prop" horiz-adv-x="380" 
d="M174 40v534h-2l-86 -60c-7 -5 -15 -8 -24 -8c-23 0 -39 16 -39 39c0 13 6 26 22 37l110 80c23 17 40 23 58 23c26 0 45 -18 45 -48v-597c0 -28 -18 -45 -42 -45s-42 17 -42 45z" />
    <glyph glyph-name="two.prop" horiz-adv-x="506" 
d="M53 37c0 18 7 32 25 56l232 296c31 40 47 75 47 117c0 62 -41 107 -107 107c-60 0 -93 -32 -108 -82c-7 -22 -22 -33 -39 -33c-25 0 -42 15 -42 39c0 4 1 11 2 15c16 70 77 139 190 139c117 0 190 -79 190 -185c0 -61 -24 -112 -67 -165l-208 -261v-2h241
c26 0 41 -16 41 -39s-15 -39 -41 -39h-315c-26 0 -41 16 -41 37z" />
    <glyph glyph-name="three.prop" horiz-adv-x="524" 
d="M67 107c-2 6 -3 13 -3 19c0 22 17 38 40 38c17 0 30 -10 40 -29c21 -41 56 -68 115 -68c74 0 117 50 117 121c0 75 -49 125 -125 125h-7c-26 0 -41 16 -41 39s15 39 41 39h6c66 0 113 43 113 114c0 65 -41 108 -109 108c-56 0 -87 -28 -104 -65c-9 -19 -22 -29 -39 -29
c-23 0 -39 15 -39 37c0 6 2 15 4 21c21 61 82 114 181 114c119 0 192 -76 192 -182c0 -72 -40 -121 -84 -148v-2c44 -18 97 -78 97 -170c0 -118 -84 -200 -203 -200c-104 0 -166 52 -192 118z" />
    <glyph glyph-name="four.prop" horiz-adv-x="545" 
d="M91 123c-28 0 -44 17 -44 41c0 15 3 24 15 50l205 442c9 19 22 29 39 29c22 0 40 -16 40 -40c0 -6 -2 -14 -5 -20l-196 -423v-2h180c4 0 6 2 6 6v142c0 28 18 44 42 44s42 -16 42 -44v-142c0 -4 2 -6 6 -6h40c25 0 41 -16 41 -39c0 -22 -16 -38 -41 -38h-40
c-4 0 -6 -2 -6 -6v-78c0 -27 -18 -44 -42 -44s-42 17 -42 44v78c0 4 -2 6 -6 6h-234z" />
    <glyph glyph-name="five.prop" horiz-adv-x="523" 
d="M82 107c-2 5 -3 13 -3 18c0 22 16 38 41 38c18 0 30 -10 39 -29c20 -42 55 -67 108 -67c47 0 87 24 101 67c6 19 9 46 9 86c0 42 -3 66 -10 85c-15 46 -50 66 -97 66c-44 0 -72 -17 -96 -51c-16 -22 -28 -30 -47 -30c-25 0 -40 16 -40 43v310c0 23 14 37 37 37h288
c26 0 41 -16 41 -39s-15 -39 -41 -39h-241c-4 0 -6 -2 -6 -6v-192h2c18 24 58 45 114 45c83 0 143 -39 167 -112c9 -29 15 -62 15 -117c0 -48 -5 -84 -14 -111c-25 -77 -95 -120 -182 -120c-96 0 -164 50 -185 118z" />
    <glyph glyph-name="six.prop" horiz-adv-x="537" 
d="M60 197c0 54 19 107 45 155l166 309c8 15 22 24 38 24c22 0 39 -15 39 -38c0 -8 -2 -17 -7 -25l-128 -234l2 -2c13 9 39 16 69 16c107 0 193 -78 193 -202c0 -133 -91 -211 -209 -211c-119 0 -208 78 -208 208zM146 196c0 -76 48 -129 122 -129s123 53 123 129
s-49 128 -123 128s-122 -52 -122 -128z" />
    <glyph glyph-name="seven.prop" horiz-adv-x="495" 
d="M135 35c0 6 2 12 4 18l216 546v3h-207c-4 0 -6 -3 -6 -7v-54c0 -27 -16 -44 -40 -44s-40 17 -40 44v100c0 24 15 39 40 39h304c29 0 45 -17 45 -43c0 -13 -3 -25 -14 -52l-222 -562c-8 -18 -23 -28 -40 -28c-23 0 -40 17 -40 40z" />
    <glyph glyph-name="eight.prop" horiz-adv-x="540" 
d="M60 189c0 80 42 139 96 168v2c-43 24 -80 76 -80 144c0 102 73 188 194 188c122 0 194 -86 194 -188c0 -68 -37 -120 -80 -144v-2c54 -29 96 -88 96 -168c0 -118 -87 -200 -210 -200s-210 82 -210 200zM270 396c66 0 108 49 108 109s-43 108 -108 108s-108 -48 -108 -108
s42 -109 108 -109zM146 193c0 -73 50 -126 124 -126c75 0 124 53 124 126c0 72 -49 125 -124 125s-124 -53 -124 -125z" />
    <glyph glyph-name="nine.prop" horiz-adv-x="537" 
d="M189 33c0 8 2 17 7 25l128 234l-2 2c-13 -9 -39 -16 -69 -16c-107 0 -193 78 -193 202c0 133 91 211 209 211c119 0 208 -78 208 -208c0 -54 -19 -107 -45 -155l-166 -309c-8 -15 -22 -24 -38 -24c-22 0 -39 15 -39 38zM269 356c74 0 122 52 122 128s-48 129 -122 129
s-123 -53 -123 -129s49 -128 123 -128z" />
    <glyph glyph-name="Euro.prop" horiz-adv-x="537" 
d="M75 310h26c4 0 6 2 6 6v54c0 4 -2 6 -6 6h-26c-22 0 -34 12 -34 31s12 31 34 31h26c4 0 6 2 6 6c0 53 4 84 14 113c28 88 95 134 192 134c89 0 149 -49 175 -101c3 -6 5 -15 5 -21c0 -21 -18 -36 -38 -36c-15 0 -27 10 -38 25c-23 33 -55 55 -104 55
c-55 0 -93 -25 -110 -77c-7 -22 -10 -42 -10 -92c0 -4 2 -6 6 -6h182c22 0 34 -12 34 -31s-12 -31 -34 -31h-182c-4 0 -6 -2 -6 -6v-54c0 -4 2 -6 6 -6h142c22 0 34 -12 34 -31s-12 -31 -34 -31h-142c-4 0 -6 -2 -6 -6c0 -56 3 -76 10 -98c17 -52 55 -77 110 -77
c49 0 81 22 104 55c11 15 23 25 38 25c20 0 38 -15 38 -36c0 -6 -2 -15 -5 -21c-26 -52 -86 -101 -175 -101c-97 0 -164 46 -192 134c-10 29 -14 59 -14 119c0 4 -2 6 -6 6h-26c-22 0 -34 12 -34 31s12 31 34 31z" />
    <glyph glyph-name="cent.prop" horiz-adv-x="484" 
d="M258 -105c-14 0 -23 9 -23 25v71c-82 8 -142 52 -166 127c-9 29 -15 68 -15 122c0 53 6 92 15 121c24 75 84 119 166 127v71c0 16 9 25 23 25s23 -9 23 -25v-70c65 -5 111 -35 139 -70c8 -11 12 -20 12 -31c0 -21 -16 -37 -37 -37c-15 0 -26 8 -37 20
c-19 20 -42 36 -77 40v-343c35 4 58 19 77 40c11 12 22 20 37 20c21 0 37 -16 37 -37c0 -11 -4 -20 -12 -31c-28 -36 -74 -65 -139 -70v-70c0 -16 -9 -25 -23 -25zM151 142c13 -42 42 -66 84 -73v341c-42 -7 -71 -32 -84 -73c-8 -25 -11 -55 -11 -97c0 -43 3 -73 11 -98z
" />
    <glyph glyph-name="dollar.prop" horiz-adv-x="535" 
d="M75 39c-14 8 -21 21 -21 35c0 23 15 41 39 41c7 0 16 -2 23 -6c34 -21 81 -39 129 -42v240c-120 22 -180 88 -180 186c0 111 73 187 180 197v39c0 17 10 27 25 27c14 0 24 -10 24 -27v-39c50 -4 92 -19 125 -37c14 -8 22 -20 22 -34c0 -21 -16 -40 -38 -40
c-7 0 -16 2 -23 6c-28 13 -54 23 -86 26v-230c122 -21 182 -86 182 -186c0 -111 -68 -189 -182 -203v-41c0 -17 -10 -27 -24 -27c-15 0 -25 10 -25 27v38c-71 2 -129 25 -170 50zM245 390v221c-60 -8 -98 -50 -98 -111c0 -55 24 -92 98 -110zM294 70c62 11 100 53 100 120
c0 54 -27 91 -100 108v-228z" />
    <glyph glyph-name="sterling.prop" horiz-adv-x="496" 
d="M413 0h-303c-26 0 -41 16 -41 38c0 17 7 30 26 51c20 23 27 44 27 84v105c0 4 -2 6 -6 6h-28c-23 0 -37 14 -37 34s14 34 37 34h28c4 0 6 2 6 6v153c0 115 64 180 164 180c80 0 128 -44 147 -101c2 -6 3 -13 3 -18c0 -23 -16 -38 -38 -38c-18 0 -31 10 -39 28
c-15 32 -36 51 -73 51c-48 0 -80 -30 -80 -92v-163c0 -4 2 -6 7 -6h108c23 0 37 -14 37 -34s-14 -34 -37 -34h-108c-5 0 -7 -2 -7 -6v-91c0 -48 -8 -83 -30 -108v-1h237c26 0 40 -17 40 -39s-14 -39 -40 -39z" />
    <glyph glyph-name="florin.prop" horiz-adv-x="467" 
d="M370 335h-82l-56 -364c-17 -112 -62 -151 -160 -151h-6c-26 0 -40 16 -40 37c0 22 14 39 40 39c52 0 75 17 84 75l56 364h-56c-23 0 -37 14 -37 34s14 34 37 34h66l20 126c17 112 62 151 160 151h6c25 0 39 -16 39 -37c0 -22 -14 -39 -39 -39c-53 0 -75 -17 -84 -75
l-20 -126h72c23 0 36 -14 36 -34s-13 -34 -36 -34z" />
    <glyph glyph-name="yen.prop" horiz-adv-x="518" 
d="M211 148h-109c-22 0 -34 12 -34 31s12 31 34 31h109c4 0 6 2 6 6v51c0 4 -2 6 -6 6h-109c-22 0 -34 12 -34 31s12 31 34 31h91v2l-138 287c-4 8 -5 15 -5 22c0 21 16 39 42 39c17 0 29 -10 37 -27l131 -288h3l127 288c7 17 19 27 37 27c25 0 41 -18 41 -39
c0 -7 -2 -14 -5 -22l-138 -287v-2h91c22 0 34 -12 34 -31s-12 -31 -34 -31h-109c-4 0 -6 -2 -6 -6v-51c0 -4 2 -6 6 -6h109c22 0 34 -12 34 -31s-12 -31 -34 -31h-109c-4 0 -6 -2 -6 -6v-102c0 -28 -18 -45 -42 -45c-25 0 -42 17 -42 45v102c0 4 -2 6 -6 6z" />
    <glyph glyph-name="zero.onumprop" horiz-adv-x="596" 
d="M298 -11c-144 0 -245 109 -245 251s101 250 245 250s245 -108 245 -250s-101 -251 -245 -251zM298 71c96 0 158 76 158 169s-62 168 -158 168s-158 -75 -158 -168s62 -169 158 -169z" />
    <glyph glyph-name="one.onumprop" horiz-adv-x="380" 
d="M232 -5c-25 0 -42 17 -42 45v344h-2l-95 -39c-7 -3 -16 -5 -22 -5c-23 0 -39 16 -39 40c0 16 8 30 26 38l114 50c23 10 38 16 57 16c27 0 45 -19 45 -49v-395c0 -28 -17 -45 -42 -45z" />
    <glyph glyph-name="two.onumprop" horiz-adv-x="509" 
d="M411 0h-323c-25 0 -38 17 -38 37s11 36 37 52l176 112c80 51 97 76 97 119c0 53 -39 92 -109 92c-56 0 -90 -24 -111 -67c-12 -25 -25 -33 -44 -33c-22 0 -39 14 -39 35c0 5 1 14 3 19c23 72 92 124 192 124c123 0 194 -76 194 -169c0 -71 -35 -118 -116 -167l-122 -74
v-2h203c26 0 41 -16 41 -39s-15 -39 -41 -39z" />
    <glyph glyph-name="three.onumprop" horiz-adv-x="504" 
d="M245 -191c-95 0 -169 50 -191 118c-2 5 -3 13 -3 19c0 22 16 37 40 37c17 0 29 -9 40 -28c22 -38 59 -68 113 -68c74 0 121 46 121 127c0 79 -49 125 -143 125c-28 0 -46 17 -46 42c0 18 7 32 25 54l124 164v2h-232c-26 0 -41 18 -41 40c0 23 15 38 41 38h303
c26 0 42 -14 42 -38c0 -16 -7 -29 -25 -52l-133 -175v-2c107 -11 171 -84 171 -199c0 -123 -86 -204 -206 -204z" />
    <glyph glyph-name="four.onumprop" horiz-adv-x="511" 
d="M349 -185c-24 0 -42 17 -42 44v135c0 4 -2 6 -6 6h-226c-28 0 -44 17 -44 41c0 15 3 24 15 50l173 364c9 19 22 29 39 29c22 0 40 -16 40 -40c0 -6 -2 -14 -5 -20l-164 -344v-2h172c4 0 6 2 6 6v141c0 28 18 44 42 44s42 -16 42 -44v-141c0 -4 2 -6 6 -6h40
c25 0 41 -16 41 -39s-16 -39 -41 -39h-40c-4 0 -6 -2 -6 -6v-135c0 -27 -18 -44 -42 -44z" />
    <glyph glyph-name="five.onumprop" horiz-adv-x="514" 
d="M262 -191c-96 0 -164 50 -185 118c-2 5 -3 13 -3 18c0 22 16 38 41 38c18 0 30 -10 39 -29c20 -42 55 -67 108 -67c47 0 87 24 101 67c6 19 9 46 9 78c0 34 -3 58 -10 77c-15 46 -50 66 -97 66c-44 0 -72 -17 -96 -51c-16 -22 -28 -30 -47 -30c-25 0 -40 16 -40 43v305
c0 23 14 37 37 37h288c26 0 41 -16 41 -39s-15 -39 -41 -39h-241c-4 0 -6 -2 -6 -6v-187h2c18 24 58 45 114 45c83 0 143 -39 167 -112c9 -29 15 -62 15 -109c0 -40 -5 -76 -14 -103c-25 -77 -95 -120 -182 -120z" />
    <glyph glyph-name="six.onumprop" horiz-adv-x="523" 
d="M98 352l166 309c8 15 22 24 38 24c22 0 39 -15 39 -38c0 -8 -2 -17 -7 -25l-128 -234l2 -2c13 9 39 16 69 16c107 0 193 -78 193 -202c0 -133 -91 -211 -209 -211c-119 0 -208 78 -208 208c0 54 19 107 45 155zM261 67c74 0 123 53 123 129s-49 128 -123 128
s-122 -52 -122 -128s48 -129 122 -129z" />
    <glyph glyph-name="seven.onumprop" horiz-adv-x="486" 
d="M179 -185c-23 0 -40 17 -40 40c0 6 2 12 4 18l209 525v3h-203c-4 0 -6 -3 -6 -7v-54c0 -27 -16 -44 -40 -44s-40 17 -40 44v100c0 24 15 39 40 39h300c29 0 45 -17 45 -43c0 -13 -3 -25 -14 -52l-215 -541c-8 -18 -23 -28 -40 -28z" />
    <glyph glyph-name="eight.onumprop" horiz-adv-x="526" 
d="M263 -11c-123 0 -210 82 -210 200c0 80 42 139 96 168v2c-43 24 -80 76 -80 144c0 102 73 188 194 188c122 0 194 -86 194 -188c0 -68 -37 -120 -80 -144v-2c54 -29 96 -88 96 -168c0 -118 -87 -200 -210 -200zM263 396c66 0 108 49 108 109s-43 108 -108 108
s-108 -48 -108 -108s42 -109 108 -109zM263 67c75 0 124 53 124 126c0 72 -49 125 -124 125s-124 -53 -124 -125c0 -73 50 -126 124 -126z" />
    <glyph glyph-name="nine.onumprop" horiz-adv-x="523" 
d="M425 127l-154 -288c-8 -15 -22 -24 -38 -24c-22 0 -39 15 -39 38c0 8 2 17 7 25l116 213l-2 2c-13 -9 -39 -16 -69 -16c-107 0 -193 78 -193 202c0 133 91 211 209 211c119 0 208 -78 208 -208c0 -54 -19 -107 -45 -155zM262 412c-74 0 -123 -53 -123 -129
s49 -128 123 -128s122 52 122 128s-48 129 -122 129z" />
    <glyph glyph-name="zero.inferior" unicode="&#x2080;" horiz-adv-x="341" 
d="M170 -163c-65 0 -106 30 -124 83c-6 16 -9 38 -9 127s3 111 9 127c18 53 59 83 124 83s106 -30 124 -83c6 -16 9 -38 9 -127s-3 -111 -9 -127c-17 -53 -59 -83 -124 -83zM170 -102c29 0 50 14 58 39c4 12 6 25 6 110s-2 98 -6 110c-8 25 -29 39 -58 39s-50 -14 -58 -39
c-4 -12 -6 -25 -6 -110s2 -98 6 -110c8 -25 29 -39 58 -39z" />
    <glyph glyph-name="one.inferior" unicode="&#x2081;" horiz-adv-x="341" 
d="M197 -159c-20 0 -34 14 -34 37v292h-1l-39 -27c-7 -4 -14 -6 -21 -6c-17 0 -29 13 -29 31c0 11 6 22 17 29l58 39c14 10 28 17 45 17c24 0 37 -14 37 -39v-336c0 -23 -14 -37 -33 -37z" />
    <glyph glyph-name="two.inferior" unicode="&#x2082;" horiz-adv-x="341" 
d="M130 -95h140c21 0 33 -13 33 -30c0 -18 -12 -31 -33 -31h-200c-21 0 -33 12 -33 31c0 15 8 28 24 44l137 159c20 23 31 42 31 64c0 32 -21 54 -57 54c-31 0 -53 -14 -63 -39c-8 -16 -19 -24 -32 -24c-18 0 -31 12 -31 29c0 5 1 12 3 17c14 39 57 78 124 78
c76 0 123 -50 123 -115c0 -39 -13 -67 -44 -100l-122 -135v-2z" />
    <glyph glyph-name="three.inferior" unicode="&#x2083;" horiz-adv-x="341" 
d="M164 22c-21 0 -33 13 -33 31c0 17 12 30 33 30c37 0 61 22 61 58c0 34 -22 55 -59 55c-29 0 -42 -10 -56 -28c-10 -14 -20 -20 -33 -20c-17 0 -30 11 -30 28c0 5 1 10 3 16c15 35 57 65 118 65c78 0 125 -46 125 -111c0 -38 -17 -68 -46 -87v-1c26 -11 55 -46 55 -98
c0 -73 -52 -123 -131 -123c-62 0 -104 29 -124 68c-3 6 -4 12 -4 17c0 16 13 29 30 29c14 0 23 -6 33 -21c12 -17 32 -32 64 -32c39 0 65 24 65 62c0 37 -26 62 -71 62z" />
    <glyph glyph-name="four.inferior" unicode="&#x2084;" horiz-adv-x="341" 
d="M236 -159c-20 0 -33 13 -33 34v30c0 4 -2 6 -6 6h-142c-19 0 -34 12 -34 32c0 12 5 26 15 46l116 242c7 15 18 23 31 23c18 0 33 -12 33 -31c0 -6 -1 -12 -5 -19l-111 -231v-1h97c4 0 6 2 6 6v66c0 22 13 35 33 35c18 0 32 -13 32 -35v-66c0 -4 2 -6 6 -6h13
c20 0 32 -13 32 -30c0 -18 -12 -31 -32 -31h-13c-4 0 -6 -2 -6 -6v-30c0 -21 -14 -34 -32 -34z" />
    </font>
</defs>
</svg>
